M48
; DRILL file {KiCad 8.0.6} date 2024-12-20T17:34:59-0800
; FORMAT={-:-/ absolute / inch / decimal}
; #@! TF.CreationDate,2024-12-20T17:34:59-08:00
; #@! TF.GenerationSoftware,Kicad,Pcbnew,8.0.6
; #@! TF.FileFunction,Plated,1,4,PTH
FMAT,2
INCH
; #@! TA.AperFunction,Plated,PTH,ViaDrill
T1C0.0059
; #@! TA.AperFunction,Plated,PTH,ViaDrill
T2C0.0079
; #@! TA.AperFunction,Plated,PTH,ComponentDrill
T3C0.0079
; #@! TA.AperFunction,Plated,PTH,ComponentDrill
T4C0.0236
; #@! TA.AperFunction,Plated,PTH,ComponentDrill
T5C0.0394
; #@! TA.AperFunction,Plated,PTH,ComponentDrill
T6C0.0669
; #@! TA.AperFunction,Plated,PTH,ComponentDrill
T7C0.1063
%
G90
G05
T1
X4.9528Y-4.3701
X5.0787Y-4.0157
X5.0787Y-4.0394
X5.0787Y-4.063
X5.1024Y-4.0157
X5.1024Y-4.0394
X5.1024Y-4.063
X5.1181Y-4.378
X5.1496Y-3.7244
X5.2913Y-4.1969
X5.2913Y-4.2205
X5.2913Y-4.2441
X5.315Y-4.2205
X5.3386Y-4.0315
X5.3622Y-4.0315
X5.5039Y-3.5354
X5.5433Y-3.7087
X5.5591Y-3.7244
X5.5748Y-3.7402
X5.624Y-3.7815
X5.6378Y-4.1181
X6.1496Y-4.252
X6.1811Y-4.2441
X6.315Y-4.189
X6.315Y-4.2126
X6.3386Y-4.1102
X6.3386Y-4.1417
X6.3386Y-4.189
X6.3386Y-4.2126
X6.3622Y-4.189
X6.3622Y-4.2126
X6.3858Y-4.189
X6.3858Y-4.2126
X6.4094Y-4.189
X6.4094Y-4.2126
X6.4331Y-4.189
X6.4331Y-4.2126
T2
X5.1377Y-4.1143
X5.1377Y-4.1339
X5.1378Y-4.2913
X5.1378Y-4.311
X5.1574Y-4.1143
X5.1574Y-4.1339
X5.1575Y-4.2913
X5.1575Y-4.311
X5.1771Y-4.1339
X5.1772Y-4.1142
X5.1772Y-4.311
X5.1773Y-4.2912
X5.2126Y-4.7953
X5.2362Y-4.7953
X5.2559Y-3.5236
X5.2559Y-3.5433
X5.2598Y-4.7953
X5.2756Y-3.5236
X5.2756Y-3.5433
X5.2756Y-3.5728
X5.2756Y-3.5925
X5.2953Y-3.5236
X5.2953Y-3.5433
X5.2953Y-3.5728
X5.2953Y-3.5925
X5.315Y-3.5728
X5.315Y-3.5925
X5.4646Y-4.1732
X5.4646Y-4.1969
X5.4646Y-4.2205
X5.4646Y-4.2441
X5.4724Y-4.5354
X5.5217Y-3.7697
X5.5217Y-3.7894
X5.5314Y-3.8879
X5.5314Y-3.9076
X5.5354Y-4.5433
X5.5413Y-3.7697
X5.5413Y-3.7894
X5.5511Y-3.8879
X5.5511Y-3.9076
X5.561Y-3.7697
X5.561Y-3.7894
X5.5708Y-3.9076
X5.5709Y-3.8878
X5.6003Y-3.8879
X5.6003Y-3.9076
X5.62Y-3.8879
X5.62Y-3.9076
X5.6201Y-3.5039
X5.6201Y-3.5236
X5.6201Y-3.5433
X5.6201Y-4.2323
X5.6309Y-4.7795
X5.6397Y-3.9076
X5.6398Y-3.8878
X5.6398Y-4.2126
X5.6398Y-4.2323
X5.6496Y-3.5039
X5.6496Y-3.5236
X5.6496Y-3.5433
X5.6594Y-4.3012
X5.6594Y-4.3307
X5.6594Y-4.3602
X5.6594Y-4.3898
X5.6594Y-4.4193
X5.6703Y-4.8036
X5.689Y-4.3012
X5.689Y-4.3307
X5.689Y-4.3602
X5.689Y-4.3898
X5.689Y-4.4193
X5.69Y-4.7563
X5.7185Y-4.3012
X5.7185Y-4.3307
X5.7185Y-4.3602
X5.7185Y-4.3898
X5.7185Y-4.4193
X5.7293Y-4.7795
X5.7382Y-4.6555
X5.7579Y-4.6358
X5.7579Y-4.6555
X5.7579Y-4.6752
X5.7776Y-4.6555
X5.9419Y-3.8484
X5.9419Y-3.8829
X5.9419Y-3.9171
X5.9419Y-3.9478
X5.9419Y-3.9817
X5.9843Y-4.9016
X5.9843Y-4.9213
X6.0039Y-4.9016
X6.0039Y-4.9213
X6.0067Y-3.9154
X6.0067Y-3.9799
X6.0069Y-3.8484
X6.0069Y-3.8829
X6.0069Y-3.9478
X6.0236Y-4.4882
X6.0236Y-4.5079
X6.0236Y-4.5276
X6.0433Y-4.4882
X6.0433Y-4.5079
X6.0433Y-4.5276
X6.0433Y-4.6161
X6.0531Y-4.2421
X6.0531Y-4.2618
X6.063Y-4.4882
X6.063Y-4.5079
X6.063Y-4.5276
X6.063Y-4.6161
X6.0728Y-4.2421
X6.0728Y-4.2618
X6.0827Y-4.4882
X6.0827Y-4.5079
X6.0827Y-4.5276
X6.0827Y-4.6161
X6.0925Y-4.2421
X6.0925Y-4.2618
X6.2992Y-3.5039
X6.2992Y-3.5236
X6.2992Y-3.5433
X6.2992Y-4.6654
X6.3189Y-3.5039
X6.3189Y-3.5236
X6.3189Y-3.5433
X6.3976Y-4.6654
X6.4724Y-3.7559
X6.4724Y-3.7874
X6.5157Y-4.4685
X6.5157Y-4.498
X6.5197Y-3.9606
X6.5256Y-4.7835
X6.545Y-4.6469
X6.5453Y-4.4685
X6.5453Y-4.498
X6.5453Y-4.5276
X6.5453Y-4.5571
X6.5453Y-4.5866
X6.5453Y-4.6161
X6.5453Y-4.8622
X6.5512Y-3.9764
X6.5827Y-3.8425
X6.7323Y-4.1437
X6.752Y-4.124
X6.752Y-4.1437
X6.7717Y-4.1043
X6.7717Y-4.124
X6.7717Y-4.1437
X6.7913Y-4.0945
X6.7913Y-4.124
X6.7913Y-4.1437
X6.7913Y-4.6457
X6.811Y-4.0945
X6.811Y-4.1142
X6.811Y-4.1437
X6.811Y-4.4587
X6.8209Y-4.6161
X6.8209Y-4.6457
X6.8307Y-4.0945
X6.8307Y-4.1142
X6.8307Y-4.1339
X6.8504Y-4.0945
X6.8504Y-4.1142
X6.8504Y-4.5866
X6.8504Y-4.6161
X6.8504Y-4.6457
X6.8701Y-4.0945
X6.8799Y-4.5866
X6.8799Y-4.6161
X6.8799Y-4.6457
X6.9094Y-4.5866
X6.9094Y-4.6161
X6.9094Y-4.6457
X6.939Y-4.6161
X6.939Y-4.6457
X6.9685Y-4.6457
T3
X5.0787Y-4.1732
X5.0787Y-4.252
X5.1181Y-4.2126
X5.1575Y-4.1732
X5.1575Y-4.252
T5
X4.8504Y-4.0394
X4.8504Y-4.1394
X4.8504Y-4.2913
X4.8504Y-4.3913
X4.8504Y-4.5433
X4.8504Y-4.6433
X4.9606Y-3.685
X4.9606Y-3.785
X4.9606Y-3.885
X5.0709Y-3.4961
X5.1709Y-3.4961
X6.0827Y-4.3701
X6.1827Y-4.3701
X6.3827Y-3.7291
X6.3827Y-3.8291
X6.3827Y-3.9291
X6.3827Y-4.0291
X6.7717Y-4.9016
X7.0181Y-3.7244
X7.0181Y-3.8244
X7.0181Y-3.9244
X7.1181Y-3.7244
X7.1181Y-3.8244
X7.1181Y-3.9244
X7.2047Y-4.9016
T6
X6.8898Y-4.5079
X7.0866Y-4.5079
T7
X6.9783Y-4.2913
X7.1752Y-4.2913
T4
G00X5.0612Y-4.7222
M15
G01X5.0612Y-4.7655
M16
G05
G00X5.0612Y-4.8926
M15
G01X5.0612Y-4.9241
M16
G05
G00X5.4014Y-4.7222
M15
G01X5.4014Y-4.7655
M16
G05
G00X5.4014Y-4.8926
M15
G01X5.4014Y-4.9241
M16
G05
G00X5.5128Y-4.7237
M15
G01X5.5325Y-4.7237
M16
G05
G00X5.5128Y-4.8362
M15
G01X5.5325Y-4.8362
M16
G05
G00X5.8278Y-4.7237
M15
G01X5.8474Y-4.7237
M16
G05
G00X5.8278Y-4.8362
M15
G01X5.8474Y-4.8362
M16
G05
M30
