%TF.GenerationSoftware,KiCad,Pcbnew,8.0.6*%
%TF.CreationDate,2024-12-20T17:35:19-08:00*%
%TF.ProjectId,roomba,726f6f6d-6261-42e6-9b69-6361645f7063,rev?*%
%TF.SameCoordinates,Original*%
%TF.FileFunction,Copper,L4,Bot*%
%TF.FilePolarity,Positive*%
%FSLAX46Y46*%
G04 Gerber Fmt 4.6, Leading zero omitted, Abs format (unit mm)*
G04 Created by KiCad (PCBNEW 8.0.6) date 2024-12-20 17:35:19*
%MOMM*%
%LPD*%
G01*
G04 APERTURE LIST*
G04 Aperture macros list*
%AMRoundRect*
0 Rectangle with rounded corners*
0 $1 Rounding radius*
0 $2 $3 $4 $5 $6 $7 $8 $9 X,Y pos of 4 corners*
0 Add a 4 corners polygon primitive as box body*
4,1,4,$2,$3,$4,$5,$6,$7,$8,$9,$2,$3,0*
0 Add four circle primitives for the rounded corners*
1,1,$1+$1,$2,$3*
1,1,$1+$1,$4,$5*
1,1,$1+$1,$6,$7*
1,1,$1+$1,$8,$9*
0 Add four rect primitives between the rounded corners*
20,1,$1+$1,$2,$3,$4,$5,0*
20,1,$1+$1,$4,$5,$6,$7,0*
20,1,$1+$1,$6,$7,$8,$9,0*
20,1,$1+$1,$8,$9,$2,$3,0*%
G04 Aperture macros list end*
%TA.AperFunction,ComponentPad*%
%ADD10R,1.700000X1.700000*%
%TD*%
%TA.AperFunction,ComponentPad*%
%ADD11O,1.700000X1.700000*%
%TD*%
%TA.AperFunction,ComponentPad*%
%ADD12C,0.450000*%
%TD*%
%TA.AperFunction,ComponentPad*%
%ADD13O,1.600000X1.100000*%
%TD*%
%TA.AperFunction,ComponentPad*%
%ADD14RoundRect,0.250000X-0.250000X-0.650000X0.250000X-0.650000X0.250000X0.650000X-0.250000X0.650000X0*%
%TD*%
%TA.AperFunction,ComponentPad*%
%ADD15O,1.000000X2.100000*%
%TD*%
%TA.AperFunction,ComponentPad*%
%ADD16C,4.000000*%
%TD*%
%TA.AperFunction,ComponentPad*%
%ADD17RoundRect,0.760000X-1.140000X-1.140000X1.140000X-1.140000X1.140000X1.140000X-1.140000X1.140000X0*%
%TD*%
%TA.AperFunction,ComponentPad*%
%ADD18R,2.550000X2.550000*%
%TD*%
%TA.AperFunction,ComponentPad*%
%ADD19C,1.508000*%
%TD*%
%TA.AperFunction,ComponentPad*%
%ADD20C,2.550000*%
%TD*%
%TA.AperFunction,ViaPad*%
%ADD21C,0.400000*%
%TD*%
%TA.AperFunction,ViaPad*%
%ADD22C,0.450000*%
%TD*%
G04 APERTURE END LIST*
D10*
%TO.P,U3,1,GND*%
%TO.N,GND*%
X162120000Y-102340000D03*
D11*
%TO.P,U3,2,VCC_IN*%
%TO.N,+3V3*%
X162120000Y-99800000D03*
%TO.P,U3,3,SDA*%
%TO.N,/SCL*%
X162120000Y-97260000D03*
%TO.P,U3,4,SCL*%
%TO.N,/SDA*%
X162120000Y-94720000D03*
%TD*%
D12*
%TO.P,U2,19,BODYGND*%
%TO.N,GND*%
X131000000Y-106000000D03*
X129000000Y-106000000D03*
X130000000Y-107000000D03*
X131000000Y-108000000D03*
X129000000Y-108000000D03*
%TD*%
D10*
%TO.P,M3,1,+*%
%TO.N,+BATT*%
X123200000Y-115400000D03*
D11*
%TO.P,M3,2,-*%
%TO.N,Net-(D10-A)*%
X123200000Y-117940000D03*
%TD*%
%TO.P,M2,2,-*%
%TO.N,Net-(M2--)*%
X123200000Y-109000000D03*
D10*
%TO.P,M2,1,+*%
%TO.N,Net-(M2-+)*%
X123200000Y-111540000D03*
%TD*%
%TO.P,M1,1,+*%
%TO.N,Net-(M1-+)*%
X123200000Y-102600000D03*
D11*
%TO.P,M1,2,-*%
%TO.N,Net-(M1--)*%
X123200000Y-105140000D03*
%TD*%
%TO.P,J7,2,Pin_2*%
%TO.N,+3V3*%
X157040000Y-111000000D03*
D10*
%TO.P,J7,1,Pin_1*%
%TO.N,GND*%
X154500000Y-111000000D03*
%TD*%
%TO.P,J6,1,Pin_1*%
%TO.N,GND*%
X131340000Y-88800000D03*
D11*
%TO.P,J6,2,Pin_2*%
%TO.N,+BATT*%
X128800000Y-88800000D03*
%TD*%
D13*
%TO.P,J4,S4,SHIELD*%
%TO.N,GND*%
X148275000Y-122840750D03*
%TO.P,J4,S3,SHIELD*%
X140275000Y-122840750D03*
%TO.P,J4,S2,SHIELD*%
X148275000Y-119980750D03*
%TO.P,J4,S1,SHIELD*%
X140275000Y-119980750D03*
%TD*%
D10*
%TO.P,J2,1,Pin_1*%
%TO.N,GND*%
X126000000Y-98680000D03*
D11*
%TO.P,J2,2,Pin_2*%
%TO.N,unconnected-(J2-Pin_2-Pad2)*%
X126000000Y-96140000D03*
%TO.P,J2,3,Pin_3*%
%TO.N,/BLDC_MOT*%
X126000000Y-93600000D03*
%TD*%
D14*
%TO.P,J1,S4,SHELL_GND*%
%TO.N,GND*%
X137195000Y-124673250D03*
%TO.P,J1,S3,SHELL_GND*%
X128555000Y-124673250D03*
D15*
%TO.P,J1,S2,SHELL_GND*%
X137195000Y-120493250D03*
%TO.P,J1,S1,SHELL_GND*%
X128555000Y-120493250D03*
%TD*%
D16*
%TO.P,J5,2,N*%
%TO.N,GND*%
X182250000Y-109000000D03*
D17*
%TO.P,J5,1,P*%
%TO.N,/Power/D_BATT*%
X177250000Y-109000000D03*
%TD*%
D18*
%TO.P,J3,1,P*%
%TO.N,/Power/D_BATT*%
X180000000Y-114500000D03*
D19*
%TO.P,J3,2,N*%
%TO.N,GND*%
X183000000Y-124500000D03*
D20*
X175000000Y-114500000D03*
D19*
X172000000Y-124500000D03*
%TD*%
D10*
%TO.P,LED1,1,Pin_1*%
%TO.N,+3V3*%
X178260000Y-94600000D03*
D11*
%TO.P,LED1,2,Pin_2*%
X180800000Y-94600000D03*
%TO.P,LED1,3,Pin_3*%
%TO.N,/LED_S1*%
X178260000Y-97140000D03*
%TO.P,LED1,4,Pin_4*%
%TO.N,/LED_S2*%
X180800000Y-97140000D03*
%TO.P,LED1,5,Pin_5*%
%TO.N,GND*%
X178260000Y-99680000D03*
%TO.P,LED1,6,Pin_6*%
X180800000Y-99680000D03*
%TD*%
D21*
%TO.N,GND*%
X143250000Y-107000000D03*
X143250000Y-107500000D03*
X142750000Y-107500000D03*
%TO.N,Net-(U1-SW)*%
X153000000Y-115000000D03*
X154000000Y-115000000D03*
X153500000Y-115000000D03*
X154500000Y-115000000D03*
X153000000Y-114500000D03*
X154000000Y-114500000D03*
X153500000Y-114500000D03*
X154500000Y-114500000D03*
X153500000Y-117250000D03*
X154000000Y-117250000D03*
X154500000Y-117250000D03*
X154500000Y-114000000D03*
X154000000Y-114000000D03*
X153500000Y-114000000D03*
X153000000Y-114000000D03*
%TO.N,GND*%
X152500000Y-125000000D03*
X152000000Y-125000000D03*
X152500000Y-124500000D03*
X152000000Y-124500000D03*
X177000000Y-118000000D03*
X176250000Y-118000000D03*
X176250000Y-117250000D03*
X172500000Y-118000000D03*
X173250000Y-117250000D03*
X173250000Y-118000000D03*
X175500000Y-118000000D03*
X174750000Y-118000000D03*
X174000000Y-118000000D03*
X175500000Y-117250000D03*
X175500000Y-116500000D03*
X174750000Y-116500000D03*
X174750000Y-117250000D03*
X174000000Y-117250000D03*
X174000000Y-116500000D03*
X173500000Y-104000000D03*
X174500000Y-104000000D03*
X172500000Y-104000000D03*
X174000000Y-104500000D03*
X173000000Y-104000000D03*
X173500000Y-104500000D03*
X174000000Y-104000000D03*
X173000000Y-104500000D03*
X173500000Y-105000000D03*
X166242062Y-118031831D03*
X166250000Y-117250000D03*
X166250000Y-116500000D03*
X166250000Y-115750000D03*
X166250000Y-115000000D03*
X166250000Y-114250000D03*
X165500000Y-114250000D03*
X166250000Y-113500000D03*
X165500000Y-113500000D03*
%TO.N,Net-(U1-VFB)*%
X162500000Y-118500000D03*
X160000000Y-118500000D03*
%TO.N,GND*%
X135000000Y-91250000D03*
X134000000Y-90750000D03*
X134500000Y-91250000D03*
X134000000Y-91250000D03*
X134500000Y-90750000D03*
X135000000Y-90750000D03*
X134500000Y-90000000D03*
X133500000Y-89500000D03*
X134000000Y-90000000D03*
X133500000Y-90000000D03*
X134000000Y-89500000D03*
X134500000Y-89500000D03*
X141250000Y-96250000D03*
X140250000Y-95750000D03*
X140750000Y-96250000D03*
X140250000Y-96250000D03*
X140750000Y-95750000D03*
X141250000Y-95750000D03*
X141497687Y-99252314D03*
X140997687Y-99252314D03*
X140997687Y-98752314D03*
X140497687Y-98752314D03*
X141500000Y-98750000D03*
X140497687Y-99252314D03*
X131497687Y-105002314D03*
X130997687Y-105002314D03*
X130997687Y-104502314D03*
X130497687Y-104502314D03*
X131500000Y-104500000D03*
X130497687Y-105002314D03*
X131502313Y-108997686D03*
X131000000Y-109000000D03*
X130500000Y-109000000D03*
X130500000Y-109500000D03*
X131000000Y-109500000D03*
X131500000Y-109500000D03*
X172000000Y-104250000D03*
X172500000Y-104750000D03*
X173000000Y-105250000D03*
X172000000Y-104750000D03*
X171500000Y-104750000D03*
X172500000Y-105250000D03*
X172000000Y-105250000D03*
X171500000Y-105250000D03*
X171000000Y-105250000D03*
X146250000Y-117750000D03*
X146250000Y-118750000D03*
X146750000Y-118250000D03*
X146250000Y-118250000D03*
X145750000Y-118250000D03*
X154750000Y-107750000D03*
X153750000Y-107750000D03*
X154250000Y-107750000D03*
X154750000Y-108250000D03*
X154250000Y-108250000D03*
X153750000Y-108250000D03*
X160500000Y-89000000D03*
X160000000Y-89000000D03*
X160500000Y-89500000D03*
X160000000Y-89500000D03*
X160500000Y-90000000D03*
X160000000Y-90000000D03*
X143500000Y-90000000D03*
X142750000Y-90000000D03*
X143500000Y-89500000D03*
X142750000Y-89500000D03*
X143500000Y-89000000D03*
X142750000Y-89000000D03*
X152570000Y-101090000D03*
X150925000Y-101135000D03*
X150925000Y-100275000D03*
X152575000Y-100275000D03*
X152575000Y-98625000D03*
X150925000Y-98625000D03*
%TO.N,Net-(Q9-G)*%
X165750000Y-121500000D03*
%TO.N,+3V3*%
X145250000Y-109250000D03*
X144500000Y-109250000D03*
X143750000Y-109250000D03*
X145250000Y-110000000D03*
X144500000Y-110000000D03*
X143750000Y-110000000D03*
X145250000Y-110750000D03*
X144500000Y-110750000D03*
X143750000Y-110750000D03*
X145250000Y-111500000D03*
X144500000Y-111500000D03*
X143750000Y-111500000D03*
X145250000Y-112250000D03*
X144500000Y-112250000D03*
X143750000Y-112250000D03*
%TO.N,GND*%
X138800000Y-107800000D03*
X138800000Y-107200000D03*
X138800000Y-106600000D03*
X138800000Y-106000000D03*
%TO.N,/SDA*%
X166400000Y-101000000D03*
%TO.N,/SCL*%
X165600000Y-100600000D03*
X164400000Y-95400000D03*
%TO.N,/SDA*%
X164400000Y-96200000D03*
D22*
%TO.N,/LED_S2*%
X161000000Y-105200000D03*
%TO.N,/LED_S1*%
X161000000Y-104400000D03*
%TO.N,+BATT*%
X135600000Y-102400000D03*
X136200000Y-102400000D03*
%TO.N,/SDA*%
X156200000Y-108000000D03*
%TO.N,Net-(MCU1-IO0)*%
X139800000Y-89800000D03*
X142850000Y-96050000D03*
%TO.N,+3V3*%
X141200000Y-94600000D03*
X141600000Y-95000000D03*
X140800000Y-94200000D03*
X130800000Y-94600000D03*
X129000000Y-103200000D03*
X129000000Y-102600000D03*
X129000000Y-102000000D03*
X129600000Y-103200000D03*
X129600000Y-102600000D03*
X129600000Y-102000000D03*
%TO.N,+BATT*%
X134400000Y-106600000D03*
X134400000Y-107800000D03*
X135000000Y-107200000D03*
X134400000Y-107200000D03*
%TO.N,+3V3*%
X125800000Y-111000000D03*
%TO.N,/nFault*%
X130000000Y-111200000D03*
X143200000Y-104600000D03*
%TO.N,+BATT*%
X162800000Y-106400000D03*
X163400000Y-107000000D03*
X162800000Y-107000000D03*
X163400000Y-106400000D03*
X161600000Y-106400000D03*
X162200000Y-107000000D03*
X161600000Y-107000000D03*
X162200000Y-106400000D03*
X161000000Y-106400000D03*
X160400000Y-106400000D03*
X161000000Y-107000000D03*
X160400000Y-107000000D03*
D21*
%TO.N,/DN*%
X144525000Y-120810750D03*
X144025000Y-122010750D03*
%TO.N,+V_USB*%
X133000000Y-121800000D03*
X132400000Y-121800000D03*
X133600000Y-121800000D03*
X145525000Y-121400000D03*
X143025000Y-121400000D03*
D22*
%TO.N,/SCL*%
X157000000Y-107800000D03*
D21*
%TO.N,GND*%
X167200000Y-97600000D03*
%TO.N,/DN*%
X140600000Y-115400000D03*
X139000000Y-115200000D03*
%TO.N,GND*%
X150925000Y-97750000D03*
X152575000Y-97750000D03*
X150925000Y-99495000D03*
X152570000Y-99450000D03*
X142247687Y-99252314D03*
X143250000Y-98750000D03*
X142247687Y-98752314D03*
X142747687Y-98752314D03*
X142747687Y-99252314D03*
X143247687Y-99252314D03*
%TO.N,Net-(Q9-G)*%
X173000000Y-113250000D03*
%TO.N,/Power/D_BATT*%
X166250000Y-123500000D03*
%TD*%
%TA.AperFunction,Conductor*%
%TO.N,GND*%
G36*
X180334075Y-99487007D02*
G01*
X180300000Y-99614174D01*
X180300000Y-99745826D01*
X180334075Y-99872993D01*
X180366988Y-99930000D01*
X178693012Y-99930000D01*
X178725925Y-99872993D01*
X178760000Y-99745826D01*
X178760000Y-99614174D01*
X178725925Y-99487007D01*
X178693012Y-99430000D01*
X180366988Y-99430000D01*
X180334075Y-99487007D01*
G37*
%TD.AperFunction*%
%TA.AperFunction,Conductor*%
G36*
X144009191Y-86769407D02*
G01*
X144045155Y-86818907D01*
X144050000Y-86849500D01*
X144050000Y-91725000D01*
X144050001Y-91725000D01*
X159449999Y-91725000D01*
X159450000Y-91725000D01*
X159450000Y-89143709D01*
X181399500Y-89143709D01*
X181399500Y-89356290D01*
X181432752Y-89566238D01*
X181498443Y-89768412D01*
X181594948Y-89957815D01*
X181594950Y-89957819D01*
X181719891Y-90129786D01*
X181719893Y-90129788D01*
X181719896Y-90129792D01*
X181870208Y-90280104D01*
X181870211Y-90280106D01*
X181870213Y-90280108D01*
X182042180Y-90405049D01*
X182042184Y-90405051D01*
X182231588Y-90501557D01*
X182433757Y-90567246D01*
X182433758Y-90567246D01*
X182433761Y-90567247D01*
X182643710Y-90600500D01*
X182643713Y-90600500D01*
X182856290Y-90600500D01*
X183066238Y-90567247D01*
X183066239Y-90567246D01*
X183066243Y-90567246D01*
X183268412Y-90501557D01*
X183457816Y-90405051D01*
X183629792Y-90280104D01*
X183780104Y-90129792D01*
X183863402Y-90015141D01*
X183905049Y-89957819D01*
X183905051Y-89957816D01*
X184001557Y-89768412D01*
X184067246Y-89566243D01*
X184067247Y-89566238D01*
X184100500Y-89356290D01*
X184100500Y-89143709D01*
X184067247Y-88933761D01*
X184067246Y-88933757D01*
X184001557Y-88731588D01*
X183905051Y-88542184D01*
X183905049Y-88542180D01*
X183780108Y-88370213D01*
X183780106Y-88370211D01*
X183780104Y-88370208D01*
X183629792Y-88219896D01*
X183629788Y-88219893D01*
X183629786Y-88219891D01*
X183457819Y-88094950D01*
X183457815Y-88094948D01*
X183268412Y-87998443D01*
X183066238Y-87932752D01*
X182856290Y-87899500D01*
X182856287Y-87899500D01*
X182643713Y-87899500D01*
X182643710Y-87899500D01*
X182433761Y-87932752D01*
X182231587Y-87998443D01*
X182042184Y-88094948D01*
X182042180Y-88094950D01*
X181870213Y-88219891D01*
X181719891Y-88370213D01*
X181594950Y-88542180D01*
X181594948Y-88542184D01*
X181498443Y-88731587D01*
X181432752Y-88933761D01*
X181399500Y-89143709D01*
X159450000Y-89143709D01*
X159450000Y-86849500D01*
X159468907Y-86791309D01*
X159518407Y-86755345D01*
X159549000Y-86750500D01*
X183684108Y-86750500D01*
X183746460Y-86750500D01*
X183753522Y-86750752D01*
X183778505Y-86752538D01*
X183956345Y-86765258D01*
X183970308Y-86767265D01*
X184165549Y-86809737D01*
X184179088Y-86813713D01*
X184366292Y-86883537D01*
X184379118Y-86889394D01*
X184554476Y-86985146D01*
X184566356Y-86992781D01*
X184726294Y-87112509D01*
X184736966Y-87121756D01*
X184878243Y-87263033D01*
X184887493Y-87273709D01*
X185007218Y-87433643D01*
X185014854Y-87445525D01*
X185110602Y-87620875D01*
X185116466Y-87633715D01*
X185186284Y-87820904D01*
X185190264Y-87834457D01*
X185232732Y-88029681D01*
X185234742Y-88043662D01*
X185249248Y-88246476D01*
X185249500Y-88253539D01*
X185249500Y-120065892D01*
X185250878Y-120071034D01*
X185283609Y-120193190D01*
X185349496Y-120307309D01*
X185349498Y-120307311D01*
X185349500Y-120307314D01*
X185442686Y-120400500D01*
X185442688Y-120400501D01*
X185442690Y-120400503D01*
X185556810Y-120466390D01*
X185556808Y-120466390D01*
X185556812Y-120466391D01*
X185556814Y-120466392D01*
X185684108Y-120500500D01*
X185815892Y-120500500D01*
X190434694Y-120500500D01*
X190456001Y-120502820D01*
X190456585Y-120502949D01*
X190509005Y-120500599D01*
X190513438Y-120500500D01*
X190538494Y-120500500D01*
X190541329Y-120500541D01*
X190722775Y-120505739D01*
X190737220Y-120507218D01*
X190927431Y-120540951D01*
X190941486Y-120544524D01*
X191124721Y-120605731D01*
X191138108Y-120611326D01*
X191310399Y-120698684D01*
X191322834Y-120706184D01*
X191480483Y-120817813D01*
X191491685Y-120827050D01*
X191605686Y-120936057D01*
X191631302Y-120960550D01*
X191641027Y-120971322D01*
X191759607Y-121123821D01*
X191767655Y-121135907D01*
X191862635Y-121304107D01*
X191868831Y-121317247D01*
X191938173Y-121497535D01*
X191942379Y-121511440D01*
X191984589Y-121699933D01*
X191986715Y-121714304D01*
X192001153Y-121910567D01*
X192001420Y-121917830D01*
X192001420Y-121980102D01*
X192001427Y-121980156D01*
X192002265Y-121991941D01*
X192028055Y-124276907D01*
X192026697Y-124290086D01*
X192026909Y-124290105D01*
X192026351Y-124296569D01*
X192028852Y-124352376D01*
X192028945Y-124355689D01*
X192029078Y-124367454D01*
X192029043Y-124371407D01*
X192023564Y-124562757D01*
X192022084Y-124577209D01*
X191988356Y-124767406D01*
X191984777Y-124781485D01*
X191923579Y-124964696D01*
X191917978Y-124978101D01*
X191830623Y-125150390D01*
X191823120Y-125162830D01*
X191711497Y-125320473D01*
X191702255Y-125331681D01*
X191568760Y-125471294D01*
X191557977Y-125481029D01*
X191405487Y-125599604D01*
X191393395Y-125607656D01*
X191225197Y-125702635D01*
X191212057Y-125708831D01*
X191031767Y-125778174D01*
X191017862Y-125782380D01*
X190829368Y-125824591D01*
X190814997Y-125826717D01*
X190620184Y-125841047D01*
X190611607Y-125841305D01*
X183914529Y-125752422D01*
X183902922Y-125751584D01*
X183901697Y-125751422D01*
X183839715Y-125751421D01*
X183838404Y-125751412D01*
X183776538Y-125750590D01*
X183775308Y-125750736D01*
X183763714Y-125751417D01*
X183713059Y-125751416D01*
X183654869Y-125732508D01*
X183618906Y-125683007D01*
X183618907Y-125621821D01*
X183654872Y-125572322D01*
X183656276Y-125571321D01*
X183692442Y-125545996D01*
X183129408Y-124982962D01*
X183192993Y-124965925D01*
X183307007Y-124900099D01*
X183400099Y-124807007D01*
X183465925Y-124692993D01*
X183482962Y-124629408D01*
X184045996Y-125192442D01*
X184090137Y-125129405D01*
X184090145Y-125129391D01*
X184182875Y-124930533D01*
X184239667Y-124718579D01*
X184258790Y-124500003D01*
X184258790Y-124499996D01*
X184239667Y-124281420D01*
X184182874Y-124069463D01*
X184090148Y-123870613D01*
X184090146Y-123870609D01*
X184045995Y-123807555D01*
X183482962Y-124370589D01*
X183465925Y-124307007D01*
X183400099Y-124192993D01*
X183307007Y-124099901D01*
X183192993Y-124034075D01*
X183129407Y-124017036D01*
X183692442Y-123454002D01*
X183629396Y-123409856D01*
X183629386Y-123409851D01*
X183430535Y-123317125D01*
X183430536Y-123317125D01*
X183218579Y-123260332D01*
X183000003Y-123241210D01*
X182999997Y-123241210D01*
X182781420Y-123260332D01*
X182569463Y-123317125D01*
X182370615Y-123409850D01*
X182370609Y-123409853D01*
X182307556Y-123454002D01*
X182870591Y-124017037D01*
X182807007Y-124034075D01*
X182692993Y-124099901D01*
X182599901Y-124192993D01*
X182534075Y-124307007D01*
X182517037Y-124370591D01*
X181954002Y-123807556D01*
X181909853Y-123870609D01*
X181909850Y-123870615D01*
X181817125Y-124069463D01*
X181760332Y-124281420D01*
X181741210Y-124499996D01*
X181741210Y-124500003D01*
X181760332Y-124718579D01*
X181817125Y-124930536D01*
X181909851Y-125129386D01*
X181909856Y-125129396D01*
X181954002Y-125192442D01*
X182517036Y-124629407D01*
X182534075Y-124692993D01*
X182599901Y-124807007D01*
X182692993Y-124900099D01*
X182807007Y-124965925D01*
X182870589Y-124982962D01*
X182307555Y-125545995D01*
X182343657Y-125571274D01*
X182380479Y-125620139D01*
X182381547Y-125681315D01*
X182346453Y-125731435D01*
X182288601Y-125751355D01*
X182286870Y-125751370D01*
X172713553Y-125751069D01*
X172655363Y-125732160D01*
X172619400Y-125682659D01*
X172619402Y-125621473D01*
X172655368Y-125571974D01*
X172656771Y-125570973D01*
X172692441Y-125545995D01*
X172129408Y-124982962D01*
X172192993Y-124965925D01*
X172307007Y-124900099D01*
X172400099Y-124807007D01*
X172465925Y-124692993D01*
X172482962Y-124629408D01*
X173045996Y-125192442D01*
X173090137Y-125129405D01*
X173090145Y-125129391D01*
X173182875Y-124930533D01*
X173239667Y-124718579D01*
X173258790Y-124500003D01*
X173258790Y-124499996D01*
X173239667Y-124281420D01*
X173182874Y-124069463D01*
X173090148Y-123870613D01*
X173090146Y-123870609D01*
X173045995Y-123807555D01*
X172482962Y-124370589D01*
X172465925Y-124307007D01*
X172400099Y-124192993D01*
X172307007Y-124099901D01*
X172192993Y-124034075D01*
X172129407Y-124017036D01*
X172692442Y-123454002D01*
X172629396Y-123409856D01*
X172629386Y-123409851D01*
X172430535Y-123317125D01*
X172430536Y-123317125D01*
X172218579Y-123260332D01*
X172000003Y-123241210D01*
X171999997Y-123241210D01*
X171781420Y-123260332D01*
X171569463Y-123317125D01*
X171370615Y-123409850D01*
X171370609Y-123409853D01*
X171307556Y-123454002D01*
X171870591Y-124017037D01*
X171807007Y-124034075D01*
X171692993Y-124099901D01*
X171599901Y-124192993D01*
X171534075Y-124307007D01*
X171517037Y-124370591D01*
X170954002Y-123807556D01*
X170909853Y-123870609D01*
X170909850Y-123870615D01*
X170817125Y-124069463D01*
X170760332Y-124281420D01*
X170741210Y-124499996D01*
X170741210Y-124500003D01*
X170760332Y-124718579D01*
X170817125Y-124930536D01*
X170909851Y-125129386D01*
X170909856Y-125129396D01*
X170954002Y-125192442D01*
X171517036Y-124629407D01*
X171534075Y-124692993D01*
X171599901Y-124807007D01*
X171692993Y-124900099D01*
X171807007Y-124965925D01*
X171870589Y-124982962D01*
X171307555Y-125545995D01*
X171343164Y-125570929D01*
X171379986Y-125619794D01*
X171381053Y-125680970D01*
X171345958Y-125731090D01*
X171288106Y-125751010D01*
X171286376Y-125751025D01*
X138230794Y-125749986D01*
X138172604Y-125731077D01*
X138136641Y-125681576D01*
X138136643Y-125620390D01*
X138136822Y-125619846D01*
X138184506Y-125475943D01*
X138195000Y-125373237D01*
X138195000Y-124923251D01*
X138194999Y-124923250D01*
X137495000Y-124923250D01*
X137495000Y-124423250D01*
X138194998Y-124423250D01*
X138194999Y-124423249D01*
X138194999Y-123973263D01*
X138184507Y-123870562D01*
X138184504Y-123870550D01*
X138129356Y-123704125D01*
X138037319Y-123554909D01*
X137913340Y-123430930D01*
X137764124Y-123338893D01*
X137597693Y-123283743D01*
X137494987Y-123273250D01*
X137445001Y-123273250D01*
X137445000Y-123273251D01*
X137445000Y-124106261D01*
X137435060Y-124089045D01*
X137379205Y-124033190D01*
X137310796Y-123993694D01*
X137234496Y-123973250D01*
X137155504Y-123973250D01*
X137079204Y-123993694D01*
X137010795Y-124033190D01*
X136954940Y-124089045D01*
X136945000Y-124106261D01*
X136945000Y-123273249D01*
X136895015Y-123273250D01*
X136895012Y-123273251D01*
X136792312Y-123283742D01*
X136792300Y-123283745D01*
X136625875Y-123338893D01*
X136476659Y-123430930D01*
X136352680Y-123554909D01*
X136260643Y-123704125D01*
X136205493Y-123870556D01*
X136195000Y-123973262D01*
X136195000Y-124423249D01*
X136195001Y-124423250D01*
X136895000Y-124423250D01*
X136895000Y-124923250D01*
X136195002Y-124923250D01*
X136195001Y-124923251D01*
X136195001Y-125373236D01*
X136205492Y-125475937D01*
X136205495Y-125475949D01*
X136253156Y-125619780D01*
X136253512Y-125680964D01*
X136217837Y-125730673D01*
X136159757Y-125749918D01*
X136159178Y-125749920D01*
X129590884Y-125749714D01*
X129532694Y-125730805D01*
X129496731Y-125681304D01*
X129496733Y-125620118D01*
X129496912Y-125619574D01*
X129544506Y-125475943D01*
X129555000Y-125373237D01*
X129555000Y-124923251D01*
X129554999Y-124923250D01*
X128855000Y-124923250D01*
X128855000Y-124423250D01*
X129554998Y-124423250D01*
X129554999Y-124423249D01*
X129554999Y-123973263D01*
X129544507Y-123870562D01*
X129544504Y-123870550D01*
X129489356Y-123704125D01*
X129397319Y-123554909D01*
X129273340Y-123430930D01*
X129124124Y-123338893D01*
X128957693Y-123283743D01*
X128854987Y-123273250D01*
X128805001Y-123273250D01*
X128805000Y-123273251D01*
X128805000Y-124106261D01*
X128795060Y-124089045D01*
X128739205Y-124033190D01*
X128670796Y-123993694D01*
X128594496Y-123973250D01*
X128515504Y-123973250D01*
X128439204Y-123993694D01*
X128370795Y-124033190D01*
X128314940Y-124089045D01*
X128305000Y-124106261D01*
X128305000Y-123273249D01*
X128255015Y-123273250D01*
X128255012Y-123273251D01*
X128152312Y-123283742D01*
X128152300Y-123283745D01*
X127985875Y-123338893D01*
X127836659Y-123430930D01*
X127712680Y-123554909D01*
X127620643Y-123704125D01*
X127565493Y-123870556D01*
X127555000Y-123973262D01*
X127555000Y-124423249D01*
X127555001Y-124423250D01*
X128255000Y-124423250D01*
X128255000Y-124923250D01*
X127555002Y-124923250D01*
X127555001Y-124923251D01*
X127555001Y-125373236D01*
X127565492Y-125475937D01*
X127565495Y-125475949D01*
X127613066Y-125619509D01*
X127613422Y-125680693D01*
X127577747Y-125730402D01*
X127519667Y-125749647D01*
X127519088Y-125749649D01*
X122821977Y-125749502D01*
X122821943Y-125749500D01*
X122815892Y-125749500D01*
X122753540Y-125749500D01*
X122746477Y-125749248D01*
X122543662Y-125734742D01*
X122529681Y-125732732D01*
X122334457Y-125690264D01*
X122320904Y-125686284D01*
X122221611Y-125649249D01*
X122133713Y-125616465D01*
X122120875Y-125610602D01*
X121945525Y-125514854D01*
X121933643Y-125507218D01*
X121773709Y-125387493D01*
X121763033Y-125378243D01*
X121621756Y-125236966D01*
X121612506Y-125226290D01*
X121565000Y-125162830D01*
X121492781Y-125066356D01*
X121485145Y-125054474D01*
X121389394Y-124879118D01*
X121383537Y-124866292D01*
X121313713Y-124679088D01*
X121309737Y-124665549D01*
X121267265Y-124470308D01*
X121265258Y-124456345D01*
X121250752Y-124253522D01*
X121250500Y-124246460D01*
X121250500Y-123143709D01*
X122399500Y-123143709D01*
X122399500Y-123356290D01*
X122432752Y-123566238D01*
X122498443Y-123768412D01*
X122594948Y-123957815D01*
X122594950Y-123957819D01*
X122719891Y-124129786D01*
X122719893Y-124129788D01*
X122719896Y-124129792D01*
X122870208Y-124280104D01*
X122870211Y-124280106D01*
X122870213Y-124280108D01*
X123042180Y-124405049D01*
X123042184Y-124405051D01*
X123231588Y-124501557D01*
X123433757Y-124567246D01*
X123433758Y-124567246D01*
X123433761Y-124567247D01*
X123643710Y-124600500D01*
X123643713Y-124600500D01*
X123856290Y-124600500D01*
X124066238Y-124567247D01*
X124066239Y-124567246D01*
X124066243Y-124567246D01*
X124268412Y-124501557D01*
X124457816Y-124405051D01*
X124629792Y-124280104D01*
X124780104Y-124129792D01*
X124905051Y-123957816D01*
X125001557Y-123768412D01*
X125067246Y-123566243D01*
X125077738Y-123499999D01*
X125100500Y-123356290D01*
X125100500Y-123143709D01*
X125067247Y-122933761D01*
X125067246Y-122933757D01*
X125001557Y-122731588D01*
X124905051Y-122542184D01*
X124905049Y-122542180D01*
X124780108Y-122370213D01*
X124780106Y-122370211D01*
X124780104Y-122370208D01*
X124629792Y-122219896D01*
X124629788Y-122219893D01*
X124629786Y-122219891D01*
X124457819Y-122094950D01*
X124457815Y-122094948D01*
X124268412Y-121998443D01*
X124066238Y-121932752D01*
X123856290Y-121899500D01*
X123856287Y-121899500D01*
X123643713Y-121899500D01*
X123643710Y-121899500D01*
X123433761Y-121932752D01*
X123231587Y-121998443D01*
X123042184Y-122094948D01*
X123042180Y-122094950D01*
X122870213Y-122219891D01*
X122719891Y-122370213D01*
X122594950Y-122542180D01*
X122594948Y-122542184D01*
X122498443Y-122731587D01*
X122432752Y-122933761D01*
X122399500Y-123143709D01*
X121250500Y-123143709D01*
X121250500Y-119844756D01*
X127555000Y-119844756D01*
X127555000Y-120243249D01*
X127555001Y-120243250D01*
X128255000Y-120243250D01*
X128255000Y-120743250D01*
X127555001Y-120743250D01*
X127555000Y-120743251D01*
X127555000Y-121141743D01*
X127593429Y-121334938D01*
X127593429Y-121334940D01*
X127668808Y-121516923D01*
X127668814Y-121516935D01*
X127778249Y-121680712D01*
X127778252Y-121680716D01*
X127917533Y-121819997D01*
X127917537Y-121820000D01*
X128081314Y-121929435D01*
X128081326Y-121929441D01*
X128263304Y-122004818D01*
X128263315Y-122004821D01*
X128305000Y-122013112D01*
X128305000Y-121210238D01*
X128314940Y-121227455D01*
X128370795Y-121283310D01*
X128439204Y-121322806D01*
X128515504Y-121343250D01*
X128594496Y-121343250D01*
X128670796Y-121322806D01*
X128739205Y-121283310D01*
X128795060Y-121227455D01*
X128805000Y-121210238D01*
X128805000Y-122013111D01*
X128846684Y-122004821D01*
X128846695Y-122004818D01*
X129028673Y-121929441D01*
X129028685Y-121929435D01*
X129192462Y-121820000D01*
X129192466Y-121819997D01*
X129212464Y-121799999D01*
X131994508Y-121799999D01*
X131994508Y-121800000D01*
X132014354Y-121925303D01*
X132014355Y-121925307D01*
X132065231Y-122025155D01*
X132071950Y-122038342D01*
X132161658Y-122128050D01*
X132274696Y-122185646D01*
X132400000Y-122205492D01*
X132525304Y-122185646D01*
X132638342Y-122128050D01*
X132638348Y-122128043D01*
X132641810Y-122125530D01*
X132700000Y-122106623D01*
X132758190Y-122125530D01*
X132761654Y-122128046D01*
X132761658Y-122128050D01*
X132874696Y-122185646D01*
X133000000Y-122205492D01*
X133125304Y-122185646D01*
X133238342Y-122128050D01*
X133238348Y-122128043D01*
X133241810Y-122125530D01*
X133300000Y-122106623D01*
X133358190Y-122125530D01*
X133361654Y-122128046D01*
X133361658Y-122128050D01*
X133474696Y-122185646D01*
X133600000Y-122205492D01*
X133725304Y-122185646D01*
X133838342Y-122128050D01*
X133928050Y-122038342D01*
X133985646Y-121925304D01*
X134005492Y-121800000D01*
X133985646Y-121674696D01*
X133928050Y-121561658D01*
X133838342Y-121471950D01*
X133802652Y-121453765D01*
X133725307Y-121414355D01*
X133725304Y-121414354D01*
X133600000Y-121394508D01*
X133474696Y-121414354D01*
X133474692Y-121414355D01*
X133361656Y-121471950D01*
X133358185Y-121474473D01*
X133299993Y-121493376D01*
X133241815Y-121474473D01*
X133238343Y-121471950D01*
X133125307Y-121414355D01*
X133125304Y-121414354D01*
X133000000Y-121394508D01*
X132874696Y-121414354D01*
X132874692Y-121414355D01*
X132761656Y-121471950D01*
X132758185Y-121474473D01*
X132699993Y-121493376D01*
X132641815Y-121474473D01*
X132638343Y-121471950D01*
X132525307Y-121414355D01*
X132525304Y-121414354D01*
X132400000Y-121394508D01*
X132274696Y-121414354D01*
X132274692Y-121414355D01*
X132161659Y-121471949D01*
X132071949Y-121561659D01*
X132014355Y-121674692D01*
X132014354Y-121674696D01*
X131994508Y-121799999D01*
X129212464Y-121799999D01*
X129331747Y-121680716D01*
X129331750Y-121680712D01*
X129441185Y-121516935D01*
X129441188Y-121516928D01*
X129458768Y-121474486D01*
X129498504Y-121427960D01*
X129557999Y-121413675D01*
X129614527Y-121437089D01*
X129620223Y-121442353D01*
X129631635Y-121453765D01*
X129631637Y-121453766D01*
X129631639Y-121453768D01*
X129762861Y-121529529D01*
X129762859Y-121529529D01*
X129762863Y-121529530D01*
X129762865Y-121529531D01*
X129909234Y-121568750D01*
X129909236Y-121568750D01*
X130060764Y-121568750D01*
X130060766Y-121568750D01*
X130207135Y-121529531D01*
X130207137Y-121529529D01*
X130207139Y-121529529D01*
X130338360Y-121453768D01*
X130338360Y-121453767D01*
X130338365Y-121453765D01*
X130445515Y-121346615D01*
X130445518Y-121346610D01*
X130521279Y-121215389D01*
X130521279Y-121215387D01*
X130521281Y-121215385D01*
X130560500Y-121069016D01*
X130560500Y-120917484D01*
X135189500Y-120917484D01*
X135189500Y-121069016D01*
X135217081Y-121171950D01*
X135228720Y-121215389D01*
X135304481Y-121346610D01*
X135304483Y-121346612D01*
X135304485Y-121346615D01*
X135411635Y-121453765D01*
X135411637Y-121453766D01*
X135411639Y-121453768D01*
X135542861Y-121529529D01*
X135542859Y-121529529D01*
X135542863Y-121529530D01*
X135542865Y-121529531D01*
X135689234Y-121568750D01*
X135689236Y-121568750D01*
X135840764Y-121568750D01*
X135840766Y-121568750D01*
X135987135Y-121529531D01*
X135987137Y-121529529D01*
X135987139Y-121529529D01*
X136118360Y-121453768D01*
X136118360Y-121453767D01*
X136118365Y-121453765D01*
X136129762Y-121442367D01*
X136184276Y-121414589D01*
X136244708Y-121424159D01*
X136287974Y-121467422D01*
X136291230Y-121474484D01*
X136308810Y-121516926D01*
X136308814Y-121516935D01*
X136418249Y-121680712D01*
X136418252Y-121680716D01*
X136557533Y-121819997D01*
X136557537Y-121820000D01*
X136721314Y-121929435D01*
X136721326Y-121929441D01*
X136903304Y-122004818D01*
X136903315Y-122004821D01*
X136945000Y-122013112D01*
X136945000Y-121210238D01*
X136954940Y-121227455D01*
X137010795Y-121283310D01*
X137079204Y-121322806D01*
X137155504Y-121343250D01*
X137234496Y-121343250D01*
X137310796Y-121322806D01*
X137379205Y-121283310D01*
X137435060Y-121227455D01*
X137445000Y-121210238D01*
X137445000Y-122013111D01*
X137486684Y-122004821D01*
X137486695Y-122004818D01*
X137668673Y-121929441D01*
X137668685Y-121929435D01*
X137832462Y-121820000D01*
X137832466Y-121819997D01*
X137971747Y-121680716D01*
X137971750Y-121680712D01*
X138081185Y-121516935D01*
X138081191Y-121516923D01*
X138156570Y-121334940D01*
X138156570Y-121334938D01*
X138194999Y-121141743D01*
X138195000Y-121141740D01*
X138195000Y-120743251D01*
X138194999Y-120743250D01*
X137495000Y-120743250D01*
X137495000Y-120243250D01*
X138194999Y-120243250D01*
X138195000Y-120243249D01*
X138195000Y-119844759D01*
X138194999Y-119844756D01*
X138172322Y-119730750D01*
X139004157Y-119730750D01*
X139858012Y-119730750D01*
X139840795Y-119740690D01*
X139784940Y-119796545D01*
X139745444Y-119864954D01*
X139725000Y-119941254D01*
X139725000Y-120020246D01*
X139745444Y-120096546D01*
X139784940Y-120164955D01*
X139840795Y-120220810D01*
X139858012Y-120230750D01*
X139004157Y-120230750D01*
X139015349Y-120287019D01*
X139015351Y-120287026D01*
X139094501Y-120478110D01*
X139094507Y-120478122D01*
X139209405Y-120650079D01*
X139355670Y-120796344D01*
X139527625Y-120911241D01*
X139527639Y-120911248D01*
X139694964Y-120980557D01*
X139741489Y-121020294D01*
X139755773Y-121079789D01*
X139742815Y-121121520D01*
X139710764Y-121177034D01*
X139673194Y-121317247D01*
X139669500Y-121331034D01*
X139669500Y-121490466D01*
X139678835Y-121525303D01*
X139710764Y-121644465D01*
X139742815Y-121699979D01*
X139755536Y-121759827D01*
X139730649Y-121815723D01*
X139694964Y-121840942D01*
X139527639Y-121910251D01*
X139527625Y-121910258D01*
X139355670Y-122025155D01*
X139209405Y-122171420D01*
X139094508Y-122343375D01*
X139094501Y-122343389D01*
X139015351Y-122534473D01*
X139015349Y-122534480D01*
X139004157Y-122590750D01*
X139858012Y-122590750D01*
X139840795Y-122600690D01*
X139784940Y-122656545D01*
X139745444Y-122724954D01*
X139725000Y-122801254D01*
X139725000Y-122880246D01*
X139745444Y-122956546D01*
X139784940Y-123024955D01*
X139840795Y-123080810D01*
X139858012Y-123090750D01*
X139004157Y-123090750D01*
X139015349Y-123147019D01*
X139015351Y-123147026D01*
X139094501Y-123338110D01*
X139094508Y-123338124D01*
X139209405Y-123510079D01*
X139355670Y-123656344D01*
X139527625Y-123771241D01*
X139527639Y-123771248D01*
X139718727Y-123850400D01*
X139921581Y-123890749D01*
X139921586Y-123890750D01*
X140024999Y-123890750D01*
X140025000Y-123890749D01*
X140025000Y-123140750D01*
X140525000Y-123140750D01*
X140525000Y-123890749D01*
X140525001Y-123890750D01*
X140628414Y-123890750D01*
X140628418Y-123890749D01*
X140831272Y-123850400D01*
X141022360Y-123771248D01*
X141022374Y-123771241D01*
X141194329Y-123656344D01*
X141340594Y-123510079D01*
X141455491Y-123338124D01*
X141455498Y-123338110D01*
X141534648Y-123147026D01*
X141534650Y-123147019D01*
X141545843Y-123090750D01*
X140691988Y-123090750D01*
X140709205Y-123080810D01*
X140765060Y-123024955D01*
X140804556Y-122956546D01*
X140825000Y-122880246D01*
X140825000Y-122801254D01*
X140804556Y-122724954D01*
X140765060Y-122656545D01*
X140709205Y-122600690D01*
X140691988Y-122590750D01*
X141545842Y-122590750D01*
X141534650Y-122534480D01*
X141534648Y-122534473D01*
X141455498Y-122343389D01*
X141455491Y-122343375D01*
X141340594Y-122171420D01*
X141194329Y-122025155D01*
X141172769Y-122010749D01*
X143619508Y-122010749D01*
X143619508Y-122010750D01*
X143639354Y-122136053D01*
X143639355Y-122136057D01*
X143682071Y-122219891D01*
X143696950Y-122249092D01*
X143786658Y-122338800D01*
X143899696Y-122396396D01*
X144025000Y-122416242D01*
X144150304Y-122396396D01*
X144263342Y-122338800D01*
X144353050Y-122249092D01*
X144410646Y-122136054D01*
X144430492Y-122010750D01*
X144429552Y-122004818D01*
X144427109Y-121989390D01*
X144410646Y-121885446D01*
X144353050Y-121772408D01*
X144263342Y-121682700D01*
X144247633Y-121674696D01*
X144150307Y-121625105D01*
X144150304Y-121625104D01*
X144025000Y-121605258D01*
X143899696Y-121625104D01*
X143899692Y-121625105D01*
X143786659Y-121682699D01*
X143696949Y-121772409D01*
X143639355Y-121885442D01*
X143639354Y-121885446D01*
X143619508Y-122010749D01*
X141172769Y-122010749D01*
X141022374Y-121910258D01*
X141022360Y-121910251D01*
X140855035Y-121840942D01*
X140808509Y-121801205D01*
X140794226Y-121741710D01*
X140807185Y-121699978D01*
X140807211Y-121699933D01*
X140839236Y-121644464D01*
X140880500Y-121490466D01*
X140880500Y-121400000D01*
X142619508Y-121400000D01*
X142638028Y-121516935D01*
X142639354Y-121525303D01*
X142639355Y-121525307D01*
X142643585Y-121533608D01*
X142696950Y-121638342D01*
X142786658Y-121728050D01*
X142899696Y-121785646D01*
X143025000Y-121805492D01*
X143150304Y-121785646D01*
X143263342Y-121728050D01*
X143353050Y-121638342D01*
X143410646Y-121525304D01*
X143430492Y-121400000D01*
X145119508Y-121400000D01*
X145138028Y-121516935D01*
X145139354Y-121525303D01*
X145139355Y-121525307D01*
X145143585Y-121533608D01*
X145196950Y-121638342D01*
X145286658Y-121728050D01*
X145399696Y-121785646D01*
X145525000Y-121805492D01*
X145650304Y-121785646D01*
X145763342Y-121728050D01*
X145853050Y-121638342D01*
X145910646Y-121525304D01*
X145930492Y-121400000D01*
X145910646Y-121274696D01*
X145853050Y-121161658D01*
X145763342Y-121071950D01*
X145757580Y-121069014D01*
X145650307Y-121014355D01*
X145650304Y-121014354D01*
X145525000Y-120994508D01*
X145399696Y-121014354D01*
X145399692Y-121014355D01*
X145286659Y-121071949D01*
X145196949Y-121161659D01*
X145139355Y-121274692D01*
X145139354Y-121274696D01*
X145119508Y-121400000D01*
X143430492Y-121400000D01*
X143410646Y-121274696D01*
X143353050Y-121161658D01*
X143263342Y-121071950D01*
X143257580Y-121069014D01*
X143150307Y-121014355D01*
X143150304Y-121014354D01*
X143025000Y-120994508D01*
X142899696Y-121014354D01*
X142899692Y-121014355D01*
X142786659Y-121071949D01*
X142696949Y-121161659D01*
X142639355Y-121274692D01*
X142639354Y-121274696D01*
X142619508Y-121400000D01*
X140880500Y-121400000D01*
X140880500Y-121331034D01*
X140839236Y-121177036D01*
X140807183Y-121121518D01*
X140794463Y-121061672D01*
X140819350Y-121005777D01*
X140855035Y-120980557D01*
X141022360Y-120911248D01*
X141022374Y-120911241D01*
X141172770Y-120810749D01*
X144119508Y-120810749D01*
X144119508Y-120810750D01*
X144139354Y-120936053D01*
X144139355Y-120936057D01*
X144194944Y-121045156D01*
X144196950Y-121049092D01*
X144286658Y-121138800D01*
X144399696Y-121196396D01*
X144525000Y-121216242D01*
X144650304Y-121196396D01*
X144763342Y-121138800D01*
X144853050Y-121049092D01*
X144910646Y-120936054D01*
X144930492Y-120810750D01*
X144910646Y-120685446D01*
X144853050Y-120572408D01*
X144763342Y-120482700D01*
X144759406Y-120480694D01*
X144650307Y-120425105D01*
X144650304Y-120425104D01*
X144525000Y-120405258D01*
X144399696Y-120425104D01*
X144399692Y-120425105D01*
X144286659Y-120482699D01*
X144196949Y-120572409D01*
X144139355Y-120685442D01*
X144139354Y-120685446D01*
X144119508Y-120810749D01*
X141172770Y-120810749D01*
X141194329Y-120796344D01*
X141340594Y-120650079D01*
X141455493Y-120478122D01*
X141455498Y-120478110D01*
X141534648Y-120287026D01*
X141534650Y-120287019D01*
X141545843Y-120230750D01*
X140691988Y-120230750D01*
X140709205Y-120220810D01*
X140765060Y-120164955D01*
X140804556Y-120096546D01*
X140825000Y-120020246D01*
X140825000Y-119941254D01*
X140804556Y-119864954D01*
X140765060Y-119796545D01*
X140709205Y-119740690D01*
X140691988Y-119730750D01*
X141545842Y-119730750D01*
X147004157Y-119730750D01*
X147858012Y-119730750D01*
X147840795Y-119740690D01*
X147784940Y-119796545D01*
X147745444Y-119864954D01*
X147725000Y-119941254D01*
X147725000Y-120020246D01*
X147745444Y-120096546D01*
X147784940Y-120164955D01*
X147840795Y-120220810D01*
X147858012Y-120230750D01*
X147004157Y-120230750D01*
X147015349Y-120287019D01*
X147015351Y-120287026D01*
X147094501Y-120478110D01*
X147094507Y-120478122D01*
X147209405Y-120650079D01*
X147355667Y-120796341D01*
X147377699Y-120811062D01*
X147415579Y-120859111D01*
X147417981Y-120920250D01*
X147405019Y-120948371D01*
X147366829Y-121005538D01*
X147366824Y-121005548D01*
X147302349Y-121161251D01*
X147302346Y-121161260D01*
X147269489Y-121326553D01*
X147269488Y-121326559D01*
X147269500Y-121410819D01*
X147269509Y-121482962D01*
X147269540Y-121483423D01*
X147269538Y-121494933D01*
X147269539Y-121494942D01*
X147302394Y-121660224D01*
X147302397Y-121660234D01*
X147366869Y-121815930D01*
X147366875Y-121815940D01*
X147405060Y-121873099D01*
X147421663Y-121931988D01*
X147400481Y-121989390D01*
X147377743Y-122010407D01*
X147355663Y-122025160D01*
X147355662Y-122025161D01*
X147209408Y-122171416D01*
X147209406Y-122171418D01*
X147094508Y-122343375D01*
X147094501Y-122343389D01*
X147015351Y-122534473D01*
X147015349Y-122534480D01*
X147004157Y-122590750D01*
X147858012Y-122590750D01*
X147840795Y-122600690D01*
X147784940Y-122656545D01*
X147745444Y-122724954D01*
X147725000Y-122801254D01*
X147725000Y-122880246D01*
X147745444Y-122956546D01*
X147784940Y-123024955D01*
X147840795Y-123080810D01*
X147858012Y-123090750D01*
X147004157Y-123090750D01*
X147015349Y-123147019D01*
X147015351Y-123147026D01*
X147094501Y-123338110D01*
X147094508Y-123338124D01*
X147209405Y-123510079D01*
X147355670Y-123656344D01*
X147527625Y-123771241D01*
X147527639Y-123771248D01*
X147718727Y-123850400D01*
X147921581Y-123890749D01*
X147921586Y-123890750D01*
X148024999Y-123890750D01*
X148025000Y-123890749D01*
X148025000Y-123140750D01*
X148525000Y-123140750D01*
X148525000Y-123890749D01*
X148525001Y-123890750D01*
X148628414Y-123890750D01*
X148628418Y-123890749D01*
X148831272Y-123850400D01*
X149022360Y-123771248D01*
X149022374Y-123771241D01*
X149194329Y-123656344D01*
X149340594Y-123510079D01*
X149393430Y-123431004D01*
X154399500Y-123431004D01*
X154399500Y-123568995D01*
X154426420Y-123704327D01*
X154426420Y-123704329D01*
X154479222Y-123831806D01*
X154479228Y-123831817D01*
X154555885Y-123946541D01*
X154653458Y-124044114D01*
X154768182Y-124120771D01*
X154768193Y-124120777D01*
X154789958Y-124129792D01*
X154895672Y-124173580D01*
X155031007Y-124200500D01*
X155031008Y-124200500D01*
X155168992Y-124200500D01*
X155168993Y-124200500D01*
X155304328Y-124173580D01*
X155431811Y-124120775D01*
X155546542Y-124044114D01*
X155644114Y-123946542D01*
X155720775Y-123831811D01*
X155773580Y-123704328D01*
X155800500Y-123568993D01*
X155800500Y-123431007D01*
X155800499Y-123431004D01*
X161199500Y-123431004D01*
X161199500Y-123568995D01*
X161226420Y-123704327D01*
X161226420Y-123704329D01*
X161279222Y-123831806D01*
X161279228Y-123831817D01*
X161355885Y-123946541D01*
X161453458Y-124044114D01*
X161568182Y-124120771D01*
X161568193Y-124120777D01*
X161589958Y-124129792D01*
X161695672Y-124173580D01*
X161831007Y-124200500D01*
X161831008Y-124200500D01*
X161968992Y-124200500D01*
X161968993Y-124200500D01*
X162104328Y-124173580D01*
X162231811Y-124120775D01*
X162346542Y-124044114D01*
X162444114Y-123946542D01*
X162520775Y-123831811D01*
X162573580Y-123704328D01*
X162600500Y-123568993D01*
X162600500Y-123499999D01*
X165844508Y-123499999D01*
X165844508Y-123500000D01*
X165864354Y-123625303D01*
X165864355Y-123625307D01*
X165904515Y-123704125D01*
X165921950Y-123738342D01*
X166011658Y-123828050D01*
X166124696Y-123885646D01*
X166250000Y-123905492D01*
X166375304Y-123885646D01*
X166488342Y-123828050D01*
X166578050Y-123738342D01*
X166635646Y-123625304D01*
X166655492Y-123500000D01*
X166635646Y-123374696D01*
X166578050Y-123261658D01*
X166488342Y-123171950D01*
X166480947Y-123168182D01*
X166375307Y-123114355D01*
X166375304Y-123114354D01*
X166250000Y-123094508D01*
X166124696Y-123114354D01*
X166124692Y-123114355D01*
X166011659Y-123171949D01*
X165921949Y-123261659D01*
X165864355Y-123374692D01*
X165864354Y-123374696D01*
X165844508Y-123499999D01*
X162600500Y-123499999D01*
X162600500Y-123431007D01*
X162573580Y-123295672D01*
X162522333Y-123171950D01*
X162520777Y-123168193D01*
X162520771Y-123168182D01*
X162444114Y-123053458D01*
X162346541Y-122955885D01*
X162253489Y-122893709D01*
X187399500Y-122893709D01*
X187399500Y-123106290D01*
X187432752Y-123316238D01*
X187498443Y-123518412D01*
X187594948Y-123707815D01*
X187594950Y-123707819D01*
X187719891Y-123879786D01*
X187719893Y-123879788D01*
X187719896Y-123879792D01*
X187870208Y-124030104D01*
X187870211Y-124030106D01*
X187870213Y-124030108D01*
X188042180Y-124155049D01*
X188042184Y-124155051D01*
X188231588Y-124251557D01*
X188433757Y-124317246D01*
X188433758Y-124317246D01*
X188433761Y-124317247D01*
X188643710Y-124350500D01*
X188643713Y-124350500D01*
X188856290Y-124350500D01*
X189066238Y-124317247D01*
X189066239Y-124317246D01*
X189066243Y-124317246D01*
X189268412Y-124251557D01*
X189457816Y-124155051D01*
X189629792Y-124030104D01*
X189780104Y-123879792D01*
X189905051Y-123707816D01*
X190001557Y-123518412D01*
X190067246Y-123316243D01*
X190070504Y-123295672D01*
X190100500Y-123106290D01*
X190100500Y-122893709D01*
X190067247Y-122683761D01*
X190058404Y-122656545D01*
X190001557Y-122481588D01*
X189905051Y-122292184D01*
X189905049Y-122292180D01*
X189780108Y-122120213D01*
X189780106Y-122120211D01*
X189780104Y-122120208D01*
X189629792Y-121969896D01*
X189629788Y-121969893D01*
X189629786Y-121969891D01*
X189457819Y-121844950D01*
X189457815Y-121844948D01*
X189268412Y-121748443D01*
X189066238Y-121682752D01*
X188856290Y-121649500D01*
X188856287Y-121649500D01*
X188643713Y-121649500D01*
X188643710Y-121649500D01*
X188433761Y-121682752D01*
X188231587Y-121748443D01*
X188042184Y-121844948D01*
X188042180Y-121844950D01*
X187870213Y-121969891D01*
X187719891Y-122120213D01*
X187594950Y-122292180D01*
X187594948Y-122292184D01*
X187498443Y-122481587D01*
X187432752Y-122683761D01*
X187399500Y-122893709D01*
X162253489Y-122893709D01*
X162231817Y-122879228D01*
X162231806Y-122879222D01*
X162104328Y-122826420D01*
X161968995Y-122799500D01*
X161968993Y-122799500D01*
X161831007Y-122799500D01*
X161831004Y-122799500D01*
X161695672Y-122826420D01*
X161695670Y-122826420D01*
X161568193Y-122879222D01*
X161568182Y-122879228D01*
X161453458Y-122955885D01*
X161355885Y-123053458D01*
X161279228Y-123168182D01*
X161279222Y-123168193D01*
X161226420Y-123295670D01*
X161226420Y-123295672D01*
X161199500Y-123431004D01*
X155800499Y-123431004D01*
X155773580Y-123295672D01*
X155722333Y-123171950D01*
X155720777Y-123168193D01*
X155720771Y-123168182D01*
X155644114Y-123053458D01*
X155546541Y-122955885D01*
X155431817Y-122879228D01*
X155431806Y-122879222D01*
X155304328Y-122826420D01*
X155168995Y-122799500D01*
X155168993Y-122799500D01*
X155031007Y-122799500D01*
X155031004Y-122799500D01*
X154895672Y-122826420D01*
X154895670Y-122826420D01*
X154768193Y-122879222D01*
X154768182Y-122879228D01*
X154653458Y-122955885D01*
X154555885Y-123053458D01*
X154479228Y-123168182D01*
X154479222Y-123168193D01*
X154426420Y-123295670D01*
X154426420Y-123295672D01*
X154399500Y-123431004D01*
X149393430Y-123431004D01*
X149455491Y-123338124D01*
X149455498Y-123338110D01*
X149534648Y-123147026D01*
X149534650Y-123147019D01*
X149545843Y-123090750D01*
X148691988Y-123090750D01*
X148709205Y-123080810D01*
X148765060Y-123024955D01*
X148804556Y-122956546D01*
X148825000Y-122880246D01*
X148825000Y-122801254D01*
X148804556Y-122724954D01*
X148765060Y-122656545D01*
X148709205Y-122600690D01*
X148691988Y-122590750D01*
X149545842Y-122590750D01*
X149534650Y-122534480D01*
X149534648Y-122534473D01*
X149455498Y-122343389D01*
X149455491Y-122343375D01*
X149340593Y-122171418D01*
X149340591Y-122171416D01*
X149194344Y-122025168D01*
X149194335Y-122025161D01*
X149172298Y-122010436D01*
X149134419Y-121962386D01*
X149132017Y-121901248D01*
X149144977Y-121873132D01*
X149183173Y-121815958D01*
X149247652Y-121660246D01*
X149279506Y-121500000D01*
X165344508Y-121500000D01*
X165364322Y-121625105D01*
X165364354Y-121625303D01*
X165364355Y-121625307D01*
X165402402Y-121699978D01*
X165421950Y-121738342D01*
X165511658Y-121828050D01*
X165624696Y-121885646D01*
X165750000Y-121905492D01*
X165875304Y-121885646D01*
X165988342Y-121828050D01*
X166078050Y-121738342D01*
X166135646Y-121625304D01*
X166155492Y-121500000D01*
X166154689Y-121494933D01*
X166150332Y-121467422D01*
X166135646Y-121374696D01*
X166078050Y-121261658D01*
X165988342Y-121171950D01*
X165967391Y-121161275D01*
X165875307Y-121114355D01*
X165875304Y-121114354D01*
X165750000Y-121094508D01*
X165624696Y-121114354D01*
X165624692Y-121114355D01*
X165511659Y-121171949D01*
X165421949Y-121261659D01*
X165364355Y-121374692D01*
X165364354Y-121374696D01*
X165345311Y-121494933D01*
X165344508Y-121500000D01*
X149279506Y-121500000D01*
X149280511Y-121494946D01*
X149280500Y-121410680D01*
X149280491Y-121344787D01*
X149280490Y-121344786D01*
X149280490Y-121338392D01*
X149280459Y-121337928D01*
X149280461Y-121326557D01*
X149280460Y-121326555D01*
X149270150Y-121274692D01*
X149247604Y-121161269D01*
X149183129Y-121005566D01*
X149144938Y-120948399D01*
X149128336Y-120889511D01*
X149149518Y-120832109D01*
X149172260Y-120811089D01*
X149194332Y-120796341D01*
X149340594Y-120650079D01*
X149455493Y-120478122D01*
X149455498Y-120478110D01*
X149534648Y-120287026D01*
X149534650Y-120287019D01*
X149545843Y-120230750D01*
X148691988Y-120230750D01*
X148709205Y-120220810D01*
X148765060Y-120164955D01*
X148804556Y-120096546D01*
X148825000Y-120020246D01*
X148825000Y-119941254D01*
X148804556Y-119864954D01*
X148765060Y-119796545D01*
X148709205Y-119740690D01*
X148691988Y-119730750D01*
X149545842Y-119730750D01*
X149534650Y-119674480D01*
X149534648Y-119674473D01*
X149455498Y-119483389D01*
X149455491Y-119483375D01*
X149340594Y-119311420D01*
X149194329Y-119165155D01*
X149022374Y-119050258D01*
X149022360Y-119050251D01*
X148831272Y-118971099D01*
X148628418Y-118930750D01*
X148525001Y-118930750D01*
X148525000Y-118930751D01*
X148525000Y-119680750D01*
X148025000Y-119680750D01*
X148025000Y-118930751D01*
X148024999Y-118930750D01*
X147921581Y-118930750D01*
X147718727Y-118971099D01*
X147527639Y-119050251D01*
X147527625Y-119050258D01*
X147355670Y-119165155D01*
X147209405Y-119311420D01*
X147094508Y-119483375D01*
X147094501Y-119483389D01*
X147015351Y-119674473D01*
X147015349Y-119674480D01*
X147004157Y-119730750D01*
X141545842Y-119730750D01*
X141534650Y-119674480D01*
X141534648Y-119674473D01*
X141455498Y-119483389D01*
X141455491Y-119483375D01*
X141340594Y-119311420D01*
X141194329Y-119165155D01*
X141022374Y-119050258D01*
X141022360Y-119050251D01*
X140831272Y-118971099D01*
X140628418Y-118930750D01*
X140525001Y-118930750D01*
X140525000Y-118930751D01*
X140525000Y-119680750D01*
X140025000Y-119680750D01*
X140025000Y-118930751D01*
X140024999Y-118930750D01*
X139921581Y-118930750D01*
X139718727Y-118971099D01*
X139527639Y-119050251D01*
X139527625Y-119050258D01*
X139355670Y-119165155D01*
X139209405Y-119311420D01*
X139094508Y-119483375D01*
X139094501Y-119483389D01*
X139015351Y-119674473D01*
X139015349Y-119674480D01*
X139004157Y-119730750D01*
X138172322Y-119730750D01*
X138156570Y-119651561D01*
X138156570Y-119651559D01*
X138081191Y-119469576D01*
X138081185Y-119469564D01*
X137971750Y-119305787D01*
X137971747Y-119305783D01*
X137832466Y-119166502D01*
X137832462Y-119166499D01*
X137668685Y-119057064D01*
X137668673Y-119057058D01*
X137486691Y-118981679D01*
X137445000Y-118973386D01*
X137445000Y-119776261D01*
X137435060Y-119759045D01*
X137379205Y-119703190D01*
X137310796Y-119663694D01*
X137234496Y-119643250D01*
X137155504Y-119643250D01*
X137079204Y-119663694D01*
X137010795Y-119703190D01*
X136954940Y-119759045D01*
X136945000Y-119776261D01*
X136945000Y-118973386D01*
X136903308Y-118981679D01*
X136721326Y-119057058D01*
X136721314Y-119057064D01*
X136557537Y-119166499D01*
X136557533Y-119166502D01*
X136418252Y-119305783D01*
X136418249Y-119305787D01*
X136308814Y-119469564D01*
X136308808Y-119469576D01*
X136233429Y-119651559D01*
X136233429Y-119651561D01*
X136195000Y-119844756D01*
X136195000Y-120405506D01*
X136176093Y-120463697D01*
X136126593Y-120499661D01*
X136065407Y-120499661D01*
X136046501Y-120491243D01*
X135987138Y-120456970D01*
X135987135Y-120456969D01*
X135840766Y-120417750D01*
X135689234Y-120417750D01*
X135599652Y-120441753D01*
X135542860Y-120456970D01*
X135411639Y-120532731D01*
X135304481Y-120639889D01*
X135228720Y-120771110D01*
X135218099Y-120810749D01*
X135189500Y-120917484D01*
X130560500Y-120917484D01*
X130521281Y-120771115D01*
X130521279Y-120771112D01*
X130521279Y-120771110D01*
X130445518Y-120639889D01*
X130445516Y-120639887D01*
X130445515Y-120639885D01*
X130338365Y-120532735D01*
X130338362Y-120532733D01*
X130338360Y-120532731D01*
X130207138Y-120456970D01*
X130207140Y-120456970D01*
X130150347Y-120441753D01*
X130060766Y-120417750D01*
X129909234Y-120417750D01*
X129780152Y-120452336D01*
X129762861Y-120456970D01*
X129703499Y-120491243D01*
X129643651Y-120503964D01*
X129587756Y-120479077D01*
X129557163Y-120426089D01*
X129555000Y-120405506D01*
X129555000Y-119844759D01*
X129554999Y-119844756D01*
X129516570Y-119651561D01*
X129516570Y-119651559D01*
X129441191Y-119469576D01*
X129441185Y-119469564D01*
X129331750Y-119305787D01*
X129331747Y-119305783D01*
X129192466Y-119166502D01*
X129192462Y-119166499D01*
X129028685Y-119057064D01*
X129028673Y-119057058D01*
X128846691Y-118981679D01*
X128805000Y-118973386D01*
X128805000Y-119776261D01*
X128795060Y-119759045D01*
X128739205Y-119703190D01*
X128670796Y-119663694D01*
X128594496Y-119643250D01*
X128515504Y-119643250D01*
X128439204Y-119663694D01*
X128370795Y-119703190D01*
X128314940Y-119759045D01*
X128305000Y-119776261D01*
X128305000Y-118973386D01*
X128263308Y-118981679D01*
X128081326Y-119057058D01*
X128081314Y-119057064D01*
X127917537Y-119166499D01*
X127917533Y-119166502D01*
X127778252Y-119305783D01*
X127778249Y-119305787D01*
X127668814Y-119469564D01*
X127668808Y-119469576D01*
X127593429Y-119651559D01*
X127593429Y-119651561D01*
X127555000Y-119844756D01*
X121250500Y-119844756D01*
X121250500Y-117939996D01*
X122144417Y-117939996D01*
X122144417Y-117940003D01*
X122164698Y-118145929D01*
X122164699Y-118145934D01*
X122224768Y-118343954D01*
X122322316Y-118526452D01*
X122403441Y-118625303D01*
X122453590Y-118686410D01*
X122453595Y-118686414D01*
X122613547Y-118817683D01*
X122613548Y-118817683D01*
X122613550Y-118817685D01*
X122796046Y-118915232D01*
X122933997Y-118957078D01*
X122994065Y-118975300D01*
X122994070Y-118975301D01*
X123199997Y-118995583D01*
X123200000Y-118995583D01*
X123200003Y-118995583D01*
X123405929Y-118975301D01*
X123405934Y-118975300D01*
X123419783Y-118971099D01*
X123603954Y-118915232D01*
X123786450Y-118817685D01*
X123946410Y-118686410D01*
X124077685Y-118526450D01*
X124091823Y-118499999D01*
X159594508Y-118499999D01*
X159594508Y-118500000D01*
X159614354Y-118625303D01*
X159614355Y-118625307D01*
X159645486Y-118686404D01*
X159671950Y-118738342D01*
X159761658Y-118828050D01*
X159874696Y-118885646D01*
X160000000Y-118905492D01*
X160125304Y-118885646D01*
X160238342Y-118828050D01*
X160328050Y-118738342D01*
X160385646Y-118625304D01*
X160405492Y-118500000D01*
X160405492Y-118499999D01*
X162094508Y-118499999D01*
X162094508Y-118500000D01*
X162114354Y-118625303D01*
X162114355Y-118625307D01*
X162145486Y-118686404D01*
X162171950Y-118738342D01*
X162261658Y-118828050D01*
X162374696Y-118885646D01*
X162500000Y-118905492D01*
X162625304Y-118885646D01*
X162738342Y-118828050D01*
X162828050Y-118738342D01*
X162885646Y-118625304D01*
X162905492Y-118500000D01*
X162885646Y-118374696D01*
X162828050Y-118261658D01*
X162738342Y-118171950D01*
X162687283Y-118145934D01*
X162625307Y-118114355D01*
X162625304Y-118114354D01*
X162500000Y-118094508D01*
X162374696Y-118114354D01*
X162374692Y-118114355D01*
X162261659Y-118171949D01*
X162171949Y-118261659D01*
X162114355Y-118374692D01*
X162114354Y-118374696D01*
X162094508Y-118499999D01*
X160405492Y-118499999D01*
X160385646Y-118374696D01*
X160328050Y-118261658D01*
X160238342Y-118171950D01*
X160187283Y-118145934D01*
X160125307Y-118114355D01*
X160125304Y-118114354D01*
X160000000Y-118094508D01*
X159874696Y-118114354D01*
X159874692Y-118114355D01*
X159761659Y-118171949D01*
X159671949Y-118261659D01*
X159614355Y-118374692D01*
X159614354Y-118374696D01*
X159594508Y-118499999D01*
X124091823Y-118499999D01*
X124175232Y-118343954D01*
X124235300Y-118145934D01*
X124235301Y-118145929D01*
X124255583Y-117940003D01*
X124255583Y-117939996D01*
X124235301Y-117734070D01*
X124235300Y-117734065D01*
X124205445Y-117635646D01*
X124175232Y-117536046D01*
X124077685Y-117353550D01*
X123992703Y-117249999D01*
X153094508Y-117249999D01*
X153094508Y-117250000D01*
X153114354Y-117375303D01*
X153114355Y-117375307D01*
X153169944Y-117484406D01*
X153171950Y-117488342D01*
X153261658Y-117578050D01*
X153374696Y-117635646D01*
X153500000Y-117655492D01*
X153625304Y-117635646D01*
X153705054Y-117595010D01*
X153765486Y-117585439D01*
X153794945Y-117595010D01*
X153874696Y-117635646D01*
X154000000Y-117655492D01*
X154125304Y-117635646D01*
X154205054Y-117595010D01*
X154265486Y-117585439D01*
X154294945Y-117595010D01*
X154374696Y-117635646D01*
X154500000Y-117655492D01*
X154625304Y-117635646D01*
X154738342Y-117578050D01*
X154828050Y-117488342D01*
X154885646Y-117375304D01*
X154905492Y-117250000D01*
X154885646Y-117124696D01*
X154828050Y-117011658D01*
X154738342Y-116921950D01*
X154723838Y-116914560D01*
X154625307Y-116864355D01*
X154625304Y-116864354D01*
X154500000Y-116844508D01*
X154374696Y-116864354D01*
X154374694Y-116864354D01*
X154294945Y-116904989D01*
X154234513Y-116914560D01*
X154205055Y-116904989D01*
X154125304Y-116864354D01*
X154000000Y-116844508D01*
X153874696Y-116864354D01*
X153874694Y-116864354D01*
X153794945Y-116904989D01*
X153734513Y-116914560D01*
X153705055Y-116904989D01*
X153625304Y-116864354D01*
X153500000Y-116844508D01*
X153374696Y-116864354D01*
X153374692Y-116864355D01*
X153261659Y-116921949D01*
X153171949Y-117011659D01*
X153114355Y-117124692D01*
X153114354Y-117124696D01*
X153094508Y-117249999D01*
X123992703Y-117249999D01*
X123946410Y-117193590D01*
X123862457Y-117124692D01*
X123786452Y-117062316D01*
X123603954Y-116964768D01*
X123405934Y-116904699D01*
X123405929Y-116904698D01*
X123200003Y-116884417D01*
X123199997Y-116884417D01*
X122994070Y-116904698D01*
X122994065Y-116904699D01*
X122796045Y-116964768D01*
X122613547Y-117062316D01*
X122453595Y-117193585D01*
X122453585Y-117193595D01*
X122322316Y-117353547D01*
X122224768Y-117536045D01*
X122164699Y-117734065D01*
X122164698Y-117734070D01*
X122144417Y-117939996D01*
X121250500Y-117939996D01*
X121250500Y-114530253D01*
X122149500Y-114530253D01*
X122149500Y-116269746D01*
X122149501Y-116269758D01*
X122161132Y-116328227D01*
X122161133Y-116328231D01*
X122205448Y-116394552D01*
X122271769Y-116438867D01*
X122316231Y-116447711D01*
X122330241Y-116450498D01*
X122330246Y-116450498D01*
X122330252Y-116450500D01*
X122330253Y-116450500D01*
X124069747Y-116450500D01*
X124069748Y-116450500D01*
X124128231Y-116438867D01*
X124194552Y-116394552D01*
X124238867Y-116328231D01*
X124250500Y-116269748D01*
X124250500Y-115200000D01*
X138594508Y-115200000D01*
X138612942Y-115316392D01*
X138614354Y-115325303D01*
X138614355Y-115325307D01*
X138615753Y-115328050D01*
X138671950Y-115438342D01*
X138761658Y-115528050D01*
X138874696Y-115585646D01*
X139000000Y-115605492D01*
X139125304Y-115585646D01*
X139238342Y-115528050D01*
X139328050Y-115438342D01*
X139347586Y-115400000D01*
X140194508Y-115400000D01*
X140210772Y-115502691D01*
X140214354Y-115525303D01*
X140214355Y-115525307D01*
X140215753Y-115528050D01*
X140271950Y-115638342D01*
X140361658Y-115728050D01*
X140474696Y-115785646D01*
X140600000Y-115805492D01*
X140725304Y-115785646D01*
X140838342Y-115728050D01*
X140928050Y-115638342D01*
X140985646Y-115525304D01*
X141005492Y-115400000D01*
X140985646Y-115274696D01*
X140928050Y-115161658D01*
X140838342Y-115071950D01*
X140745529Y-115024659D01*
X140725307Y-115014355D01*
X140725304Y-115014354D01*
X140600000Y-114994508D01*
X140474696Y-115014354D01*
X140474692Y-115014355D01*
X140361659Y-115071949D01*
X140271949Y-115161659D01*
X140214355Y-115274692D01*
X140214354Y-115274696D01*
X140196782Y-115385645D01*
X140194508Y-115400000D01*
X139347586Y-115400000D01*
X139385646Y-115325304D01*
X139405492Y-115200000D01*
X139385646Y-115074696D01*
X139328050Y-114961658D01*
X139238342Y-114871950D01*
X139202238Y-114853554D01*
X139125307Y-114814355D01*
X139125304Y-114814354D01*
X139000000Y-114794508D01*
X138874696Y-114814354D01*
X138874692Y-114814355D01*
X138761659Y-114871949D01*
X138671949Y-114961659D01*
X138614355Y-115074692D01*
X138614354Y-115074696D01*
X138600581Y-115161659D01*
X138594508Y-115200000D01*
X124250500Y-115200000D01*
X124250500Y-114530252D01*
X124238867Y-114471769D01*
X124194552Y-114405448D01*
X124194548Y-114405445D01*
X124128233Y-114361134D01*
X124128231Y-114361133D01*
X124128228Y-114361132D01*
X124128227Y-114361132D01*
X124069758Y-114349501D01*
X124069748Y-114349500D01*
X122330252Y-114349500D01*
X122330251Y-114349500D01*
X122330241Y-114349501D01*
X122271772Y-114361132D01*
X122271766Y-114361134D01*
X122205451Y-114405445D01*
X122205445Y-114405451D01*
X122161134Y-114471766D01*
X122161132Y-114471772D01*
X122149501Y-114530241D01*
X122149500Y-114530253D01*
X121250500Y-114530253D01*
X121250500Y-113999999D01*
X152594508Y-113999999D01*
X152594508Y-114000000D01*
X152614354Y-114125303D01*
X152614354Y-114125305D01*
X152654989Y-114205055D01*
X152664560Y-114265487D01*
X152654989Y-114294945D01*
X152614354Y-114374694D01*
X152614354Y-114374696D01*
X152594508Y-114500000D01*
X152607767Y-114583718D01*
X152614354Y-114625303D01*
X152614354Y-114625305D01*
X152654989Y-114705055D01*
X152664560Y-114765487D01*
X152654989Y-114794945D01*
X152614354Y-114874694D01*
X152614354Y-114874696D01*
X152600581Y-114961659D01*
X152594508Y-115000000D01*
X152605903Y-115071949D01*
X152614354Y-115125303D01*
X152614355Y-115125307D01*
X152632877Y-115161658D01*
X152671950Y-115238342D01*
X152761658Y-115328050D01*
X152874696Y-115385646D01*
X153000000Y-115405492D01*
X153125304Y-115385646D01*
X153205054Y-115345010D01*
X153265486Y-115335439D01*
X153294945Y-115345010D01*
X153374696Y-115385646D01*
X153500000Y-115405492D01*
X153625304Y-115385646D01*
X153705054Y-115345010D01*
X153765486Y-115335439D01*
X153794945Y-115345010D01*
X153874696Y-115385646D01*
X154000000Y-115405492D01*
X154125304Y-115385646D01*
X154205054Y-115345010D01*
X154265486Y-115335439D01*
X154294945Y-115345010D01*
X154374696Y-115385646D01*
X154500000Y-115405492D01*
X154625304Y-115385646D01*
X154738342Y-115328050D01*
X154828050Y-115238342D01*
X154885646Y-115125304D01*
X154905492Y-115000000D01*
X154885646Y-114874696D01*
X154845010Y-114794945D01*
X154835439Y-114734514D01*
X154845011Y-114705054D01*
X154885644Y-114625307D01*
X154885646Y-114625304D01*
X154905492Y-114500000D01*
X154885646Y-114374696D01*
X154845010Y-114294945D01*
X154835439Y-114234514D01*
X154845011Y-114205054D01*
X154885646Y-114125304D01*
X154905492Y-114000000D01*
X154885646Y-113874696D01*
X154828050Y-113761658D01*
X154738342Y-113671950D01*
X154706042Y-113655492D01*
X154625307Y-113614355D01*
X154625304Y-113614354D01*
X154500000Y-113594508D01*
X154374696Y-113614354D01*
X154374694Y-113614354D01*
X154294945Y-113654989D01*
X154234513Y-113664560D01*
X154205055Y-113654989D01*
X154125304Y-113614354D01*
X154000000Y-113594508D01*
X153874696Y-113614354D01*
X153874694Y-113614354D01*
X153794945Y-113654989D01*
X153734513Y-113664560D01*
X153705055Y-113654989D01*
X153625304Y-113614354D01*
X153500000Y-113594508D01*
X153374696Y-113614354D01*
X153374694Y-113614354D01*
X153294945Y-113654989D01*
X153234513Y-113664560D01*
X153205055Y-113654989D01*
X153125304Y-113614354D01*
X153000000Y-113594508D01*
X152874696Y-113614354D01*
X152874692Y-113614355D01*
X152761659Y-113671949D01*
X152671949Y-113761659D01*
X152614355Y-113874692D01*
X152614354Y-113874696D01*
X152594508Y-113999999D01*
X121250500Y-113999999D01*
X121250500Y-113249999D01*
X172594508Y-113249999D01*
X172594508Y-113250000D01*
X172614354Y-113375303D01*
X172614355Y-113375307D01*
X172644077Y-113433638D01*
X172671950Y-113488342D01*
X172761658Y-113578050D01*
X172874696Y-113635646D01*
X173000000Y-113655492D01*
X173125304Y-113635646D01*
X173238342Y-113578050D01*
X173284758Y-113531633D01*
X173339272Y-113503857D01*
X173399704Y-113513428D01*
X173442969Y-113556692D01*
X173452541Y-113617124D01*
X173440497Y-113651138D01*
X173396297Y-113727694D01*
X173396293Y-113727703D01*
X173299102Y-113975340D01*
X173239905Y-114234703D01*
X173239903Y-114234713D01*
X173220023Y-114499997D01*
X173220023Y-114500002D01*
X173239903Y-114765286D01*
X173239905Y-114765296D01*
X173299102Y-115024659D01*
X173396293Y-115272296D01*
X173396302Y-115272315D01*
X173529310Y-115502691D01*
X173529320Y-115502705D01*
X173580083Y-115566360D01*
X174245883Y-114900559D01*
X174246740Y-114902626D01*
X174339762Y-115041844D01*
X174458156Y-115160238D01*
X174597374Y-115253260D01*
X174599438Y-115254114D01*
X173932842Y-115920711D01*
X174110016Y-116041507D01*
X174349701Y-116156933D01*
X174603913Y-116235347D01*
X174603923Y-116235349D01*
X174866978Y-116274999D01*
X174866987Y-116275000D01*
X175133013Y-116275000D01*
X175133021Y-116274999D01*
X175396076Y-116235349D01*
X175396086Y-116235347D01*
X175650301Y-116156933D01*
X175889981Y-116041509D01*
X176067157Y-115920712D01*
X175400560Y-115254115D01*
X175402626Y-115253260D01*
X175541844Y-115160238D01*
X175660238Y-115041844D01*
X175753260Y-114902626D01*
X175754115Y-114900560D01*
X176419915Y-115566360D01*
X176470685Y-115502698D01*
X176603697Y-115272315D01*
X176603706Y-115272296D01*
X176700897Y-115024659D01*
X176760094Y-114765296D01*
X176760096Y-114765286D01*
X176779977Y-114500002D01*
X176779977Y-114499997D01*
X176760096Y-114234713D01*
X176760094Y-114234703D01*
X176700897Y-113975340D01*
X176603706Y-113727703D01*
X176603697Y-113727684D01*
X176470689Y-113497308D01*
X176470679Y-113497294D01*
X176419915Y-113433638D01*
X175754114Y-114099438D01*
X175753260Y-114097374D01*
X175660238Y-113958156D01*
X175541844Y-113839762D01*
X175402626Y-113746740D01*
X175400559Y-113745883D01*
X175941190Y-113205253D01*
X178524500Y-113205253D01*
X178524500Y-115794746D01*
X178524501Y-115794758D01*
X178536132Y-115853227D01*
X178536133Y-115853231D01*
X178580448Y-115919552D01*
X178646769Y-115963867D01*
X178691231Y-115972711D01*
X178705241Y-115975498D01*
X178705246Y-115975498D01*
X178705252Y-115975500D01*
X178705253Y-115975500D01*
X181294747Y-115975500D01*
X181294748Y-115975500D01*
X181353231Y-115963867D01*
X181419552Y-115919552D01*
X181463867Y-115853231D01*
X181475500Y-115794748D01*
X181475500Y-113205252D01*
X181463867Y-113146769D01*
X181419552Y-113080448D01*
X181419548Y-113080445D01*
X181353233Y-113036134D01*
X181353231Y-113036133D01*
X181353228Y-113036132D01*
X181353227Y-113036132D01*
X181294758Y-113024501D01*
X181294748Y-113024500D01*
X178705252Y-113024500D01*
X178705251Y-113024500D01*
X178705241Y-113024501D01*
X178646772Y-113036132D01*
X178646766Y-113036134D01*
X178580451Y-113080445D01*
X178580445Y-113080451D01*
X178536134Y-113146766D01*
X178536132Y-113146772D01*
X178524501Y-113205241D01*
X178524500Y-113205253D01*
X175941190Y-113205253D01*
X176067156Y-113079287D01*
X175889981Y-112958491D01*
X175650301Y-112843066D01*
X175396086Y-112764652D01*
X175396076Y-112764650D01*
X175133021Y-112725000D01*
X174866978Y-112725000D01*
X174603923Y-112764650D01*
X174603913Y-112764652D01*
X174349701Y-112843066D01*
X174110013Y-112958494D01*
X173932841Y-113079286D01*
X174599439Y-113745884D01*
X174597374Y-113746740D01*
X174458156Y-113839762D01*
X174339762Y-113958156D01*
X174246740Y-114097374D01*
X174245884Y-114099439D01*
X173580083Y-113433638D01*
X173559786Y-113459090D01*
X173508723Y-113492796D01*
X173447599Y-113490051D01*
X173399762Y-113451903D01*
X173383485Y-113392922D01*
X173384604Y-113381876D01*
X173385644Y-113375307D01*
X173385646Y-113375304D01*
X173405492Y-113250000D01*
X173385646Y-113124696D01*
X173328050Y-113011658D01*
X173238342Y-112921950D01*
X173234406Y-112919944D01*
X173125307Y-112864355D01*
X173125304Y-112864354D01*
X173000000Y-112844508D01*
X172874696Y-112864354D01*
X172874692Y-112864355D01*
X172761659Y-112921949D01*
X172671949Y-113011659D01*
X172614355Y-113124692D01*
X172614354Y-113124696D01*
X172594508Y-113249999D01*
X121250500Y-113249999D01*
X121250500Y-112675996D01*
X151944499Y-112675996D01*
X151950340Y-112730322D01*
X151961538Y-112781796D01*
X151961550Y-112781846D01*
X151968780Y-112808196D01*
X151968782Y-112808202D01*
X152018107Y-112894821D01*
X152018117Y-112894834D01*
X152063852Y-112947616D01*
X152063861Y-112947626D01*
X152096641Y-112979257D01*
X152096644Y-112979259D01*
X152101678Y-112981892D01*
X152184976Y-113025465D01*
X152252015Y-113045150D01*
X152292006Y-113050900D01*
X152323996Y-113055500D01*
X152324000Y-113055500D01*
X166675996Y-113055500D01*
X166676000Y-113055500D01*
X166730313Y-113049661D01*
X166781824Y-113038455D01*
X166808198Y-113031219D01*
X166818305Y-113025464D01*
X166894821Y-112981892D01*
X166894821Y-112981891D01*
X166894828Y-112981888D01*
X166947632Y-112936133D01*
X166979257Y-112903359D01*
X167025465Y-112815024D01*
X167045150Y-112747985D01*
X167051360Y-112704794D01*
X167055500Y-112676004D01*
X167055500Y-107804293D01*
X175149500Y-107804293D01*
X175149500Y-110195706D01*
X175159690Y-110310327D01*
X175213427Y-110498128D01*
X175213429Y-110498134D01*
X175303872Y-110671279D01*
X175427319Y-110822675D01*
X175427322Y-110822678D01*
X175578718Y-110946126D01*
X175751866Y-111036571D01*
X175939672Y-111090309D01*
X175939671Y-111090309D01*
X175939675Y-111090310D01*
X176054290Y-111100500D01*
X176054294Y-111100500D01*
X178445706Y-111100500D01*
X178445710Y-111100500D01*
X178560325Y-111090310D01*
X178748134Y-111036571D01*
X178921282Y-110946126D01*
X179072678Y-110822678D01*
X179196126Y-110671282D01*
X179286571Y-110498134D01*
X179340310Y-110310325D01*
X179350500Y-110195710D01*
X179350500Y-109000000D01*
X179745057Y-109000000D01*
X179764809Y-109313958D01*
X179823752Y-109622945D01*
X179823755Y-109622955D01*
X179920965Y-109922137D01*
X180054902Y-110206765D01*
X180054909Y-110206778D01*
X180223458Y-110472368D01*
X180314285Y-110582159D01*
X181134727Y-109761716D01*
X181220278Y-109879466D01*
X181370534Y-110029722D01*
X181488281Y-110115270D01*
X180664973Y-110938579D01*
X180907794Y-111115000D01*
X181183445Y-111266539D01*
X181183448Y-111266541D01*
X181475929Y-111382341D01*
X181780624Y-111460574D01*
X182092713Y-111500000D01*
X182407287Y-111500000D01*
X182719375Y-111460574D01*
X183024070Y-111382341D01*
X183316551Y-111266541D01*
X183316554Y-111266539D01*
X183592205Y-111115000D01*
X183835026Y-110938579D01*
X183011717Y-110115270D01*
X183129466Y-110029722D01*
X183279722Y-109879466D01*
X183365271Y-109761717D01*
X184185713Y-110582159D01*
X184276541Y-110472368D01*
X184445090Y-110206778D01*
X184445097Y-110206765D01*
X184579034Y-109922137D01*
X184676244Y-109622955D01*
X184676247Y-109622945D01*
X184735190Y-109313958D01*
X184754942Y-109000000D01*
X184735190Y-108686041D01*
X184676247Y-108377054D01*
X184676244Y-108377044D01*
X184579034Y-108077862D01*
X184445097Y-107793234D01*
X184445090Y-107793221D01*
X184276541Y-107527631D01*
X184185713Y-107417839D01*
X183365270Y-108238281D01*
X183279722Y-108120534D01*
X183129466Y-107970278D01*
X183011716Y-107884727D01*
X183835025Y-107061419D01*
X183592205Y-106884999D01*
X183316554Y-106733460D01*
X183316551Y-106733458D01*
X183024070Y-106617658D01*
X182719375Y-106539425D01*
X182407287Y-106500000D01*
X182092713Y-106500000D01*
X181780624Y-106539425D01*
X181475929Y-106617658D01*
X181183448Y-106733458D01*
X181183445Y-106733460D01*
X180907798Y-106884997D01*
X180907779Y-106885009D01*
X180664972Y-107061418D01*
X181488282Y-107884728D01*
X181370534Y-107970278D01*
X181220278Y-108120534D01*
X181134728Y-108238282D01*
X180314285Y-107417839D01*
X180223458Y-107527631D01*
X180054903Y-107793233D01*
X180054902Y-107793234D01*
X179920965Y-108077862D01*
X179823755Y-108377044D01*
X179823752Y-108377054D01*
X179764809Y-108686041D01*
X179745057Y-109000000D01*
X179350500Y-109000000D01*
X179350500Y-107804290D01*
X179340310Y-107689675D01*
X179286571Y-107501866D01*
X179196126Y-107328718D01*
X179110621Y-107223855D01*
X179072680Y-107177324D01*
X179072675Y-107177319D01*
X178937225Y-107066874D01*
X178921282Y-107053874D01*
X178921280Y-107053873D01*
X178921279Y-107053872D01*
X178748134Y-106963429D01*
X178748128Y-106963427D01*
X178560325Y-106909690D01*
X178560328Y-106909690D01*
X178511204Y-106905322D01*
X178445710Y-106899500D01*
X176054290Y-106899500D01*
X175988795Y-106905322D01*
X175939672Y-106909690D01*
X175751871Y-106963427D01*
X175751865Y-106963429D01*
X175578720Y-107053872D01*
X175427324Y-107177319D01*
X175427319Y-107177324D01*
X175303872Y-107328720D01*
X175213429Y-107501865D01*
X175213427Y-107501871D01*
X175159690Y-107689672D01*
X175154803Y-107744644D01*
X175149882Y-107800000D01*
X175149500Y-107804293D01*
X167055500Y-107804293D01*
X167055500Y-101505539D01*
X167054367Y-101495000D01*
X167049661Y-101451223D01*
X167038455Y-101399711D01*
X167031219Y-101373336D01*
X167031218Y-101373334D01*
X167031216Y-101373329D01*
X166981892Y-101286712D01*
X166981890Y-101286709D01*
X166981888Y-101286706D01*
X166936133Y-101233902D01*
X166936128Y-101233897D01*
X166936115Y-101233884D01*
X166903359Y-101202278D01*
X166903356Y-101202276D01*
X166903355Y-101202275D01*
X166896234Y-101198550D01*
X166846413Y-101172489D01*
X166803614Y-101128764D01*
X166794519Y-101069279D01*
X166805492Y-101000000D01*
X166798116Y-100953430D01*
X166794589Y-100931162D01*
X166804160Y-100870733D01*
X166843380Y-100829648D01*
X166894828Y-100800352D01*
X166947632Y-100754597D01*
X166979257Y-100721823D01*
X167025465Y-100633488D01*
X167045150Y-100566449D01*
X167051360Y-100523258D01*
X167055500Y-100494468D01*
X167055500Y-99430000D01*
X176929364Y-99430000D01*
X177826988Y-99430000D01*
X177794075Y-99487007D01*
X177760000Y-99614174D01*
X177760000Y-99745826D01*
X177794075Y-99872993D01*
X177826988Y-99930000D01*
X176929364Y-99930000D01*
X176986569Y-100143489D01*
X177086399Y-100357577D01*
X177221886Y-100551073D01*
X177388926Y-100718113D01*
X177582422Y-100853600D01*
X177796509Y-100953430D01*
X178010000Y-101010634D01*
X178010000Y-100113012D01*
X178067007Y-100145925D01*
X178194174Y-100180000D01*
X178325826Y-100180000D01*
X178452993Y-100145925D01*
X178510000Y-100113012D01*
X178510000Y-101010633D01*
X178723490Y-100953430D01*
X178937577Y-100853600D01*
X179131073Y-100718113D01*
X179298113Y-100551073D01*
X179433601Y-100357576D01*
X179433602Y-100357574D01*
X179440275Y-100343265D01*
X179482003Y-100298516D01*
X179542064Y-100286841D01*
X179597517Y-100312698D01*
X179619725Y-100343265D01*
X179626397Y-100357574D01*
X179626398Y-100357576D01*
X179761886Y-100551073D01*
X179928926Y-100718113D01*
X180122422Y-100853600D01*
X180336509Y-100953430D01*
X180550000Y-101010634D01*
X180550000Y-100113012D01*
X180607007Y-100145925D01*
X180734174Y-100180000D01*
X180865826Y-100180000D01*
X180992993Y-100145925D01*
X181050000Y-100113012D01*
X181050000Y-101010633D01*
X181263490Y-100953430D01*
X181477577Y-100853600D01*
X181671073Y-100718113D01*
X181838113Y-100551073D01*
X181973600Y-100357577D01*
X182073430Y-100143489D01*
X182130636Y-99930000D01*
X181233012Y-99930000D01*
X181265925Y-99872993D01*
X181300000Y-99745826D01*
X181300000Y-99614174D01*
X181265925Y-99487007D01*
X181233012Y-99430000D01*
X182130636Y-99430000D01*
X182073429Y-99216505D01*
X181973605Y-99002432D01*
X181973601Y-99002424D01*
X181838113Y-98808926D01*
X181671073Y-98641886D01*
X181477577Y-98506399D01*
X181263489Y-98406569D01*
X181056786Y-98351183D01*
X181005472Y-98317859D01*
X180983545Y-98260737D01*
X180999381Y-98201637D01*
X181046931Y-98163132D01*
X181053663Y-98160821D01*
X181203954Y-98115232D01*
X181386450Y-98017685D01*
X181546410Y-97886410D01*
X181677685Y-97726450D01*
X181775232Y-97543954D01*
X181835300Y-97345934D01*
X181835301Y-97345929D01*
X181855583Y-97140003D01*
X181855583Y-97139996D01*
X181835301Y-96934070D01*
X181835300Y-96934065D01*
X181811633Y-96856045D01*
X181775232Y-96736046D01*
X181677685Y-96553550D01*
X181546410Y-96393590D01*
X181488335Y-96345929D01*
X181386452Y-96262316D01*
X181203954Y-96164768D01*
X181005934Y-96104699D01*
X181005929Y-96104698D01*
X180800003Y-96084417D01*
X180799997Y-96084417D01*
X180594070Y-96104698D01*
X180594065Y-96104699D01*
X180396045Y-96164768D01*
X180213547Y-96262316D01*
X180053595Y-96393585D01*
X180053585Y-96393595D01*
X179922316Y-96553547D01*
X179824768Y-96736045D01*
X179764699Y-96934065D01*
X179764698Y-96934070D01*
X179744417Y-97139996D01*
X179744417Y-97140003D01*
X179764698Y-97345929D01*
X179764699Y-97345934D01*
X179824768Y-97543954D01*
X179922316Y-97726452D01*
X180053585Y-97886404D01*
X180053590Y-97886410D01*
X180053595Y-97886414D01*
X180213547Y-98017683D01*
X180213548Y-98017683D01*
X180213550Y-98017685D01*
X180396046Y-98115232D01*
X180546328Y-98160819D01*
X180596525Y-98195804D01*
X180616571Y-98253612D01*
X180598810Y-98312163D01*
X180550026Y-98349092D01*
X180543213Y-98351183D01*
X180336505Y-98406570D01*
X180122432Y-98506394D01*
X180122424Y-98506398D01*
X179928926Y-98641886D01*
X179761886Y-98808926D01*
X179626398Y-99002424D01*
X179626396Y-99002428D01*
X179619724Y-99016737D01*
X179577995Y-99061485D01*
X179517934Y-99073159D01*
X179462481Y-99047300D01*
X179440276Y-99016737D01*
X179433603Y-99002428D01*
X179433601Y-99002424D01*
X179298113Y-98808926D01*
X179131073Y-98641886D01*
X178937577Y-98506399D01*
X178723489Y-98406569D01*
X178516786Y-98351183D01*
X178465472Y-98317859D01*
X178443545Y-98260737D01*
X178459381Y-98201637D01*
X178506931Y-98163132D01*
X178513663Y-98160821D01*
X178663954Y-98115232D01*
X178846450Y-98017685D01*
X179006410Y-97886410D01*
X179137685Y-97726450D01*
X179235232Y-97543954D01*
X179295300Y-97345934D01*
X179295301Y-97345929D01*
X179315583Y-97140003D01*
X179315583Y-97139996D01*
X179295301Y-96934070D01*
X179295300Y-96934065D01*
X179271633Y-96856045D01*
X179235232Y-96736046D01*
X179137685Y-96553550D01*
X179006410Y-96393590D01*
X178948335Y-96345929D01*
X178846452Y-96262316D01*
X178663954Y-96164768D01*
X178465934Y-96104699D01*
X178465929Y-96104698D01*
X178260003Y-96084417D01*
X178259997Y-96084417D01*
X178054070Y-96104698D01*
X178054065Y-96104699D01*
X177856045Y-96164768D01*
X177673547Y-96262316D01*
X177513595Y-96393585D01*
X177513585Y-96393595D01*
X177382316Y-96553547D01*
X177284768Y-96736045D01*
X177224699Y-96934065D01*
X177224698Y-96934070D01*
X177204417Y-97139996D01*
X177204417Y-97140003D01*
X177224698Y-97345929D01*
X177224699Y-97345934D01*
X177284768Y-97543954D01*
X177382316Y-97726452D01*
X177513585Y-97886404D01*
X177513590Y-97886410D01*
X177513595Y-97886414D01*
X177673547Y-98017683D01*
X177673548Y-98017683D01*
X177673550Y-98017685D01*
X177856046Y-98115232D01*
X178006328Y-98160819D01*
X178056525Y-98195804D01*
X178076571Y-98253612D01*
X178058810Y-98312163D01*
X178010026Y-98349092D01*
X178003213Y-98351183D01*
X177796505Y-98406570D01*
X177582432Y-98506394D01*
X177582424Y-98506398D01*
X177388926Y-98641886D01*
X177221886Y-98808926D01*
X177086398Y-99002424D01*
X177086394Y-99002432D01*
X176986570Y-99216505D01*
X176929364Y-99430000D01*
X167055500Y-99430000D01*
X167055500Y-98924003D01*
X167050016Y-98872993D01*
X167049661Y-98869687D01*
X167049317Y-98868108D01*
X167038461Y-98818203D01*
X167038449Y-98818153D01*
X167031219Y-98791803D01*
X167031217Y-98791797D01*
X166981892Y-98705178D01*
X166981889Y-98705175D01*
X166981888Y-98705172D01*
X166981882Y-98705165D01*
X166936147Y-98652383D01*
X166936138Y-98652373D01*
X166903358Y-98620742D01*
X166903355Y-98620740D01*
X166815025Y-98574535D01*
X166815020Y-98574533D01*
X166747997Y-98554853D01*
X166747989Y-98554851D01*
X166747985Y-98554850D01*
X166747980Y-98554849D01*
X166747979Y-98554849D01*
X166676004Y-98544500D01*
X166676000Y-98544500D01*
X162975919Y-98544500D01*
X162975905Y-98544500D01*
X162960920Y-98544939D01*
X162946369Y-98545796D01*
X162946368Y-98545796D01*
X162946363Y-98545796D01*
X162946363Y-98545797D01*
X162909886Y-98554375D01*
X162861119Y-98565845D01*
X162861115Y-98565847D01*
X162796851Y-98593260D01*
X162756724Y-98614790D01*
X162756723Y-98614791D01*
X162685713Y-98684763D01*
X162646466Y-98742575D01*
X162646466Y-98742576D01*
X162628523Y-98774868D01*
X162583732Y-98816551D01*
X162522995Y-98823945D01*
X162513247Y-98821520D01*
X162325934Y-98764699D01*
X162325929Y-98764698D01*
X162120003Y-98744417D01*
X162119997Y-98744417D01*
X161914070Y-98764698D01*
X161914065Y-98764699D01*
X161725206Y-98821989D01*
X161664032Y-98820788D01*
X161615248Y-98783859D01*
X161610446Y-98776255D01*
X161569969Y-98705172D01*
X161569963Y-98705165D01*
X161524228Y-98652383D01*
X161524219Y-98652373D01*
X161491439Y-98620742D01*
X161491436Y-98620740D01*
X161403106Y-98574535D01*
X161403101Y-98574533D01*
X161336078Y-98554853D01*
X161336070Y-98554851D01*
X161336066Y-98554850D01*
X161336061Y-98554849D01*
X161336060Y-98554849D01*
X161264085Y-98544500D01*
X161264081Y-98544500D01*
X160124000Y-98544500D01*
X160077750Y-98549472D01*
X160069677Y-98550340D01*
X160018203Y-98561538D01*
X160018153Y-98561550D01*
X159991803Y-98568780D01*
X159991797Y-98568782D01*
X159905178Y-98618107D01*
X159905165Y-98618117D01*
X159852383Y-98663852D01*
X159852373Y-98663861D01*
X159820742Y-98696641D01*
X159820740Y-98696644D01*
X159774535Y-98784974D01*
X159774533Y-98784979D01*
X159754853Y-98852002D01*
X159754849Y-98852020D01*
X159744500Y-98923995D01*
X159744500Y-105864743D01*
X159744499Y-105864743D01*
X159750338Y-105919052D01*
X159750339Y-105919059D01*
X159761537Y-105970540D01*
X159761548Y-105970584D01*
X159768774Y-105996929D01*
X159802776Y-106056645D01*
X159818103Y-106083563D01*
X159863856Y-106136369D01*
X159896631Y-106167997D01*
X159934562Y-106187840D01*
X159977358Y-106231566D01*
X159986452Y-106291048D01*
X159969196Y-106400000D01*
X159990281Y-106533126D01*
X159993491Y-106539425D01*
X160052407Y-106655055D01*
X160061978Y-106715487D01*
X160052407Y-106744945D01*
X159990281Y-106866874D01*
X159969196Y-106999999D01*
X159969196Y-107000000D01*
X159986509Y-107109314D01*
X159976937Y-107169746D01*
X159937718Y-107210830D01*
X159905172Y-107229364D01*
X159905171Y-107229365D01*
X159905165Y-107229369D01*
X159852383Y-107275104D01*
X159852373Y-107275113D01*
X159820742Y-107307893D01*
X159820740Y-107307896D01*
X159774535Y-107396226D01*
X159774533Y-107396231D01*
X159754853Y-107463254D01*
X159754849Y-107463272D01*
X159744500Y-107535247D01*
X159744500Y-108645500D01*
X159725593Y-108703691D01*
X159676093Y-108739655D01*
X159645500Y-108744500D01*
X152324000Y-108744500D01*
X152277750Y-108749472D01*
X152269677Y-108750340D01*
X152218203Y-108761538D01*
X152218153Y-108761550D01*
X152191803Y-108768780D01*
X152191797Y-108768782D01*
X152105178Y-108818107D01*
X152105165Y-108818117D01*
X152052383Y-108863852D01*
X152052373Y-108863861D01*
X152020742Y-108896641D01*
X152020740Y-108896644D01*
X151974535Y-108984974D01*
X151974533Y-108984979D01*
X151954853Y-109052002D01*
X151954849Y-109052020D01*
X151944500Y-109123995D01*
X151944500Y-112675996D01*
X151944499Y-112675996D01*
X121250500Y-112675996D01*
X121250500Y-110670253D01*
X122149500Y-110670253D01*
X122149500Y-112409746D01*
X122149501Y-112409758D01*
X122161132Y-112468227D01*
X122161134Y-112468233D01*
X122205445Y-112534548D01*
X122205448Y-112534552D01*
X122271769Y-112578867D01*
X122316231Y-112587711D01*
X122330241Y-112590498D01*
X122330246Y-112590498D01*
X122330252Y-112590500D01*
X122330253Y-112590500D01*
X124069747Y-112590500D01*
X124069748Y-112590500D01*
X124128231Y-112578867D01*
X124194552Y-112534552D01*
X124238867Y-112468231D01*
X124250500Y-112409748D01*
X124250500Y-110999999D01*
X125369196Y-110999999D01*
X125369196Y-111000000D01*
X125390281Y-111133127D01*
X125390282Y-111133129D01*
X125424355Y-111200000D01*
X125451472Y-111253220D01*
X125546780Y-111348528D01*
X125666874Y-111409719D01*
X125800000Y-111430804D01*
X125933126Y-111409719D01*
X126053220Y-111348528D01*
X126148528Y-111253220D01*
X126175645Y-111199999D01*
X129569196Y-111199999D01*
X129569196Y-111200000D01*
X129590281Y-111333127D01*
X129590282Y-111333129D01*
X129629307Y-111409719D01*
X129651472Y-111453220D01*
X129746780Y-111548528D01*
X129866874Y-111609719D01*
X130000000Y-111630804D01*
X130133126Y-111609719D01*
X130253220Y-111548528D01*
X130348528Y-111453220D01*
X130409719Y-111333126D01*
X130430804Y-111200000D01*
X130409719Y-111066874D01*
X130348528Y-110946780D01*
X130253220Y-110851472D01*
X130253217Y-110851470D01*
X130133129Y-110790282D01*
X130133127Y-110790281D01*
X130000000Y-110769196D01*
X129866872Y-110790281D01*
X129866870Y-110790282D01*
X129746782Y-110851470D01*
X129651470Y-110946782D01*
X129590282Y-111066870D01*
X129590281Y-111066872D01*
X129569196Y-111199999D01*
X126175645Y-111199999D01*
X126209719Y-111133126D01*
X126230804Y-111000000D01*
X126209719Y-110866874D01*
X126148528Y-110746780D01*
X126053220Y-110651472D01*
X126053217Y-110651470D01*
X125933129Y-110590282D01*
X125933127Y-110590281D01*
X125800000Y-110569196D01*
X125666872Y-110590281D01*
X125666870Y-110590282D01*
X125546782Y-110651470D01*
X125451470Y-110746782D01*
X125390282Y-110866870D01*
X125390281Y-110866872D01*
X125369196Y-110999999D01*
X124250500Y-110999999D01*
X124250500Y-110670252D01*
X124238867Y-110611769D01*
X124194552Y-110545448D01*
X124194548Y-110545445D01*
X124128233Y-110501134D01*
X124128231Y-110501133D01*
X124128228Y-110501132D01*
X124128227Y-110501132D01*
X124069758Y-110489501D01*
X124069748Y-110489500D01*
X122330252Y-110489500D01*
X122330251Y-110489500D01*
X122330241Y-110489501D01*
X122271772Y-110501132D01*
X122271766Y-110501134D01*
X122205451Y-110545445D01*
X122205445Y-110545451D01*
X122161134Y-110611766D01*
X122161132Y-110611772D01*
X122149501Y-110670241D01*
X122149500Y-110670253D01*
X121250500Y-110670253D01*
X121250500Y-108999996D01*
X122144417Y-108999996D01*
X122144417Y-109000003D01*
X122164698Y-109205929D01*
X122164699Y-109205934D01*
X122224768Y-109403954D01*
X122322316Y-109586452D01*
X122411402Y-109695004D01*
X122453590Y-109746410D01*
X122453595Y-109746414D01*
X122613547Y-109877683D01*
X122613548Y-109877683D01*
X122613550Y-109877685D01*
X122796046Y-109975232D01*
X122933997Y-110017078D01*
X122994065Y-110035300D01*
X122994070Y-110035301D01*
X123199997Y-110055583D01*
X123200000Y-110055583D01*
X123200003Y-110055583D01*
X123405929Y-110035301D01*
X123405934Y-110035300D01*
X123424322Y-110029722D01*
X123603954Y-109975232D01*
X123786450Y-109877685D01*
X123946410Y-109746410D01*
X124077685Y-109586450D01*
X124175232Y-109403954D01*
X124221933Y-109249999D01*
X143344508Y-109249999D01*
X143344508Y-109250000D01*
X143364354Y-109375303D01*
X143364355Y-109375307D01*
X143378952Y-109403954D01*
X143421950Y-109488342D01*
X143488606Y-109554998D01*
X143516382Y-109609513D01*
X143506811Y-109669945D01*
X143488607Y-109695000D01*
X143437204Y-109746404D01*
X143421949Y-109761659D01*
X143364355Y-109874692D01*
X143364354Y-109874696D01*
X143344508Y-109999999D01*
X143344508Y-110000000D01*
X143364354Y-110125303D01*
X143364355Y-110125307D01*
X143379485Y-110155000D01*
X143421950Y-110238342D01*
X143488606Y-110304998D01*
X143516382Y-110359513D01*
X143506811Y-110419945D01*
X143488607Y-110445000D01*
X143444108Y-110489500D01*
X143421949Y-110511659D01*
X143364355Y-110624692D01*
X143364354Y-110624696D01*
X143357139Y-110670253D01*
X143344508Y-110750000D01*
X143360579Y-110851472D01*
X143364354Y-110875303D01*
X143364355Y-110875307D01*
X143394350Y-110934174D01*
X143421950Y-110988342D01*
X143488606Y-111054998D01*
X143516382Y-111109513D01*
X143506811Y-111169945D01*
X143488607Y-111195000D01*
X143430391Y-111253217D01*
X143421949Y-111261659D01*
X143364355Y-111374692D01*
X143364354Y-111374696D01*
X143344508Y-111500000D01*
X143361885Y-111609718D01*
X143364354Y-111625303D01*
X143364355Y-111625307D01*
X143419944Y-111734406D01*
X143421950Y-111738342D01*
X143488606Y-111804998D01*
X143516382Y-111859513D01*
X143506811Y-111919945D01*
X143488607Y-111945000D01*
X143421950Y-112011658D01*
X143421949Y-112011659D01*
X143364355Y-112124692D01*
X143364354Y-112124696D01*
X143344508Y-112249999D01*
X143344508Y-112250000D01*
X143364354Y-112375303D01*
X143364355Y-112375307D01*
X143381903Y-112409746D01*
X143421950Y-112488342D01*
X143511658Y-112578050D01*
X143624696Y-112635646D01*
X143750000Y-112655492D01*
X143875304Y-112635646D01*
X143988342Y-112578050D01*
X144054998Y-112511393D01*
X144109513Y-112483618D01*
X144169945Y-112493189D01*
X144195000Y-112511392D01*
X144261658Y-112578050D01*
X144374696Y-112635646D01*
X144500000Y-112655492D01*
X144625304Y-112635646D01*
X144738342Y-112578050D01*
X144804998Y-112511393D01*
X144859513Y-112483618D01*
X144919945Y-112493189D01*
X144945000Y-112511392D01*
X145011658Y-112578050D01*
X145124696Y-112635646D01*
X145250000Y-112655492D01*
X145375304Y-112635646D01*
X145488342Y-112578050D01*
X145578050Y-112488342D01*
X145635646Y-112375304D01*
X145655492Y-112250000D01*
X145635646Y-112124696D01*
X145578050Y-112011658D01*
X145511393Y-111945001D01*
X145483618Y-111890487D01*
X145493189Y-111830055D01*
X145511392Y-111804999D01*
X145578050Y-111738342D01*
X145635646Y-111625304D01*
X145655492Y-111500000D01*
X145635646Y-111374696D01*
X145578050Y-111261658D01*
X145511393Y-111195001D01*
X145483618Y-111140487D01*
X145493189Y-111080055D01*
X145511392Y-111054999D01*
X145578050Y-110988342D01*
X145635646Y-110875304D01*
X145655492Y-110750000D01*
X145635646Y-110624696D01*
X145578050Y-110511658D01*
X145511393Y-110445001D01*
X145483618Y-110390487D01*
X145493189Y-110330055D01*
X145511392Y-110304999D01*
X145578050Y-110238342D01*
X145635646Y-110125304D01*
X145655492Y-110000000D01*
X145635646Y-109874696D01*
X145578050Y-109761658D01*
X145511393Y-109695001D01*
X145483618Y-109640487D01*
X145493189Y-109580055D01*
X145511392Y-109554999D01*
X145578050Y-109488342D01*
X145635646Y-109375304D01*
X145655492Y-109250000D01*
X145635646Y-109124696D01*
X145578050Y-109011658D01*
X145488342Y-108921950D01*
X145484406Y-108919944D01*
X145375307Y-108864355D01*
X145375304Y-108864354D01*
X145250000Y-108844508D01*
X145124696Y-108864354D01*
X145124692Y-108864355D01*
X145011659Y-108921949D01*
X145011658Y-108921949D01*
X145011658Y-108921950D01*
X144945001Y-108988606D01*
X144890487Y-109016382D01*
X144830055Y-109006811D01*
X144804999Y-108988607D01*
X144738342Y-108921950D01*
X144734406Y-108919944D01*
X144625307Y-108864355D01*
X144625304Y-108864354D01*
X144500000Y-108844508D01*
X144374696Y-108864354D01*
X144374692Y-108864355D01*
X144261659Y-108921949D01*
X144261658Y-108921949D01*
X144261658Y-108921950D01*
X144195001Y-108988606D01*
X144140487Y-109016382D01*
X144080055Y-109006811D01*
X144054999Y-108988607D01*
X143988342Y-108921950D01*
X143984406Y-108919944D01*
X143875307Y-108864355D01*
X143875304Y-108864354D01*
X143750000Y-108844508D01*
X143624696Y-108864354D01*
X143624692Y-108864355D01*
X143511659Y-108921949D01*
X143421949Y-109011659D01*
X143364355Y-109124692D01*
X143364354Y-109124696D01*
X143344508Y-109249999D01*
X124221933Y-109249999D01*
X124235300Y-109205934D01*
X124235301Y-109205929D01*
X124255583Y-109000003D01*
X124255583Y-108999996D01*
X124235301Y-108794070D01*
X124235300Y-108794065D01*
X124193824Y-108657336D01*
X124191180Y-108648620D01*
X128669576Y-108648620D01*
X128683445Y-108657335D01*
X128683450Y-108657337D01*
X128837645Y-108711293D01*
X128837649Y-108711294D01*
X129000000Y-108729586D01*
X129162350Y-108711294D01*
X129162354Y-108711293D01*
X129316549Y-108657337D01*
X129316551Y-108657336D01*
X129330420Y-108648620D01*
X130669576Y-108648620D01*
X130683445Y-108657335D01*
X130683450Y-108657337D01*
X130837645Y-108711293D01*
X130837649Y-108711294D01*
X131000000Y-108729586D01*
X131162350Y-108711294D01*
X131162354Y-108711293D01*
X131316549Y-108657337D01*
X131316551Y-108657336D01*
X131330422Y-108648619D01*
X131000000Y-108318198D01*
X130669576Y-108648620D01*
X129330420Y-108648620D01*
X129330422Y-108648619D01*
X129000000Y-108318198D01*
X128669576Y-108648620D01*
X124191180Y-108648620D01*
X124175232Y-108596046D01*
X124077685Y-108413550D01*
X124074540Y-108409718D01*
X123946414Y-108253595D01*
X123946410Y-108253590D01*
X123945957Y-108253218D01*
X123786452Y-108122316D01*
X123603954Y-108024768D01*
X123522305Y-108000000D01*
X128270413Y-108000000D01*
X128288705Y-108162350D01*
X128288706Y-108162354D01*
X128342664Y-108316555D01*
X128351378Y-108330422D01*
X128681801Y-108000000D01*
X128661910Y-107980109D01*
X128900000Y-107980109D01*
X128900000Y-108019891D01*
X128915224Y-108056645D01*
X128943355Y-108084776D01*
X128980109Y-108100000D01*
X129019891Y-108100000D01*
X129056645Y-108084776D01*
X129084776Y-108056645D01*
X129100000Y-108019891D01*
X129100000Y-107999999D01*
X129318198Y-107999999D01*
X129318198Y-108000000D01*
X129648619Y-108330422D01*
X129657336Y-108316551D01*
X129657337Y-108316549D01*
X129711293Y-108162354D01*
X129711294Y-108162350D01*
X129729586Y-108000000D01*
X129711294Y-107837650D01*
X129711180Y-107837324D01*
X129711175Y-107837129D01*
X129710057Y-107832228D01*
X129711060Y-107831999D01*
X129709806Y-107776154D01*
X129744649Y-107725859D01*
X129802400Y-107705649D01*
X129832158Y-107710361D01*
X129832228Y-107710057D01*
X129836751Y-107711089D01*
X129837324Y-107711180D01*
X129837652Y-107711294D01*
X129837649Y-107711294D01*
X130000000Y-107729586D01*
X130162348Y-107711294D01*
X130162670Y-107711182D01*
X130162861Y-107711177D01*
X130167772Y-107710057D01*
X130168001Y-107711061D01*
X130223839Y-107709804D01*
X130274137Y-107744644D01*
X130294350Y-107802394D01*
X130289639Y-107832158D01*
X130289943Y-107832228D01*
X130288915Y-107836729D01*
X130288824Y-107837309D01*
X130288707Y-107837642D01*
X130288705Y-107837649D01*
X130270413Y-108000000D01*
X130288705Y-108162350D01*
X130288706Y-108162354D01*
X130342664Y-108316555D01*
X130351378Y-108330422D01*
X130681802Y-107999999D01*
X130661912Y-107980109D01*
X130900000Y-107980109D01*
X130900000Y-108019891D01*
X130915224Y-108056645D01*
X130943355Y-108084776D01*
X130980109Y-108100000D01*
X131019891Y-108100000D01*
X131056645Y-108084776D01*
X131084776Y-108056645D01*
X131100000Y-108019891D01*
X131100000Y-107999999D01*
X131318198Y-107999999D01*
X131318198Y-108000000D01*
X131648619Y-108330422D01*
X131657336Y-108316551D01*
X131657337Y-108316549D01*
X131711293Y-108162354D01*
X131711294Y-108162350D01*
X131729586Y-108000000D01*
X131711294Y-107837649D01*
X131711293Y-107837645D01*
X131657337Y-107683450D01*
X131657335Y-107683445D01*
X131648620Y-107669576D01*
X131318198Y-107999999D01*
X131100000Y-107999999D01*
X131100000Y-107980109D01*
X131084776Y-107943355D01*
X131056645Y-107915224D01*
X131019891Y-107900000D01*
X130980109Y-107900000D01*
X130943355Y-107915224D01*
X130915224Y-107943355D01*
X130900000Y-107980109D01*
X130661912Y-107980109D01*
X130383959Y-107702156D01*
X130383959Y-107702157D01*
X130364134Y-107682332D01*
X130364134Y-107682331D01*
X130000000Y-107318198D01*
X129682332Y-107635865D01*
X129682329Y-107635866D01*
X129616041Y-107702156D01*
X129318198Y-107999999D01*
X129100000Y-107999999D01*
X129100000Y-107980109D01*
X129084776Y-107943355D01*
X129056645Y-107915224D01*
X129019891Y-107900000D01*
X128980109Y-107900000D01*
X128943355Y-107915224D01*
X128915224Y-107943355D01*
X128900000Y-107980109D01*
X128661910Y-107980109D01*
X128351377Y-107669576D01*
X128342665Y-107683443D01*
X128342665Y-107683444D01*
X128288706Y-107837645D01*
X128288705Y-107837649D01*
X128270413Y-108000000D01*
X123522305Y-108000000D01*
X123405934Y-107964699D01*
X123405929Y-107964698D01*
X123200003Y-107944417D01*
X123199997Y-107944417D01*
X122994070Y-107964698D01*
X122994065Y-107964699D01*
X122796045Y-108024768D01*
X122613547Y-108122316D01*
X122453595Y-108253585D01*
X122453585Y-108253595D01*
X122322316Y-108413547D01*
X122224768Y-108596045D01*
X122164699Y-108794065D01*
X122164698Y-108794070D01*
X122144417Y-108999996D01*
X121250500Y-108999996D01*
X121250500Y-106648620D01*
X128669576Y-106648620D01*
X128683445Y-106657335D01*
X128683450Y-106657337D01*
X128837645Y-106711293D01*
X128837649Y-106711294D01*
X129000000Y-106729586D01*
X129162348Y-106711294D01*
X129162670Y-106711182D01*
X129162861Y-106711177D01*
X129167772Y-106710057D01*
X129168001Y-106711061D01*
X129223839Y-106709804D01*
X129274137Y-106744644D01*
X129294350Y-106802394D01*
X129289639Y-106832158D01*
X129289943Y-106832228D01*
X129288915Y-106836729D01*
X129288824Y-106837309D01*
X129288707Y-106837642D01*
X129288705Y-106837649D01*
X129270413Y-107000000D01*
X129288705Y-107162350D01*
X129288706Y-107162354D01*
X129288822Y-107162684D01*
X129288826Y-107162878D01*
X129289943Y-107167772D01*
X129288940Y-107168000D01*
X129290190Y-107223855D01*
X129255342Y-107274146D01*
X129197589Y-107294350D01*
X129167841Y-107289638D01*
X129167772Y-107289943D01*
X129163258Y-107288912D01*
X129162684Y-107288822D01*
X129162354Y-107288706D01*
X129162350Y-107288705D01*
X129000000Y-107270413D01*
X128837649Y-107288705D01*
X128837645Y-107288706D01*
X128683444Y-107342665D01*
X128683443Y-107342665D01*
X128669576Y-107351377D01*
X129000000Y-107681801D01*
X129681802Y-106999999D01*
X129661912Y-106980109D01*
X129900000Y-106980109D01*
X129900000Y-107019891D01*
X129915224Y-107056645D01*
X129943355Y-107084776D01*
X129980109Y-107100000D01*
X130019891Y-107100000D01*
X130056645Y-107084776D01*
X130084776Y-107056645D01*
X130100000Y-107019891D01*
X130100000Y-106999999D01*
X130318198Y-106999999D01*
X130318198Y-107000000D01*
X130616040Y-107297843D01*
X130616041Y-107297843D01*
X130682329Y-107364131D01*
X130682332Y-107364133D01*
X131000000Y-107681801D01*
X131330422Y-107351378D01*
X131316555Y-107342664D01*
X131162354Y-107288706D01*
X131162350Y-107288705D01*
X131000000Y-107270413D01*
X130837649Y-107288705D01*
X130837642Y-107288707D01*
X130837309Y-107288824D01*
X130837112Y-107288828D01*
X130832228Y-107289943D01*
X130831999Y-107288942D01*
X130776139Y-107290189D01*
X130725849Y-107255338D01*
X130705649Y-107197583D01*
X130710362Y-107167841D01*
X130710057Y-107167772D01*
X130711092Y-107163233D01*
X130711182Y-107162670D01*
X130711294Y-107162348D01*
X130729586Y-107000000D01*
X130711294Y-106837650D01*
X130711180Y-106837324D01*
X130711175Y-106837129D01*
X130710057Y-106832228D01*
X130711060Y-106831999D01*
X130709806Y-106776154D01*
X130744649Y-106725859D01*
X130802400Y-106705649D01*
X130832158Y-106710361D01*
X130832228Y-106710057D01*
X130836751Y-106711089D01*
X130837324Y-106711180D01*
X130837652Y-106711294D01*
X130837649Y-106711294D01*
X131000000Y-106729586D01*
X131162350Y-106711294D01*
X131162354Y-106711293D01*
X131316549Y-106657337D01*
X131316551Y-106657336D01*
X131330422Y-106648619D01*
X131281803Y-106600000D01*
X133969196Y-106600000D01*
X133990281Y-106733126D01*
X134043273Y-106837129D01*
X134052407Y-106855055D01*
X134061978Y-106915487D01*
X134052407Y-106944945D01*
X133990281Y-107066874D01*
X133972788Y-107177324D01*
X133969196Y-107200000D01*
X133990281Y-107333126D01*
X134050580Y-107451470D01*
X134052407Y-107455055D01*
X134061978Y-107515487D01*
X134052407Y-107544945D01*
X134051472Y-107546779D01*
X134051472Y-107546780D01*
X134051471Y-107546782D01*
X133990281Y-107666874D01*
X133969196Y-107799999D01*
X133969196Y-107800000D01*
X133990281Y-107933127D01*
X133990282Y-107933129D01*
X134051470Y-108053217D01*
X134051472Y-108053220D01*
X134146780Y-108148528D01*
X134266874Y-108209719D01*
X134400000Y-108230804D01*
X134533126Y-108209719D01*
X134653220Y-108148528D01*
X134748528Y-108053220D01*
X134775645Y-107999999D01*
X155769196Y-107999999D01*
X155769196Y-108000000D01*
X155790281Y-108133127D01*
X155790282Y-108133129D01*
X155829307Y-108209719D01*
X155851472Y-108253220D01*
X155946780Y-108348528D01*
X156066874Y-108409719D01*
X156200000Y-108430804D01*
X156333126Y-108409719D01*
X156453220Y-108348528D01*
X156548528Y-108253220D01*
X156588923Y-108173939D01*
X156632185Y-108130677D01*
X156692617Y-108121105D01*
X156739657Y-108145072D01*
X156740475Y-108143947D01*
X156746778Y-108148526D01*
X156746780Y-108148528D01*
X156866874Y-108209719D01*
X157000000Y-108230804D01*
X157133126Y-108209719D01*
X157253220Y-108148528D01*
X157348528Y-108053220D01*
X157409719Y-107933126D01*
X157430804Y-107800000D01*
X157409719Y-107666874D01*
X157348528Y-107546780D01*
X157253220Y-107451472D01*
X157253217Y-107451470D01*
X157133129Y-107390282D01*
X157133127Y-107390281D01*
X157000000Y-107369196D01*
X156866872Y-107390281D01*
X156866870Y-107390282D01*
X156746782Y-107451470D01*
X156651471Y-107546781D01*
X156611077Y-107626059D01*
X156567812Y-107669323D01*
X156507380Y-107678894D01*
X156460342Y-107654927D01*
X156459525Y-107656053D01*
X156453217Y-107651470D01*
X156333129Y-107590282D01*
X156333127Y-107590281D01*
X156200000Y-107569196D01*
X156066872Y-107590281D01*
X156066870Y-107590282D01*
X155946782Y-107651470D01*
X155851470Y-107746782D01*
X155790282Y-107866870D01*
X155790281Y-107866872D01*
X155769196Y-107999999D01*
X134775645Y-107999999D01*
X134809719Y-107933126D01*
X134830804Y-107800000D01*
X134820278Y-107733544D01*
X134829849Y-107673115D01*
X134873113Y-107629850D01*
X134933543Y-107620278D01*
X135000000Y-107630804D01*
X135133126Y-107609719D01*
X135253220Y-107548528D01*
X135348528Y-107453220D01*
X135409719Y-107333126D01*
X135430804Y-107200000D01*
X135427212Y-107177324D01*
X135425736Y-107168000D01*
X135409719Y-107066874D01*
X135348528Y-106946780D01*
X135253220Y-106851472D01*
X135253217Y-106851470D01*
X135133129Y-106790282D01*
X135133127Y-106790281D01*
X135000000Y-106769196D01*
X134999999Y-106769196D01*
X134933546Y-106779721D01*
X134873114Y-106770150D01*
X134829849Y-106726885D01*
X134820278Y-106666455D01*
X134830804Y-106600000D01*
X134809719Y-106466874D01*
X134748528Y-106346780D01*
X134653220Y-106251472D01*
X134653217Y-106251470D01*
X134533129Y-106190282D01*
X134533127Y-106190281D01*
X134400000Y-106169196D01*
X134266872Y-106190281D01*
X134266870Y-106190282D01*
X134146782Y-106251470D01*
X134051470Y-106346782D01*
X133990282Y-106466870D01*
X133990281Y-106466872D01*
X133990281Y-106466874D01*
X133969196Y-106600000D01*
X131281803Y-106600000D01*
X131000000Y-106318198D01*
X130682332Y-106635865D01*
X130682329Y-106635866D01*
X130616041Y-106702156D01*
X130318198Y-106999999D01*
X130100000Y-106999999D01*
X130100000Y-106980109D01*
X130084776Y-106943355D01*
X130056645Y-106915224D01*
X130019891Y-106900000D01*
X129980109Y-106900000D01*
X129943355Y-106915224D01*
X129915224Y-106943355D01*
X129900000Y-106980109D01*
X129661912Y-106980109D01*
X129383959Y-106702156D01*
X129383959Y-106702157D01*
X129359597Y-106677795D01*
X129359597Y-106677794D01*
X129000000Y-106318198D01*
X128669576Y-106648620D01*
X121250500Y-106648620D01*
X121250500Y-105139996D01*
X122144417Y-105139996D01*
X122144417Y-105140003D01*
X122164698Y-105345929D01*
X122164699Y-105345934D01*
X122224768Y-105543954D01*
X122322316Y-105726452D01*
X122413570Y-105837645D01*
X122453590Y-105886410D01*
X122453595Y-105886414D01*
X122613547Y-106017683D01*
X122613548Y-106017683D01*
X122613550Y-106017685D01*
X122796046Y-106115232D01*
X122933997Y-106157078D01*
X122994065Y-106175300D01*
X122994070Y-106175301D01*
X123199997Y-106195583D01*
X123200000Y-106195583D01*
X123200003Y-106195583D01*
X123405929Y-106175301D01*
X123405934Y-106175300D01*
X123430009Y-106167997D01*
X123603954Y-106115232D01*
X123786450Y-106017685D01*
X123807999Y-106000000D01*
X128270413Y-106000000D01*
X128288705Y-106162350D01*
X128288706Y-106162354D01*
X128342664Y-106316555D01*
X128351378Y-106330422D01*
X128681801Y-106000000D01*
X128661910Y-105980109D01*
X128900000Y-105980109D01*
X128900000Y-106019891D01*
X128915224Y-106056645D01*
X128943355Y-106084776D01*
X128980109Y-106100000D01*
X129019891Y-106100000D01*
X129056645Y-106084776D01*
X129084776Y-106056645D01*
X129100000Y-106019891D01*
X129100000Y-105999999D01*
X129318198Y-105999999D01*
X129318198Y-106000000D01*
X129616040Y-106297843D01*
X129616041Y-106297843D01*
X129682329Y-106364131D01*
X129682332Y-106364133D01*
X130000000Y-106681801D01*
X130681801Y-106000000D01*
X130661910Y-105980109D01*
X130900000Y-105980109D01*
X130900000Y-106019891D01*
X130915224Y-106056645D01*
X130943355Y-106084776D01*
X130980109Y-106100000D01*
X131019891Y-106100000D01*
X131056645Y-106084776D01*
X131084776Y-106056645D01*
X131100000Y-106019891D01*
X131100000Y-105999999D01*
X131318198Y-105999999D01*
X131318198Y-106000000D01*
X131648619Y-106330422D01*
X131657336Y-106316551D01*
X131657337Y-106316549D01*
X131711293Y-106162354D01*
X131711294Y-106162350D01*
X131729586Y-106000000D01*
X131711294Y-105837649D01*
X131711293Y-105837645D01*
X131657337Y-105683450D01*
X131657335Y-105683445D01*
X131648620Y-105669576D01*
X131318198Y-105999999D01*
X131100000Y-105999999D01*
X131100000Y-105980109D01*
X131084776Y-105943355D01*
X131056645Y-105915224D01*
X131019891Y-105900000D01*
X130980109Y-105900000D01*
X130943355Y-105915224D01*
X130915224Y-105943355D01*
X130900000Y-105980109D01*
X130661910Y-105980109D01*
X130351377Y-105669576D01*
X130342665Y-105683443D01*
X130342665Y-105683444D01*
X130288706Y-105837645D01*
X130288705Y-105837649D01*
X130270413Y-106000000D01*
X130288705Y-106162350D01*
X130288706Y-106162354D01*
X130288822Y-106162684D01*
X130288826Y-106162878D01*
X130289943Y-106167772D01*
X130288940Y-106168000D01*
X130290190Y-106223855D01*
X130255342Y-106274146D01*
X130197589Y-106294350D01*
X130167841Y-106289638D01*
X130167772Y-106289943D01*
X130163258Y-106288912D01*
X130162684Y-106288822D01*
X130162354Y-106288706D01*
X130162350Y-106288705D01*
X130000000Y-106270413D01*
X129837649Y-106288705D01*
X129837642Y-106288707D01*
X129837309Y-106288824D01*
X129837112Y-106288828D01*
X129832228Y-106289943D01*
X129831999Y-106288942D01*
X129776139Y-106290189D01*
X129725849Y-106255338D01*
X129705649Y-106197583D01*
X129710362Y-106167841D01*
X129710057Y-106167772D01*
X129711092Y-106163233D01*
X129711182Y-106162670D01*
X129711294Y-106162348D01*
X129729586Y-106000000D01*
X129711294Y-105837649D01*
X129711293Y-105837645D01*
X129657337Y-105683450D01*
X129657335Y-105683445D01*
X129648620Y-105669576D01*
X129318198Y-105999999D01*
X129100000Y-105999999D01*
X129100000Y-105980109D01*
X129084776Y-105943355D01*
X129056645Y-105915224D01*
X129019891Y-105900000D01*
X128980109Y-105900000D01*
X128943355Y-105915224D01*
X128915224Y-105943355D01*
X128900000Y-105980109D01*
X128661910Y-105980109D01*
X128351377Y-105669576D01*
X128342665Y-105683443D01*
X128342665Y-105683444D01*
X128288706Y-105837645D01*
X128288705Y-105837649D01*
X128270413Y-106000000D01*
X123807999Y-106000000D01*
X123946410Y-105886410D01*
X124077685Y-105726450D01*
X124175232Y-105543954D01*
X124233649Y-105351377D01*
X128669576Y-105351377D01*
X129000000Y-105681801D01*
X129330422Y-105351378D01*
X129330420Y-105351377D01*
X130669576Y-105351377D01*
X131000000Y-105681801D01*
X131330422Y-105351378D01*
X131316555Y-105342664D01*
X131162354Y-105288706D01*
X131162350Y-105288705D01*
X131000000Y-105270413D01*
X130837649Y-105288705D01*
X130837645Y-105288706D01*
X130683444Y-105342665D01*
X130683443Y-105342665D01*
X130669576Y-105351377D01*
X129330420Y-105351377D01*
X129316555Y-105342664D01*
X129162354Y-105288706D01*
X129162350Y-105288705D01*
X129000000Y-105270413D01*
X128837649Y-105288705D01*
X128837645Y-105288706D01*
X128683444Y-105342665D01*
X128683443Y-105342665D01*
X128669576Y-105351377D01*
X124233649Y-105351377D01*
X124235300Y-105345934D01*
X124235301Y-105345929D01*
X124255583Y-105140003D01*
X124255583Y-105139996D01*
X124235301Y-104934070D01*
X124235300Y-104934065D01*
X124210775Y-104853217D01*
X124175232Y-104736046D01*
X124102513Y-104599999D01*
X142769196Y-104599999D01*
X142769196Y-104600000D01*
X142790281Y-104733127D01*
X142790282Y-104733129D01*
X142851470Y-104853217D01*
X142851472Y-104853220D01*
X142946780Y-104948528D01*
X143066874Y-105009719D01*
X143200000Y-105030804D01*
X143333126Y-105009719D01*
X143453220Y-104948528D01*
X143548528Y-104853220D01*
X143609719Y-104733126D01*
X143630804Y-104600000D01*
X143609719Y-104466874D01*
X143548528Y-104346780D01*
X143453220Y-104251472D01*
X143453217Y-104251470D01*
X143333129Y-104190282D01*
X143333127Y-104190281D01*
X143200000Y-104169196D01*
X143066872Y-104190281D01*
X143066870Y-104190282D01*
X142946782Y-104251470D01*
X142851470Y-104346782D01*
X142790282Y-104466870D01*
X142790281Y-104466872D01*
X142769196Y-104599999D01*
X124102513Y-104599999D01*
X124077685Y-104553550D01*
X123946410Y-104393590D01*
X123889372Y-104346780D01*
X123786452Y-104262316D01*
X123603954Y-104164768D01*
X123405934Y-104104699D01*
X123405929Y-104104698D01*
X123200003Y-104084417D01*
X123199997Y-104084417D01*
X122994070Y-104104698D01*
X122994065Y-104104699D01*
X122796045Y-104164768D01*
X122613547Y-104262316D01*
X122453595Y-104393585D01*
X122453585Y-104393595D01*
X122322316Y-104553547D01*
X122224768Y-104736045D01*
X122164699Y-104934065D01*
X122164698Y-104934070D01*
X122144417Y-105139996D01*
X121250500Y-105139996D01*
X121250500Y-101730253D01*
X122149500Y-101730253D01*
X122149500Y-103469746D01*
X122149501Y-103469758D01*
X122161132Y-103528227D01*
X122161134Y-103528233D01*
X122174070Y-103547593D01*
X122205448Y-103594552D01*
X122271769Y-103638867D01*
X122316231Y-103647711D01*
X122330241Y-103650498D01*
X122330246Y-103650498D01*
X122330252Y-103650500D01*
X122330253Y-103650500D01*
X124069747Y-103650500D01*
X124069748Y-103650500D01*
X124128231Y-103638867D01*
X124194552Y-103594552D01*
X124238867Y-103528231D01*
X124250500Y-103469748D01*
X124250500Y-102000000D01*
X128569196Y-102000000D01*
X128590281Y-102133126D01*
X128597354Y-102147007D01*
X128652407Y-102255055D01*
X128661978Y-102315487D01*
X128652407Y-102344945D01*
X128651472Y-102346779D01*
X128651472Y-102346780D01*
X128590281Y-102466874D01*
X128569196Y-102600000D01*
X128590281Y-102733126D01*
X128644736Y-102840000D01*
X128652407Y-102855055D01*
X128661978Y-102915487D01*
X128652407Y-102944945D01*
X128590281Y-103066874D01*
X128569196Y-103199999D01*
X128569196Y-103200000D01*
X128590281Y-103333127D01*
X128590282Y-103333129D01*
X128651470Y-103453217D01*
X128651472Y-103453220D01*
X128746780Y-103548528D01*
X128866874Y-103609719D01*
X129000000Y-103630804D01*
X129133126Y-103609719D01*
X129253220Y-103548528D01*
X129253221Y-103548526D01*
X129255054Y-103547593D01*
X129315486Y-103538021D01*
X129344946Y-103547593D01*
X129346778Y-103548526D01*
X129346780Y-103548528D01*
X129466874Y-103609719D01*
X129600000Y-103630804D01*
X129733126Y-103609719D01*
X129853220Y-103548528D01*
X129948528Y-103453220D01*
X130009719Y-103333126D01*
X130030804Y-103200000D01*
X130009719Y-103066874D01*
X129948528Y-102946780D01*
X129948526Y-102946778D01*
X129947593Y-102944946D01*
X129938021Y-102884514D01*
X129947593Y-102855054D01*
X129948526Y-102853221D01*
X129948528Y-102853220D01*
X130009719Y-102733126D01*
X130030804Y-102600000D01*
X130009719Y-102466874D01*
X129975644Y-102399999D01*
X135169196Y-102399999D01*
X135169196Y-102400000D01*
X135190281Y-102533127D01*
X135190282Y-102533129D01*
X135224355Y-102600000D01*
X135251472Y-102653220D01*
X135346780Y-102748528D01*
X135466874Y-102809719D01*
X135600000Y-102830804D01*
X135733126Y-102809719D01*
X135853220Y-102748528D01*
X135853221Y-102748526D01*
X135855054Y-102747593D01*
X135915486Y-102738021D01*
X135944946Y-102747593D01*
X135946778Y-102748526D01*
X135946780Y-102748528D01*
X136066874Y-102809719D01*
X136200000Y-102830804D01*
X136333126Y-102809719D01*
X136453220Y-102748528D01*
X136548528Y-102653220D01*
X136609719Y-102533126D01*
X136630804Y-102400000D01*
X136609719Y-102266874D01*
X136548528Y-102146780D01*
X136453220Y-102051472D01*
X136453217Y-102051470D01*
X136333129Y-101990282D01*
X136333127Y-101990281D01*
X136200000Y-101969196D01*
X136066874Y-101990281D01*
X135944945Y-102052407D01*
X135884513Y-102061978D01*
X135855055Y-102052407D01*
X135816953Y-102032993D01*
X135733126Y-101990281D01*
X135600000Y-101969196D01*
X135466872Y-101990281D01*
X135466870Y-101990282D01*
X135346782Y-102051470D01*
X135251470Y-102146782D01*
X135190282Y-102266870D01*
X135190281Y-102266872D01*
X135169196Y-102399999D01*
X129975644Y-102399999D01*
X129948528Y-102346780D01*
X129948526Y-102346778D01*
X129947593Y-102344946D01*
X129938021Y-102284514D01*
X129947593Y-102255054D01*
X129948526Y-102253221D01*
X129948528Y-102253220D01*
X130009719Y-102133126D01*
X130030804Y-102000000D01*
X130009719Y-101866874D01*
X129948528Y-101746780D01*
X129853220Y-101651472D01*
X129853217Y-101651470D01*
X129733129Y-101590282D01*
X129733127Y-101590281D01*
X129600000Y-101569196D01*
X129466874Y-101590281D01*
X129344945Y-101652407D01*
X129284513Y-101661978D01*
X129255055Y-101652407D01*
X129253216Y-101651470D01*
X129133126Y-101590281D01*
X129000000Y-101569196D01*
X128866872Y-101590281D01*
X128866870Y-101590282D01*
X128746782Y-101651470D01*
X128651470Y-101746782D01*
X128590282Y-101866870D01*
X128590281Y-101866872D01*
X128574075Y-101969196D01*
X128569196Y-102000000D01*
X124250500Y-102000000D01*
X124250500Y-101730252D01*
X124238867Y-101671769D01*
X124194552Y-101605448D01*
X124171855Y-101590282D01*
X124128233Y-101561134D01*
X124128231Y-101561133D01*
X124128228Y-101561132D01*
X124128227Y-101561132D01*
X124069758Y-101549501D01*
X124069748Y-101549500D01*
X122330252Y-101549500D01*
X122330251Y-101549500D01*
X122330241Y-101549501D01*
X122271772Y-101561132D01*
X122271766Y-101561134D01*
X122205451Y-101605445D01*
X122205445Y-101605451D01*
X122161134Y-101671766D01*
X122161132Y-101671772D01*
X122149501Y-101730241D01*
X122149500Y-101730253D01*
X121250500Y-101730253D01*
X121250500Y-99577824D01*
X124649999Y-99577824D01*
X124656401Y-99637370D01*
X124656403Y-99637381D01*
X124706646Y-99772088D01*
X124706647Y-99772090D01*
X124792807Y-99887184D01*
X124792815Y-99887192D01*
X124907909Y-99973352D01*
X124907911Y-99973353D01*
X125042618Y-100023596D01*
X125042629Y-100023598D01*
X125102176Y-100030000D01*
X125749999Y-100030000D01*
X125750000Y-100029999D01*
X125750000Y-99113012D01*
X125807007Y-99145925D01*
X125934174Y-99180000D01*
X126065826Y-99180000D01*
X126192993Y-99145925D01*
X126250000Y-99113012D01*
X126250000Y-100029999D01*
X126250001Y-100030000D01*
X126897824Y-100030000D01*
X126957370Y-100023598D01*
X126957381Y-100023596D01*
X127092088Y-99973353D01*
X127092090Y-99973352D01*
X127207184Y-99887192D01*
X127207192Y-99887184D01*
X127293352Y-99772090D01*
X127293353Y-99772088D01*
X127343596Y-99637381D01*
X127343598Y-99637370D01*
X127350000Y-99577824D01*
X127350000Y-98930001D01*
X127349999Y-98930000D01*
X126433012Y-98930000D01*
X126465925Y-98872993D01*
X126500000Y-98745826D01*
X126500000Y-98614174D01*
X126465925Y-98487007D01*
X126433012Y-98430000D01*
X127349999Y-98430000D01*
X127350000Y-98429999D01*
X127350000Y-97782175D01*
X127343598Y-97722629D01*
X127343596Y-97722618D01*
X127293353Y-97587911D01*
X127293352Y-97587909D01*
X127207192Y-97472815D01*
X127207184Y-97472807D01*
X127092090Y-97386647D01*
X127092088Y-97386646D01*
X126957381Y-97336403D01*
X126957370Y-97336401D01*
X126897824Y-97330000D01*
X126363361Y-97330000D01*
X126305170Y-97311093D01*
X126269206Y-97261593D01*
X126269206Y-97259996D01*
X161064417Y-97259996D01*
X161064417Y-97260003D01*
X161084698Y-97465929D01*
X161084699Y-97465934D01*
X161144768Y-97663954D01*
X161242316Y-97846452D01*
X161275104Y-97886404D01*
X161373590Y-98006410D01*
X161373595Y-98006414D01*
X161533547Y-98137683D01*
X161533548Y-98137683D01*
X161533550Y-98137685D01*
X161716046Y-98235232D01*
X161853997Y-98277078D01*
X161914065Y-98295300D01*
X161914070Y-98295301D01*
X162119997Y-98315583D01*
X162120000Y-98315583D01*
X162120003Y-98315583D01*
X162325929Y-98295301D01*
X162325934Y-98295300D01*
X162523954Y-98235232D01*
X162706450Y-98137685D01*
X162866410Y-98006410D01*
X162997685Y-97846450D01*
X163095232Y-97663954D01*
X163155300Y-97465934D01*
X163155301Y-97465929D01*
X163175583Y-97260003D01*
X163175583Y-97259996D01*
X163155301Y-97054070D01*
X163155300Y-97054065D01*
X163118899Y-96934066D01*
X163095232Y-96856046D01*
X162997685Y-96673550D01*
X162925544Y-96585646D01*
X162866414Y-96513595D01*
X162866410Y-96513590D01*
X162800768Y-96459719D01*
X162706452Y-96382316D01*
X162523954Y-96284768D01*
X162325934Y-96224699D01*
X162325929Y-96224698D01*
X162120003Y-96204417D01*
X162119997Y-96204417D01*
X161914070Y-96224698D01*
X161914065Y-96224699D01*
X161716045Y-96284768D01*
X161533547Y-96382316D01*
X161373595Y-96513585D01*
X161373585Y-96513595D01*
X161242316Y-96673547D01*
X161144768Y-96856045D01*
X161084699Y-97054065D01*
X161084698Y-97054070D01*
X161064417Y-97259996D01*
X126269206Y-97259996D01*
X126269206Y-97200407D01*
X126305170Y-97150907D01*
X126334623Y-97136263D01*
X126403954Y-97115232D01*
X126586450Y-97017685D01*
X126746410Y-96886410D01*
X126877685Y-96726450D01*
X126975232Y-96543954D01*
X127035300Y-96345934D01*
X127035301Y-96345929D01*
X127055583Y-96140003D01*
X127055583Y-96139996D01*
X127046719Y-96049999D01*
X142419196Y-96049999D01*
X142419196Y-96050000D01*
X142440281Y-96183127D01*
X142440282Y-96183129D01*
X142480630Y-96262316D01*
X142501472Y-96303220D01*
X142596780Y-96398528D01*
X142716874Y-96459719D01*
X142850000Y-96480804D01*
X142983126Y-96459719D01*
X143103220Y-96398528D01*
X143198528Y-96303220D01*
X143259719Y-96183126D01*
X143280804Y-96050000D01*
X143259719Y-95916874D01*
X143198528Y-95796780D01*
X143103220Y-95701472D01*
X143103217Y-95701470D01*
X142983129Y-95640282D01*
X142983127Y-95640281D01*
X142850000Y-95619196D01*
X142716872Y-95640281D01*
X142716870Y-95640282D01*
X142596782Y-95701470D01*
X142501470Y-95796782D01*
X142440282Y-95916870D01*
X142440281Y-95916872D01*
X142419196Y-96049999D01*
X127046719Y-96049999D01*
X127035301Y-95934070D01*
X127035300Y-95934065D01*
X126994632Y-95800000D01*
X126975232Y-95736046D01*
X126877685Y-95553550D01*
X126856906Y-95528231D01*
X126759645Y-95409717D01*
X126746410Y-95393590D01*
X126691503Y-95348529D01*
X126586452Y-95262316D01*
X126403954Y-95164768D01*
X126205934Y-95104699D01*
X126205929Y-95104698D01*
X126000003Y-95084417D01*
X125999997Y-95084417D01*
X125794070Y-95104698D01*
X125794065Y-95104699D01*
X125596045Y-95164768D01*
X125413547Y-95262316D01*
X125253595Y-95393585D01*
X125253585Y-95393595D01*
X125122316Y-95553547D01*
X125024768Y-95736045D01*
X124964699Y-95934065D01*
X124964698Y-95934070D01*
X124944417Y-96139996D01*
X124944417Y-96140003D01*
X124964698Y-96345929D01*
X124964699Y-96345934D01*
X125024768Y-96543954D01*
X125122316Y-96726452D01*
X125130189Y-96736045D01*
X125253590Y-96886410D01*
X125253595Y-96886414D01*
X125413547Y-97017683D01*
X125413548Y-97017683D01*
X125413550Y-97017685D01*
X125596046Y-97115232D01*
X125665377Y-97136263D01*
X125715574Y-97171248D01*
X125735620Y-97229056D01*
X125717859Y-97287607D01*
X125669075Y-97324536D01*
X125636639Y-97330000D01*
X125102176Y-97330000D01*
X125042629Y-97336401D01*
X125042618Y-97336403D01*
X124907911Y-97386646D01*
X124907909Y-97386647D01*
X124792815Y-97472807D01*
X124792807Y-97472815D01*
X124706647Y-97587909D01*
X124706646Y-97587911D01*
X124656403Y-97722618D01*
X124656401Y-97722629D01*
X124650000Y-97782175D01*
X124650000Y-98429999D01*
X124650001Y-98430000D01*
X125566988Y-98430000D01*
X125534075Y-98487007D01*
X125500000Y-98614174D01*
X125500000Y-98745826D01*
X125534075Y-98872993D01*
X125566988Y-98930000D01*
X124650001Y-98930000D01*
X124650000Y-98930001D01*
X124650000Y-99577824D01*
X124649999Y-99577824D01*
X121250500Y-99577824D01*
X121250500Y-93599996D01*
X124944417Y-93599996D01*
X124944417Y-93600003D01*
X124964698Y-93805929D01*
X124964699Y-93805934D01*
X125024768Y-94003954D01*
X125122316Y-94186452D01*
X125228670Y-94316045D01*
X125253590Y-94346410D01*
X125253595Y-94346414D01*
X125413547Y-94477683D01*
X125413548Y-94477683D01*
X125413550Y-94477685D01*
X125596046Y-94575232D01*
X125709736Y-94609719D01*
X125794065Y-94635300D01*
X125794070Y-94635301D01*
X125999997Y-94655583D01*
X126000000Y-94655583D01*
X126000003Y-94655583D01*
X126205929Y-94635301D01*
X126205934Y-94635300D01*
X126322307Y-94599999D01*
X130369196Y-94599999D01*
X130369196Y-94600000D01*
X130390281Y-94733127D01*
X130390282Y-94733129D01*
X130451470Y-94853217D01*
X130451472Y-94853220D01*
X130546780Y-94948528D01*
X130546782Y-94948529D01*
X130655559Y-95003954D01*
X130666874Y-95009719D01*
X130800000Y-95030804D01*
X130933126Y-95009719D01*
X131053220Y-94948528D01*
X131148528Y-94853220D01*
X131209719Y-94733126D01*
X131230804Y-94600000D01*
X131230803Y-94599996D01*
X131211431Y-94477685D01*
X131209719Y-94466874D01*
X131148528Y-94346780D01*
X131053220Y-94251472D01*
X131053217Y-94251470D01*
X130952200Y-94199999D01*
X140369196Y-94199999D01*
X140369196Y-94200000D01*
X140390281Y-94333127D01*
X140390282Y-94333129D01*
X140451470Y-94453217D01*
X140451472Y-94453220D01*
X140546780Y-94548528D01*
X140546782Y-94548529D01*
X140666867Y-94609716D01*
X140666869Y-94609716D01*
X140666874Y-94609719D01*
X140702365Y-94615340D01*
X140756882Y-94643117D01*
X140784659Y-94697632D01*
X140790281Y-94733128D01*
X140790282Y-94733129D01*
X140851470Y-94853217D01*
X140851472Y-94853220D01*
X140946780Y-94948528D01*
X140946782Y-94948529D01*
X141066867Y-95009716D01*
X141066869Y-95009716D01*
X141066874Y-95009719D01*
X141102365Y-95015340D01*
X141156882Y-95043117D01*
X141184659Y-95097632D01*
X141190281Y-95133128D01*
X141190282Y-95133129D01*
X141251470Y-95253217D01*
X141251472Y-95253220D01*
X141346780Y-95348528D01*
X141466874Y-95409719D01*
X141600000Y-95430804D01*
X141733126Y-95409719D01*
X141853220Y-95348528D01*
X141948528Y-95253220D01*
X142009719Y-95133126D01*
X142030804Y-95000000D01*
X142009719Y-94866874D01*
X141978668Y-94805934D01*
X141948529Y-94746782D01*
X141948528Y-94746780D01*
X141921744Y-94719996D01*
X161064417Y-94719996D01*
X161064417Y-94720003D01*
X161084698Y-94925929D01*
X161084699Y-94925934D01*
X161144768Y-95123954D01*
X161242316Y-95306452D01*
X161327064Y-95409718D01*
X161373590Y-95466410D01*
X161373595Y-95466414D01*
X161533547Y-95597683D01*
X161533548Y-95597683D01*
X161533550Y-95597685D01*
X161716046Y-95695232D01*
X161824234Y-95728050D01*
X161914065Y-95755300D01*
X161914070Y-95755301D01*
X162119997Y-95775583D01*
X162120000Y-95775583D01*
X162120003Y-95775583D01*
X162325929Y-95755301D01*
X162325934Y-95755300D01*
X162326742Y-95755055D01*
X162523954Y-95695232D01*
X162706450Y-95597685D01*
X162866410Y-95466410D01*
X162920911Y-95400000D01*
X163994508Y-95400000D01*
X164005556Y-95469758D01*
X164014354Y-95525303D01*
X164014355Y-95525307D01*
X164049636Y-95594548D01*
X164071950Y-95638342D01*
X164161658Y-95728050D01*
X164161660Y-95728051D01*
X164163605Y-95729996D01*
X164191382Y-95784513D01*
X164181811Y-95844945D01*
X164163605Y-95870004D01*
X164161659Y-95871948D01*
X164161658Y-95871950D01*
X164116738Y-95916870D01*
X164071949Y-95961659D01*
X164014355Y-96074692D01*
X164014354Y-96074696D01*
X163994508Y-96199999D01*
X163994508Y-96200000D01*
X164014354Y-96325303D01*
X164014355Y-96325307D01*
X164051664Y-96398529D01*
X164071950Y-96438342D01*
X164161658Y-96528050D01*
X164274696Y-96585646D01*
X164400000Y-96605492D01*
X164525304Y-96585646D01*
X164638342Y-96528050D01*
X164728050Y-96438342D01*
X164785646Y-96325304D01*
X164805492Y-96200000D01*
X164785646Y-96074696D01*
X164728050Y-95961658D01*
X164638342Y-95871950D01*
X164638339Y-95871948D01*
X164636395Y-95870004D01*
X164608618Y-95815487D01*
X164618189Y-95755055D01*
X164636395Y-95729996D01*
X164638339Y-95728051D01*
X164638342Y-95728050D01*
X164728050Y-95638342D01*
X164785646Y-95525304D01*
X164805492Y-95400000D01*
X164785646Y-95274696D01*
X164728050Y-95161658D01*
X164638342Y-95071950D01*
X164634406Y-95069944D01*
X164525307Y-95014355D01*
X164525304Y-95014354D01*
X164400000Y-94994508D01*
X164274696Y-95014354D01*
X164274692Y-95014355D01*
X164161659Y-95071949D01*
X164071949Y-95161659D01*
X164014355Y-95274692D01*
X164014354Y-95274696D01*
X163994508Y-95400000D01*
X162920911Y-95400000D01*
X162997685Y-95306450D01*
X163095232Y-95123954D01*
X163155300Y-94925934D01*
X163155301Y-94925929D01*
X163175583Y-94720003D01*
X163175583Y-94719996D01*
X163155301Y-94514070D01*
X163155300Y-94514065D01*
X163118899Y-94394066D01*
X163095232Y-94316046D01*
X162997685Y-94133550D01*
X162972092Y-94102365D01*
X162866414Y-93973595D01*
X162866410Y-93973590D01*
X162833742Y-93946780D01*
X162706452Y-93842316D01*
X162523954Y-93744768D01*
X162476105Y-93730253D01*
X177209500Y-93730253D01*
X177209500Y-95469746D01*
X177209501Y-95469758D01*
X177221132Y-95528227D01*
X177221134Y-95528233D01*
X177265445Y-95594548D01*
X177265448Y-95594552D01*
X177331769Y-95638867D01*
X177376231Y-95647711D01*
X177390241Y-95650498D01*
X177390246Y-95650498D01*
X177390252Y-95650500D01*
X177390253Y-95650500D01*
X179129747Y-95650500D01*
X179129748Y-95650500D01*
X179188231Y-95638867D01*
X179254552Y-95594552D01*
X179298867Y-95528231D01*
X179310500Y-95469748D01*
X179310500Y-94599996D01*
X179744417Y-94599996D01*
X179744417Y-94600003D01*
X179764698Y-94805929D01*
X179764699Y-94805934D01*
X179824768Y-95003954D01*
X179922316Y-95186452D01*
X180053585Y-95346404D01*
X180053590Y-95346410D01*
X180053595Y-95346414D01*
X180213547Y-95477683D01*
X180213548Y-95477683D01*
X180213550Y-95477685D01*
X180396046Y-95575232D01*
X180533997Y-95617078D01*
X180594065Y-95635300D01*
X180594070Y-95635301D01*
X180799997Y-95655583D01*
X180800000Y-95655583D01*
X180800003Y-95655583D01*
X181005929Y-95635301D01*
X181005934Y-95635300D01*
X181059022Y-95619196D01*
X181203954Y-95575232D01*
X181386450Y-95477685D01*
X181546410Y-95346410D01*
X181677685Y-95186450D01*
X181775232Y-95003954D01*
X181835300Y-94805934D01*
X181835301Y-94805929D01*
X181855583Y-94600003D01*
X181855583Y-94599996D01*
X181835301Y-94394070D01*
X181835300Y-94394065D01*
X181776431Y-94200000D01*
X181775232Y-94196046D01*
X181677685Y-94013550D01*
X181546410Y-93853590D01*
X181469269Y-93790282D01*
X181386452Y-93722316D01*
X181203954Y-93624768D01*
X181005934Y-93564699D01*
X181005929Y-93564698D01*
X180800003Y-93544417D01*
X180799997Y-93544417D01*
X180594070Y-93564698D01*
X180594065Y-93564699D01*
X180396045Y-93624768D01*
X180213547Y-93722316D01*
X180053595Y-93853585D01*
X180053585Y-93853595D01*
X179922316Y-94013547D01*
X179824768Y-94196045D01*
X179764699Y-94394065D01*
X179764698Y-94394070D01*
X179744417Y-94599996D01*
X179310500Y-94599996D01*
X179310500Y-93730252D01*
X179308921Y-93722316D01*
X179301439Y-93684699D01*
X179298867Y-93671769D01*
X179254552Y-93605448D01*
X179254548Y-93605445D01*
X179188233Y-93561134D01*
X179188231Y-93561133D01*
X179188228Y-93561132D01*
X179188227Y-93561132D01*
X179129758Y-93549501D01*
X179129748Y-93549500D01*
X177390252Y-93549500D01*
X177390251Y-93549500D01*
X177390241Y-93549501D01*
X177331772Y-93561132D01*
X177331766Y-93561134D01*
X177265451Y-93605445D01*
X177265445Y-93605451D01*
X177221134Y-93671766D01*
X177221132Y-93671772D01*
X177209501Y-93730241D01*
X177209500Y-93730253D01*
X162476105Y-93730253D01*
X162325934Y-93684699D01*
X162325929Y-93684698D01*
X162120003Y-93664417D01*
X162119997Y-93664417D01*
X161914070Y-93684698D01*
X161914065Y-93684699D01*
X161716045Y-93744768D01*
X161533547Y-93842316D01*
X161373595Y-93973585D01*
X161373585Y-93973595D01*
X161242316Y-94133547D01*
X161144768Y-94316045D01*
X161084699Y-94514065D01*
X161084698Y-94514070D01*
X161064417Y-94719996D01*
X141921744Y-94719996D01*
X141853220Y-94651472D01*
X141853217Y-94651470D01*
X141733129Y-94590282D01*
X141733128Y-94590281D01*
X141697632Y-94584659D01*
X141643116Y-94556880D01*
X141615340Y-94502365D01*
X141611431Y-94477685D01*
X141609719Y-94466874D01*
X141609716Y-94466869D01*
X141609716Y-94466867D01*
X141548529Y-94346782D01*
X141548528Y-94346780D01*
X141453220Y-94251472D01*
X141453217Y-94251470D01*
X141333129Y-94190282D01*
X141333128Y-94190281D01*
X141297632Y-94184659D01*
X141243116Y-94156880D01*
X141215340Y-94102365D01*
X141209719Y-94066874D01*
X141209716Y-94066869D01*
X141209716Y-94066867D01*
X141148529Y-93946782D01*
X141148528Y-93946780D01*
X141053220Y-93851472D01*
X141053217Y-93851470D01*
X140933129Y-93790282D01*
X140933127Y-93790281D01*
X140800000Y-93769196D01*
X140666872Y-93790281D01*
X140666870Y-93790282D01*
X140546782Y-93851470D01*
X140451470Y-93946782D01*
X140390282Y-94066870D01*
X140390281Y-94066872D01*
X140369196Y-94199999D01*
X130952200Y-94199999D01*
X130933129Y-94190282D01*
X130933127Y-94190281D01*
X130800000Y-94169196D01*
X130666872Y-94190281D01*
X130666870Y-94190282D01*
X130546782Y-94251470D01*
X130451470Y-94346782D01*
X130390282Y-94466870D01*
X130390281Y-94466872D01*
X130369196Y-94599999D01*
X126322307Y-94599999D01*
X126403954Y-94575232D01*
X126586450Y-94477685D01*
X126746410Y-94346410D01*
X126877685Y-94186450D01*
X126975232Y-94003954D01*
X127035300Y-93805934D01*
X127035301Y-93805929D01*
X127055583Y-93600003D01*
X127055583Y-93599996D01*
X127035301Y-93394070D01*
X127035300Y-93394065D01*
X127017078Y-93333997D01*
X126975232Y-93196046D01*
X126877685Y-93013550D01*
X126746410Y-92853590D01*
X126746404Y-92853585D01*
X126586452Y-92722316D01*
X126403954Y-92624768D01*
X126205934Y-92564699D01*
X126205929Y-92564698D01*
X126000003Y-92544417D01*
X125999997Y-92544417D01*
X125794070Y-92564698D01*
X125794065Y-92564699D01*
X125596045Y-92624768D01*
X125413547Y-92722316D01*
X125253595Y-92853585D01*
X125253585Y-92853595D01*
X125122316Y-93013547D01*
X125024768Y-93196045D01*
X124964699Y-93394065D01*
X124964698Y-93394070D01*
X124944417Y-93599996D01*
X121250500Y-93599996D01*
X121250500Y-89143709D01*
X122399500Y-89143709D01*
X122399500Y-89356290D01*
X122432752Y-89566238D01*
X122498443Y-89768412D01*
X122594948Y-89957815D01*
X122594950Y-89957819D01*
X122719891Y-90129786D01*
X122719893Y-90129788D01*
X122719896Y-90129792D01*
X122870208Y-90280104D01*
X122870211Y-90280106D01*
X122870213Y-90280108D01*
X123042180Y-90405049D01*
X123042184Y-90405051D01*
X123231588Y-90501557D01*
X123433757Y-90567246D01*
X123433758Y-90567246D01*
X123433761Y-90567247D01*
X123643710Y-90600500D01*
X123643713Y-90600500D01*
X123856290Y-90600500D01*
X124066238Y-90567247D01*
X124066239Y-90567246D01*
X124066243Y-90567246D01*
X124268412Y-90501557D01*
X124457816Y-90405051D01*
X124629792Y-90280104D01*
X124780104Y-90129792D01*
X124863402Y-90015141D01*
X124905049Y-89957819D01*
X124905051Y-89957816D01*
X125001557Y-89768412D01*
X125067246Y-89566243D01*
X125067247Y-89566238D01*
X125100500Y-89356290D01*
X125100500Y-89143709D01*
X125067247Y-88933761D01*
X125067246Y-88933757D01*
X125023784Y-88799996D01*
X127744417Y-88799996D01*
X127744417Y-88800003D01*
X127764698Y-89005929D01*
X127764699Y-89005934D01*
X127824768Y-89203954D01*
X127922316Y-89386452D01*
X128053585Y-89546404D01*
X128053590Y-89546410D01*
X128053595Y-89546414D01*
X128213547Y-89677683D01*
X128213548Y-89677683D01*
X128213550Y-89677685D01*
X128396046Y-89775232D01*
X128533997Y-89817078D01*
X128594065Y-89835300D01*
X128594070Y-89835301D01*
X128799997Y-89855583D01*
X128800000Y-89855583D01*
X128800003Y-89855583D01*
X129005929Y-89835301D01*
X129005934Y-89835300D01*
X129203954Y-89775232D01*
X129386450Y-89677685D01*
X129546410Y-89546410D01*
X129677685Y-89386450D01*
X129775232Y-89203954D01*
X129796263Y-89134622D01*
X129831248Y-89084426D01*
X129889056Y-89064380D01*
X129947607Y-89082141D01*
X129984536Y-89130925D01*
X129990000Y-89163361D01*
X129990000Y-89697824D01*
X129989999Y-89697824D01*
X129996401Y-89757370D01*
X129996403Y-89757381D01*
X130046646Y-89892088D01*
X130046647Y-89892090D01*
X130132807Y-90007184D01*
X130132815Y-90007192D01*
X130247909Y-90093352D01*
X130247911Y-90093353D01*
X130382618Y-90143596D01*
X130382629Y-90143598D01*
X130442176Y-90150000D01*
X131089999Y-90150000D01*
X131090000Y-90149999D01*
X131090000Y-89233012D01*
X131147007Y-89265925D01*
X131274174Y-89300000D01*
X131405826Y-89300000D01*
X131532993Y-89265925D01*
X131590000Y-89233012D01*
X131590000Y-90149999D01*
X131590001Y-90150000D01*
X132237824Y-90150000D01*
X132297370Y-90143598D01*
X132297381Y-90143596D01*
X132432088Y-90093353D01*
X132432090Y-90093352D01*
X132547184Y-90007192D01*
X132547192Y-90007184D01*
X132633352Y-89892090D01*
X132633353Y-89892088D01*
X132667700Y-89799999D01*
X139369196Y-89799999D01*
X139369196Y-89800000D01*
X139390281Y-89933127D01*
X139390282Y-89933129D01*
X139451470Y-90053217D01*
X139451472Y-90053220D01*
X139546780Y-90148528D01*
X139666874Y-90209719D01*
X139800000Y-90230804D01*
X139933126Y-90209719D01*
X140053220Y-90148528D01*
X140148528Y-90053220D01*
X140209719Y-89933126D01*
X140230804Y-89800000D01*
X140209719Y-89666874D01*
X140148528Y-89546780D01*
X140053220Y-89451472D01*
X140053217Y-89451470D01*
X139933129Y-89390282D01*
X139933127Y-89390281D01*
X139800000Y-89369196D01*
X139666872Y-89390281D01*
X139666870Y-89390282D01*
X139546782Y-89451470D01*
X139451470Y-89546782D01*
X139390282Y-89666870D01*
X139390281Y-89666872D01*
X139369196Y-89799999D01*
X132667700Y-89799999D01*
X132683596Y-89757381D01*
X132683598Y-89757370D01*
X132690000Y-89697824D01*
X132690000Y-89050001D01*
X132689999Y-89050000D01*
X131773012Y-89050000D01*
X131805925Y-88992993D01*
X131840000Y-88865826D01*
X131840000Y-88734174D01*
X131805925Y-88607007D01*
X131773012Y-88550000D01*
X132689999Y-88550000D01*
X132690000Y-88549999D01*
X132690000Y-87902175D01*
X132683598Y-87842629D01*
X132683596Y-87842618D01*
X132633353Y-87707911D01*
X132633352Y-87707909D01*
X132547192Y-87592815D01*
X132547184Y-87592807D01*
X132432090Y-87506647D01*
X132432088Y-87506646D01*
X132297381Y-87456403D01*
X132297370Y-87456401D01*
X132237824Y-87450000D01*
X131590001Y-87450000D01*
X131590000Y-87450001D01*
X131590000Y-88366988D01*
X131532993Y-88334075D01*
X131405826Y-88300000D01*
X131274174Y-88300000D01*
X131147007Y-88334075D01*
X131090000Y-88366988D01*
X131090000Y-87450001D01*
X131089999Y-87450000D01*
X130442176Y-87450000D01*
X130382629Y-87456401D01*
X130382618Y-87456403D01*
X130247911Y-87506646D01*
X130247909Y-87506647D01*
X130132815Y-87592807D01*
X130132807Y-87592815D01*
X130046647Y-87707909D01*
X130046646Y-87707911D01*
X129996403Y-87842618D01*
X129996401Y-87842629D01*
X129990000Y-87902175D01*
X129990000Y-88436638D01*
X129971093Y-88494829D01*
X129921593Y-88530793D01*
X129860407Y-88530793D01*
X129810907Y-88494829D01*
X129796263Y-88465376D01*
X129776401Y-88399901D01*
X129775232Y-88396046D01*
X129677685Y-88213550D01*
X129546410Y-88053590D01*
X129479213Y-87998443D01*
X129386452Y-87922316D01*
X129203954Y-87824768D01*
X129005934Y-87764699D01*
X129005929Y-87764698D01*
X128800003Y-87744417D01*
X128799997Y-87744417D01*
X128594070Y-87764698D01*
X128594065Y-87764699D01*
X128396045Y-87824768D01*
X128213547Y-87922316D01*
X128053595Y-88053585D01*
X128053585Y-88053595D01*
X127922316Y-88213547D01*
X127824768Y-88396045D01*
X127764699Y-88594065D01*
X127764698Y-88594070D01*
X127744417Y-88799996D01*
X125023784Y-88799996D01*
X125001557Y-88731588D01*
X124905051Y-88542184D01*
X124905049Y-88542180D01*
X124780108Y-88370213D01*
X124780106Y-88370211D01*
X124780104Y-88370208D01*
X124629792Y-88219896D01*
X124629788Y-88219893D01*
X124629786Y-88219891D01*
X124457819Y-88094950D01*
X124457815Y-88094948D01*
X124268412Y-87998443D01*
X124066238Y-87932752D01*
X123856290Y-87899500D01*
X123856287Y-87899500D01*
X123643713Y-87899500D01*
X123643710Y-87899500D01*
X123433761Y-87932752D01*
X123231587Y-87998443D01*
X123042184Y-88094948D01*
X123042180Y-88094950D01*
X122870213Y-88219891D01*
X122719891Y-88370213D01*
X122594950Y-88542180D01*
X122594948Y-88542184D01*
X122498443Y-88731587D01*
X122432752Y-88933761D01*
X122399500Y-89143709D01*
X121250500Y-89143709D01*
X121250500Y-88253539D01*
X121250752Y-88246477D01*
X121255213Y-88184108D01*
X121265258Y-88043652D01*
X121267265Y-88029693D01*
X121309737Y-87834447D01*
X121313711Y-87820914D01*
X121383539Y-87633701D01*
X121389391Y-87620886D01*
X121485150Y-87445516D01*
X121492777Y-87433648D01*
X121612515Y-87273698D01*
X121621749Y-87263040D01*
X121763040Y-87121749D01*
X121773698Y-87112515D01*
X121933648Y-86992777D01*
X121945516Y-86985150D01*
X122120886Y-86889391D01*
X122133701Y-86883539D01*
X122320914Y-86813711D01*
X122334447Y-86809737D01*
X122529693Y-86767265D01*
X122543652Y-86765258D01*
X122723568Y-86752390D01*
X122746478Y-86750752D01*
X122753540Y-86750500D01*
X122815892Y-86750500D01*
X143951000Y-86750500D01*
X144009191Y-86769407D01*
G37*
%TD.AperFunction*%
%TD*%
%TA.AperFunction,Conductor*%
%TO.N,+3V3*%
G36*
X161331120Y-98819685D02*
G01*
X161376875Y-98872489D01*
X161386819Y-98941647D01*
X161357794Y-99005203D01*
X161347619Y-99015637D01*
X161303608Y-99055757D01*
X161180754Y-99218443D01*
X161089890Y-99400921D01*
X161089885Y-99400934D01*
X161047471Y-99549999D01*
X161047472Y-99550000D01*
X161686988Y-99550000D01*
X161654075Y-99607007D01*
X161620000Y-99734174D01*
X161620000Y-99865826D01*
X161654075Y-99992993D01*
X161686988Y-100050000D01*
X161047472Y-100050000D01*
X161089885Y-100199065D01*
X161089890Y-100199078D01*
X161180754Y-100381556D01*
X161303608Y-100544242D01*
X161454260Y-100681578D01*
X161627584Y-100788897D01*
X161817678Y-100862539D01*
X161870000Y-100872320D01*
X161870000Y-100233012D01*
X161927007Y-100265925D01*
X162054174Y-100300000D01*
X162185826Y-100300000D01*
X162312993Y-100265925D01*
X162370000Y-100233012D01*
X162370000Y-100872320D01*
X162422321Y-100862539D01*
X162612415Y-100788897D01*
X162785739Y-100681578D01*
X162936391Y-100544242D01*
X163059245Y-100381556D01*
X163150109Y-100199078D01*
X163150114Y-100199065D01*
X163192528Y-100050000D01*
X162553012Y-100050000D01*
X162585925Y-99992993D01*
X162620000Y-99865826D01*
X162620000Y-99734174D01*
X162585925Y-99607007D01*
X162553012Y-99550000D01*
X163192528Y-99550000D01*
X163192528Y-99549999D01*
X163150114Y-99400934D01*
X163150109Y-99400921D01*
X163059245Y-99218443D01*
X162936391Y-99055757D01*
X162892381Y-99015637D01*
X162856099Y-98955926D01*
X162857860Y-98886078D01*
X162897104Y-98828271D01*
X162961371Y-98800856D01*
X162975919Y-98800000D01*
X166676000Y-98800000D01*
X166743039Y-98819685D01*
X166788794Y-98872489D01*
X166800000Y-98924000D01*
X166800000Y-100494464D01*
X166780315Y-100561503D01*
X166727511Y-100607258D01*
X166658353Y-100617202D01*
X166608964Y-100598781D01*
X166589069Y-100585996D01*
X166589066Y-100585995D01*
X166589063Y-100585993D01*
X166464774Y-100549500D01*
X166464772Y-100549500D01*
X166335228Y-100549500D01*
X166335226Y-100549500D01*
X166202421Y-100588494D01*
X166201834Y-100586495D01*
X166144348Y-100594755D01*
X166080795Y-100565724D01*
X166043027Y-100506942D01*
X166039269Y-100489663D01*
X166036697Y-100471775D01*
X166005392Y-100403226D01*
X165982882Y-100353937D01*
X165898049Y-100256033D01*
X165789069Y-100185996D01*
X165789065Y-100185994D01*
X165789064Y-100185994D01*
X165664774Y-100149500D01*
X165664772Y-100149500D01*
X165535228Y-100149500D01*
X165535226Y-100149500D01*
X165410935Y-100185994D01*
X165410932Y-100185995D01*
X165410931Y-100185996D01*
X165359677Y-100218934D01*
X165301950Y-100256033D01*
X165217118Y-100353937D01*
X165217117Y-100353938D01*
X165163302Y-100471774D01*
X165144867Y-100600000D01*
X165163302Y-100728225D01*
X165166311Y-100734813D01*
X165217118Y-100846063D01*
X165301951Y-100943967D01*
X165410931Y-101014004D01*
X165535225Y-101050499D01*
X165535227Y-101050500D01*
X165535228Y-101050500D01*
X165664773Y-101050500D01*
X165664773Y-101050499D01*
X165720092Y-101034257D01*
X165797579Y-101011506D01*
X165798166Y-101013508D01*
X165855624Y-101005240D01*
X165919183Y-101034257D01*
X165956965Y-101093030D01*
X165960730Y-101110332D01*
X165963302Y-101128225D01*
X166004405Y-101218226D01*
X166017118Y-101246063D01*
X166101951Y-101343967D01*
X166210931Y-101414004D01*
X166335225Y-101450499D01*
X166335227Y-101450500D01*
X166335228Y-101450500D01*
X166464773Y-101450500D01*
X166464773Y-101450499D01*
X166589069Y-101414004D01*
X166608962Y-101401219D01*
X166675999Y-101381535D01*
X166743039Y-101401219D01*
X166788794Y-101454023D01*
X166800000Y-101505535D01*
X166800000Y-112676000D01*
X166780315Y-112743039D01*
X166727511Y-112788794D01*
X166676000Y-112800000D01*
X152324000Y-112800000D01*
X152256961Y-112780315D01*
X152211206Y-112727511D01*
X152200000Y-112676000D01*
X152200000Y-110125321D01*
X153399500Y-110125321D01*
X153399500Y-111874678D01*
X153414032Y-111947735D01*
X153414033Y-111947739D01*
X153414034Y-111947740D01*
X153469399Y-112030601D01*
X153531837Y-112072320D01*
X153552260Y-112085966D01*
X153552264Y-112085967D01*
X153625321Y-112100499D01*
X153625324Y-112100500D01*
X153625326Y-112100500D01*
X155374676Y-112100500D01*
X155374677Y-112100499D01*
X155447740Y-112085966D01*
X155530601Y-112030601D01*
X155585966Y-111947740D01*
X155600500Y-111874674D01*
X155600500Y-110749999D01*
X155967471Y-110749999D01*
X155967472Y-110750000D01*
X156606988Y-110750000D01*
X156574075Y-110807007D01*
X156540000Y-110934174D01*
X156540000Y-111065826D01*
X156574075Y-111192993D01*
X156606988Y-111250000D01*
X155967472Y-111250000D01*
X156009885Y-111399065D01*
X156009890Y-111399078D01*
X156100754Y-111581556D01*
X156223608Y-111744242D01*
X156374260Y-111881578D01*
X156547584Y-111988897D01*
X156737678Y-112062539D01*
X156790000Y-112072320D01*
X156790000Y-111433012D01*
X156847007Y-111465925D01*
X156974174Y-111500000D01*
X157105826Y-111500000D01*
X157232993Y-111465925D01*
X157290000Y-111433012D01*
X157290000Y-112072320D01*
X157342321Y-112062539D01*
X157532415Y-111988897D01*
X157705739Y-111881578D01*
X157856391Y-111744242D01*
X157979245Y-111581556D01*
X158070109Y-111399078D01*
X158070114Y-111399065D01*
X158112528Y-111250000D01*
X157473012Y-111250000D01*
X157505925Y-111192993D01*
X157540000Y-111065826D01*
X157540000Y-110934174D01*
X157505925Y-110807007D01*
X157473012Y-110750000D01*
X158112528Y-110750000D01*
X158112528Y-110749999D01*
X158070114Y-110600934D01*
X158070109Y-110600921D01*
X157979245Y-110418443D01*
X157856391Y-110255757D01*
X157705739Y-110118421D01*
X157532413Y-110011101D01*
X157342315Y-109937458D01*
X157342309Y-109937456D01*
X157290001Y-109927677D01*
X157290000Y-109927679D01*
X157290000Y-110566988D01*
X157232993Y-110534075D01*
X157105826Y-110500000D01*
X156974174Y-110500000D01*
X156847007Y-110534075D01*
X156790000Y-110566988D01*
X156790000Y-109927679D01*
X156789998Y-109927677D01*
X156737690Y-109937456D01*
X156737684Y-109937458D01*
X156547586Y-110011101D01*
X156374260Y-110118421D01*
X156223608Y-110255757D01*
X156100754Y-110418443D01*
X156009890Y-110600921D01*
X156009885Y-110600934D01*
X155967471Y-110749999D01*
X155600500Y-110749999D01*
X155600500Y-110125326D01*
X155600500Y-110125323D01*
X155600499Y-110125321D01*
X155585967Y-110052264D01*
X155585966Y-110052260D01*
X155530601Y-109969399D01*
X155447740Y-109914034D01*
X155447739Y-109914033D01*
X155447735Y-109914032D01*
X155374677Y-109899500D01*
X155374674Y-109899500D01*
X153625326Y-109899500D01*
X153625323Y-109899500D01*
X153552264Y-109914032D01*
X153552260Y-109914033D01*
X153469399Y-109969399D01*
X153414033Y-110052260D01*
X153414032Y-110052264D01*
X153399500Y-110125321D01*
X152200000Y-110125321D01*
X152200000Y-109124000D01*
X152219685Y-109056961D01*
X152272489Y-109011206D01*
X152324000Y-109000000D01*
X160000000Y-109000000D01*
X160000000Y-107535252D01*
X160019685Y-107468213D01*
X160072489Y-107422458D01*
X160141647Y-107412514D01*
X160191037Y-107430936D01*
X160200388Y-107436945D01*
X160200441Y-107436979D01*
X160331632Y-107475500D01*
X160331633Y-107475500D01*
X160468367Y-107475500D01*
X160599559Y-107436979D01*
X160622155Y-107422458D01*
X160632961Y-107415512D01*
X160700000Y-107395829D01*
X160767039Y-107415513D01*
X160800440Y-107436979D01*
X160931632Y-107475500D01*
X160931633Y-107475500D01*
X161068367Y-107475500D01*
X161199559Y-107436979D01*
X161222155Y-107422458D01*
X161232961Y-107415512D01*
X161300000Y-107395829D01*
X161367039Y-107415513D01*
X161400440Y-107436979D01*
X161531632Y-107475500D01*
X161531633Y-107475500D01*
X161668367Y-107475500D01*
X161799559Y-107436979D01*
X161822155Y-107422458D01*
X161832961Y-107415512D01*
X161900000Y-107395829D01*
X161967039Y-107415513D01*
X162000440Y-107436979D01*
X162131632Y-107475500D01*
X162131633Y-107475500D01*
X162268367Y-107475500D01*
X162399559Y-107436979D01*
X162422155Y-107422458D01*
X162432961Y-107415512D01*
X162500000Y-107395829D01*
X162567039Y-107415513D01*
X162600440Y-107436979D01*
X162731632Y-107475500D01*
X162731633Y-107475500D01*
X162868367Y-107475500D01*
X162999559Y-107436979D01*
X163022155Y-107422458D01*
X163032961Y-107415512D01*
X163100000Y-107395829D01*
X163167039Y-107415513D01*
X163200440Y-107436979D01*
X163331632Y-107475500D01*
X163331633Y-107475500D01*
X163468367Y-107475500D01*
X163599561Y-107436978D01*
X163714589Y-107363055D01*
X163804130Y-107259718D01*
X163860931Y-107135342D01*
X163880390Y-107000000D01*
X163860931Y-106864658D01*
X163809257Y-106751510D01*
X163799314Y-106682353D01*
X163809256Y-106648491D01*
X163860931Y-106535342D01*
X163880390Y-106400000D01*
X163860931Y-106264658D01*
X163848677Y-106237827D01*
X163804132Y-106140285D01*
X163804127Y-106140278D01*
X163714590Y-106036946D01*
X163714586Y-106036942D01*
X163599559Y-105963021D01*
X163468368Y-105924500D01*
X163468367Y-105924500D01*
X163331633Y-105924500D01*
X163331632Y-105924500D01*
X163200441Y-105963020D01*
X163200434Y-105963024D01*
X163167038Y-105984486D01*
X163099998Y-106004170D01*
X163032962Y-105984486D01*
X162999565Y-105963024D01*
X162999558Y-105963020D01*
X162868368Y-105924500D01*
X162868367Y-105924500D01*
X162731633Y-105924500D01*
X162731632Y-105924500D01*
X162600441Y-105963020D01*
X162600434Y-105963024D01*
X162567038Y-105984486D01*
X162499998Y-106004170D01*
X162432962Y-105984486D01*
X162399565Y-105963024D01*
X162399558Y-105963020D01*
X162268368Y-105924500D01*
X162268367Y-105924500D01*
X162131633Y-105924500D01*
X162131632Y-105924500D01*
X162000441Y-105963020D01*
X162000434Y-105963024D01*
X161967038Y-105984486D01*
X161899998Y-106004170D01*
X161832962Y-105984486D01*
X161799565Y-105963024D01*
X161799558Y-105963020D01*
X161668368Y-105924500D01*
X161668367Y-105924500D01*
X161531633Y-105924500D01*
X161531632Y-105924500D01*
X161400441Y-105963020D01*
X161400434Y-105963024D01*
X161367038Y-105984486D01*
X161299998Y-106004170D01*
X161232962Y-105984486D01*
X161199565Y-105963024D01*
X161199558Y-105963020D01*
X161068368Y-105924500D01*
X161068367Y-105924500D01*
X160931633Y-105924500D01*
X160931632Y-105924500D01*
X160800441Y-105963020D01*
X160800434Y-105963024D01*
X160767038Y-105984486D01*
X160699998Y-106004170D01*
X160632962Y-105984486D01*
X160599565Y-105963024D01*
X160599558Y-105963020D01*
X160468368Y-105924500D01*
X160468367Y-105924500D01*
X160331633Y-105924500D01*
X160331632Y-105924500D01*
X160200440Y-105963021D01*
X160200439Y-105963021D01*
X160191035Y-105969065D01*
X160123995Y-105988747D01*
X160056957Y-105969060D01*
X160011204Y-105916254D01*
X160000000Y-105864747D01*
X160000000Y-104400000D01*
X160519610Y-104400000D01*
X160539068Y-104535337D01*
X160539070Y-104535345D01*
X160595867Y-104659714D01*
X160595870Y-104659718D01*
X160647062Y-104718798D01*
X160676086Y-104782354D01*
X160666142Y-104851513D01*
X160647062Y-104881202D01*
X160595870Y-104940281D01*
X160595867Y-104940285D01*
X160539070Y-105064654D01*
X160539068Y-105064662D01*
X160519610Y-105200000D01*
X160539068Y-105335337D01*
X160539070Y-105335345D01*
X160595867Y-105459714D01*
X160595872Y-105459721D01*
X160685409Y-105563053D01*
X160685413Y-105563057D01*
X160745979Y-105601979D01*
X160800439Y-105636978D01*
X160866036Y-105656239D01*
X160931632Y-105675500D01*
X160931633Y-105675500D01*
X161068367Y-105675500D01*
X161199561Y-105636978D01*
X161314589Y-105563055D01*
X161404130Y-105459718D01*
X161460931Y-105335342D01*
X161480390Y-105200000D01*
X161460931Y-105064658D01*
X161448677Y-105037827D01*
X161404132Y-104940285D01*
X161404130Y-104940283D01*
X161404130Y-104940282D01*
X161352935Y-104881199D01*
X161323912Y-104817648D01*
X161333855Y-104748489D01*
X161352933Y-104718802D01*
X161404130Y-104659718D01*
X161460931Y-104535342D01*
X161480390Y-104400000D01*
X161460931Y-104264658D01*
X161448677Y-104237827D01*
X161404132Y-104140285D01*
X161404127Y-104140278D01*
X161314590Y-104036946D01*
X161314586Y-104036942D01*
X161199559Y-103963021D01*
X161068368Y-103924500D01*
X161068367Y-103924500D01*
X160931633Y-103924500D01*
X160931632Y-103924500D01*
X160800440Y-103963021D01*
X160685413Y-104036942D01*
X160685409Y-104036946D01*
X160595872Y-104140278D01*
X160595867Y-104140285D01*
X160539070Y-104264654D01*
X160539068Y-104264662D01*
X160519610Y-104400000D01*
X160000000Y-104400000D01*
X160000000Y-101465321D01*
X161019500Y-101465321D01*
X161019500Y-103214678D01*
X161034032Y-103287735D01*
X161034033Y-103287739D01*
X161034034Y-103287740D01*
X161089399Y-103370601D01*
X161172260Y-103425966D01*
X161172264Y-103425967D01*
X161245321Y-103440499D01*
X161245324Y-103440500D01*
X161245326Y-103440500D01*
X162994676Y-103440500D01*
X162994677Y-103440499D01*
X163067740Y-103425966D01*
X163150601Y-103370601D01*
X163205966Y-103287740D01*
X163220500Y-103214674D01*
X163220500Y-101465326D01*
X163220500Y-101465323D01*
X163220499Y-101465321D01*
X163205967Y-101392264D01*
X163205966Y-101392260D01*
X163173698Y-101343967D01*
X163150601Y-101309399D01*
X163067740Y-101254034D01*
X163067739Y-101254033D01*
X163067735Y-101254032D01*
X162994677Y-101239500D01*
X162994674Y-101239500D01*
X161245326Y-101239500D01*
X161245323Y-101239500D01*
X161172264Y-101254032D01*
X161172260Y-101254033D01*
X161089399Y-101309399D01*
X161034033Y-101392260D01*
X161034032Y-101392264D01*
X161019500Y-101465321D01*
X160000000Y-101465321D01*
X160000000Y-98924000D01*
X160019685Y-98856961D01*
X160072489Y-98811206D01*
X160124000Y-98800000D01*
X161264081Y-98800000D01*
X161331120Y-98819685D01*
G37*
%TD.AperFunction*%
%TD*%
M02*
