%TF.GenerationSoftware,KiCad,Pcbnew,8.0.6*%
%TF.CreationDate,2024-12-20T17:35:20-08:00*%
%TF.ProjectId,roomba,726f6f6d-6261-42e6-9b69-6361645f7063,rev?*%
%TF.SameCoordinates,Original*%
%TF.FileFunction,Legend,Top*%
%TF.FilePolarity,Positive*%
%FSLAX46Y46*%
G04 Gerber Fmt 4.6, Leading zero omitted, Abs format (unit mm)*
G04 Created by KiCad (PCBNEW 8.0.6) date 2024-12-20 17:35:20*
%MOMM*%
%LPD*%
G01*
G04 APERTURE LIST*
%ADD10C,0.300000*%
%ADD11C,0.100000*%
%ADD12C,0.120000*%
%ADD13C,0.200000*%
%ADD14C,0.127000*%
G04 APERTURE END LIST*
D10*
X146983082Y-102800828D02*
X146983082Y-103872257D01*
X146983082Y-103872257D02*
X146911653Y-104086542D01*
X146911653Y-104086542D02*
X146768796Y-104229400D01*
X146768796Y-104229400D02*
X146554510Y-104300828D01*
X146554510Y-104300828D02*
X146411653Y-104300828D01*
X148411653Y-104300828D02*
X147697367Y-104300828D01*
X147697367Y-104300828D02*
X147697367Y-102800828D01*
X149768796Y-104157971D02*
X149697368Y-104229400D01*
X149697368Y-104229400D02*
X149483082Y-104300828D01*
X149483082Y-104300828D02*
X149340225Y-104300828D01*
X149340225Y-104300828D02*
X149125939Y-104229400D01*
X149125939Y-104229400D02*
X148983082Y-104086542D01*
X148983082Y-104086542D02*
X148911653Y-103943685D01*
X148911653Y-103943685D02*
X148840225Y-103657971D01*
X148840225Y-103657971D02*
X148840225Y-103443685D01*
X148840225Y-103443685D02*
X148911653Y-103157971D01*
X148911653Y-103157971D02*
X148983082Y-103015114D01*
X148983082Y-103015114D02*
X149125939Y-102872257D01*
X149125939Y-102872257D02*
X149340225Y-102800828D01*
X149340225Y-102800828D02*
X149483082Y-102800828D01*
X149483082Y-102800828D02*
X149697368Y-102872257D01*
X149697368Y-102872257D02*
X149768796Y-102943685D01*
X150840225Y-102800828D02*
X150840225Y-103872257D01*
X150840225Y-103872257D02*
X150768796Y-104086542D01*
X150768796Y-104086542D02*
X150625939Y-104229400D01*
X150625939Y-104229400D02*
X150411653Y-104300828D01*
X150411653Y-104300828D02*
X150268796Y-104300828D01*
X152268796Y-104300828D02*
X151554510Y-104300828D01*
X151554510Y-104300828D02*
X151554510Y-102800828D01*
X153625939Y-104157971D02*
X153554511Y-104229400D01*
X153554511Y-104229400D02*
X153340225Y-104300828D01*
X153340225Y-104300828D02*
X153197368Y-104300828D01*
X153197368Y-104300828D02*
X152983082Y-104229400D01*
X152983082Y-104229400D02*
X152840225Y-104086542D01*
X152840225Y-104086542D02*
X152768796Y-103943685D01*
X152768796Y-103943685D02*
X152697368Y-103657971D01*
X152697368Y-103657971D02*
X152697368Y-103443685D01*
X152697368Y-103443685D02*
X152768796Y-103157971D01*
X152768796Y-103157971D02*
X152840225Y-103015114D01*
X152840225Y-103015114D02*
X152983082Y-102872257D01*
X152983082Y-102872257D02*
X153197368Y-102800828D01*
X153197368Y-102800828D02*
X153340225Y-102800828D01*
X153340225Y-102800828D02*
X153554511Y-102872257D01*
X153554511Y-102872257D02*
X153625939Y-102943685D01*
X154697368Y-102800828D02*
X154697368Y-103872257D01*
X154697368Y-103872257D02*
X154625939Y-104086542D01*
X154625939Y-104086542D02*
X154483082Y-104229400D01*
X154483082Y-104229400D02*
X154268796Y-104300828D01*
X154268796Y-104300828D02*
X154125939Y-104300828D01*
X156125939Y-104300828D02*
X155411653Y-104300828D01*
X155411653Y-104300828D02*
X155411653Y-102800828D01*
X157483082Y-104157971D02*
X157411654Y-104229400D01*
X157411654Y-104229400D02*
X157197368Y-104300828D01*
X157197368Y-104300828D02*
X157054511Y-104300828D01*
X157054511Y-104300828D02*
X156840225Y-104229400D01*
X156840225Y-104229400D02*
X156697368Y-104086542D01*
X156697368Y-104086542D02*
X156625939Y-103943685D01*
X156625939Y-103943685D02*
X156554511Y-103657971D01*
X156554511Y-103657971D02*
X156554511Y-103443685D01*
X156554511Y-103443685D02*
X156625939Y-103157971D01*
X156625939Y-103157971D02*
X156697368Y-103015114D01*
X156697368Y-103015114D02*
X156840225Y-102872257D01*
X156840225Y-102872257D02*
X157054511Y-102800828D01*
X157054511Y-102800828D02*
X157197368Y-102800828D01*
X157197368Y-102800828D02*
X157411654Y-102872257D01*
X157411654Y-102872257D02*
X157483082Y-102943685D01*
D11*
X166727580Y-88675312D02*
X167203771Y-88341979D01*
X166727580Y-88103884D02*
X167727580Y-88103884D01*
X167727580Y-88103884D02*
X167727580Y-88484836D01*
X167727580Y-88484836D02*
X167679961Y-88580074D01*
X167679961Y-88580074D02*
X167632342Y-88627693D01*
X167632342Y-88627693D02*
X167537104Y-88675312D01*
X167537104Y-88675312D02*
X167394247Y-88675312D01*
X167394247Y-88675312D02*
X167299009Y-88627693D01*
X167299009Y-88627693D02*
X167251390Y-88580074D01*
X167251390Y-88580074D02*
X167203771Y-88484836D01*
X167203771Y-88484836D02*
X167203771Y-88103884D01*
X166775200Y-89056265D02*
X166727580Y-89199122D01*
X166727580Y-89199122D02*
X166727580Y-89437217D01*
X166727580Y-89437217D02*
X166775200Y-89532455D01*
X166775200Y-89532455D02*
X166822819Y-89580074D01*
X166822819Y-89580074D02*
X166918057Y-89627693D01*
X166918057Y-89627693D02*
X167013295Y-89627693D01*
X167013295Y-89627693D02*
X167108533Y-89580074D01*
X167108533Y-89580074D02*
X167156152Y-89532455D01*
X167156152Y-89532455D02*
X167203771Y-89437217D01*
X167203771Y-89437217D02*
X167251390Y-89246741D01*
X167251390Y-89246741D02*
X167299009Y-89151503D01*
X167299009Y-89151503D02*
X167346628Y-89103884D01*
X167346628Y-89103884D02*
X167441866Y-89056265D01*
X167441866Y-89056265D02*
X167537104Y-89056265D01*
X167537104Y-89056265D02*
X167632342Y-89103884D01*
X167632342Y-89103884D02*
X167679961Y-89151503D01*
X167679961Y-89151503D02*
X167727580Y-89246741D01*
X167727580Y-89246741D02*
X167727580Y-89484836D01*
X167727580Y-89484836D02*
X167679961Y-89627693D01*
X167727580Y-89913408D02*
X167727580Y-90484836D01*
X166727580Y-90199122D02*
X167727580Y-90199122D01*
X135948609Y-90362782D02*
X135996228Y-90219925D01*
X135996228Y-90219925D02*
X136043847Y-90172306D01*
X136043847Y-90172306D02*
X136139085Y-90124687D01*
X136139085Y-90124687D02*
X136281942Y-90124687D01*
X136281942Y-90124687D02*
X136377180Y-90172306D01*
X136377180Y-90172306D02*
X136424800Y-90219925D01*
X136424800Y-90219925D02*
X136472419Y-90315163D01*
X136472419Y-90315163D02*
X136472419Y-90696115D01*
X136472419Y-90696115D02*
X135472419Y-90696115D01*
X135472419Y-90696115D02*
X135472419Y-90362782D01*
X135472419Y-90362782D02*
X135520038Y-90267544D01*
X135520038Y-90267544D02*
X135567657Y-90219925D01*
X135567657Y-90219925D02*
X135662895Y-90172306D01*
X135662895Y-90172306D02*
X135758133Y-90172306D01*
X135758133Y-90172306D02*
X135853371Y-90219925D01*
X135853371Y-90219925D02*
X135900990Y-90267544D01*
X135900990Y-90267544D02*
X135948609Y-90362782D01*
X135948609Y-90362782D02*
X135948609Y-90696115D01*
X135472419Y-89505639D02*
X135472419Y-89315163D01*
X135472419Y-89315163D02*
X135520038Y-89219925D01*
X135520038Y-89219925D02*
X135615276Y-89124687D01*
X135615276Y-89124687D02*
X135805752Y-89077068D01*
X135805752Y-89077068D02*
X136139085Y-89077068D01*
X136139085Y-89077068D02*
X136329561Y-89124687D01*
X136329561Y-89124687D02*
X136424800Y-89219925D01*
X136424800Y-89219925D02*
X136472419Y-89315163D01*
X136472419Y-89315163D02*
X136472419Y-89505639D01*
X136472419Y-89505639D02*
X136424800Y-89600877D01*
X136424800Y-89600877D02*
X136329561Y-89696115D01*
X136329561Y-89696115D02*
X136139085Y-89743734D01*
X136139085Y-89743734D02*
X135805752Y-89743734D01*
X135805752Y-89743734D02*
X135615276Y-89696115D01*
X135615276Y-89696115D02*
X135520038Y-89600877D01*
X135520038Y-89600877D02*
X135472419Y-89505639D01*
X135472419Y-88458020D02*
X135472419Y-88267544D01*
X135472419Y-88267544D02*
X135520038Y-88172306D01*
X135520038Y-88172306D02*
X135615276Y-88077068D01*
X135615276Y-88077068D02*
X135805752Y-88029449D01*
X135805752Y-88029449D02*
X136139085Y-88029449D01*
X136139085Y-88029449D02*
X136329561Y-88077068D01*
X136329561Y-88077068D02*
X136424800Y-88172306D01*
X136424800Y-88172306D02*
X136472419Y-88267544D01*
X136472419Y-88267544D02*
X136472419Y-88458020D01*
X136472419Y-88458020D02*
X136424800Y-88553258D01*
X136424800Y-88553258D02*
X136329561Y-88648496D01*
X136329561Y-88648496D02*
X136139085Y-88696115D01*
X136139085Y-88696115D02*
X135805752Y-88696115D01*
X135805752Y-88696115D02*
X135615276Y-88648496D01*
X135615276Y-88648496D02*
X135520038Y-88553258D01*
X135520038Y-88553258D02*
X135472419Y-88458020D01*
X135472419Y-87743734D02*
X135472419Y-87172306D01*
X136472419Y-87458020D02*
X135472419Y-87458020D01*
D10*
X174772257Y-100659774D02*
X174700828Y-100802632D01*
X174700828Y-100802632D02*
X174700828Y-101016917D01*
X174700828Y-101016917D02*
X174772257Y-101231203D01*
X174772257Y-101231203D02*
X174915114Y-101374060D01*
X174915114Y-101374060D02*
X175057971Y-101445489D01*
X175057971Y-101445489D02*
X175343685Y-101516917D01*
X175343685Y-101516917D02*
X175557971Y-101516917D01*
X175557971Y-101516917D02*
X175843685Y-101445489D01*
X175843685Y-101445489D02*
X175986542Y-101374060D01*
X175986542Y-101374060D02*
X176129400Y-101231203D01*
X176129400Y-101231203D02*
X176200828Y-101016917D01*
X176200828Y-101016917D02*
X176200828Y-100874060D01*
X176200828Y-100874060D02*
X176129400Y-100659774D01*
X176129400Y-100659774D02*
X176057971Y-100588346D01*
X176057971Y-100588346D02*
X175557971Y-100588346D01*
X175557971Y-100588346D02*
X175557971Y-100874060D01*
X176200828Y-99945489D02*
X174700828Y-99945489D01*
X174700828Y-99945489D02*
X176200828Y-99088346D01*
X176200828Y-99088346D02*
X174700828Y-99088346D01*
X176200828Y-98374060D02*
X174700828Y-98374060D01*
X174700828Y-98374060D02*
X174700828Y-98016917D01*
X174700828Y-98016917D02*
X174772257Y-97802631D01*
X174772257Y-97802631D02*
X174915114Y-97659774D01*
X174915114Y-97659774D02*
X175057971Y-97588345D01*
X175057971Y-97588345D02*
X175343685Y-97516917D01*
X175343685Y-97516917D02*
X175557971Y-97516917D01*
X175557971Y-97516917D02*
X175843685Y-97588345D01*
X175843685Y-97588345D02*
X175986542Y-97659774D01*
X175986542Y-97659774D02*
X176129400Y-97802631D01*
X176129400Y-97802631D02*
X176200828Y-98016917D01*
X176200828Y-98016917D02*
X176200828Y-98374060D01*
X129227742Y-97340225D02*
X129299171Y-97197368D01*
X129299171Y-97197368D02*
X129299171Y-96983082D01*
X129299171Y-96983082D02*
X129227742Y-96768796D01*
X129227742Y-96768796D02*
X129084885Y-96625939D01*
X129084885Y-96625939D02*
X128942028Y-96554510D01*
X128942028Y-96554510D02*
X128656314Y-96483082D01*
X128656314Y-96483082D02*
X128442028Y-96483082D01*
X128442028Y-96483082D02*
X128156314Y-96554510D01*
X128156314Y-96554510D02*
X128013457Y-96625939D01*
X128013457Y-96625939D02*
X127870600Y-96768796D01*
X127870600Y-96768796D02*
X127799171Y-96983082D01*
X127799171Y-96983082D02*
X127799171Y-97125939D01*
X127799171Y-97125939D02*
X127870600Y-97340225D01*
X127870600Y-97340225D02*
X127942028Y-97411653D01*
X127942028Y-97411653D02*
X128442028Y-97411653D01*
X128442028Y-97411653D02*
X128442028Y-97125939D01*
X127799171Y-98054510D02*
X129299171Y-98054510D01*
X129299171Y-98054510D02*
X127799171Y-98911653D01*
X127799171Y-98911653D02*
X129299171Y-98911653D01*
X127799171Y-99625939D02*
X129299171Y-99625939D01*
X129299171Y-99625939D02*
X129299171Y-99983082D01*
X129299171Y-99983082D02*
X129227742Y-100197368D01*
X129227742Y-100197368D02*
X129084885Y-100340225D01*
X129084885Y-100340225D02*
X128942028Y-100411654D01*
X128942028Y-100411654D02*
X128656314Y-100483082D01*
X128656314Y-100483082D02*
X128442028Y-100483082D01*
X128442028Y-100483082D02*
X128156314Y-100411654D01*
X128156314Y-100411654D02*
X128013457Y-100340225D01*
X128013457Y-100340225D02*
X127870600Y-100197368D01*
X127870600Y-100197368D02*
X127799171Y-99983082D01*
X127799171Y-99983082D02*
X127799171Y-99625939D01*
X132459774Y-92227742D02*
X132602632Y-92299171D01*
X132602632Y-92299171D02*
X132816917Y-92299171D01*
X132816917Y-92299171D02*
X133031203Y-92227742D01*
X133031203Y-92227742D02*
X133174060Y-92084885D01*
X133174060Y-92084885D02*
X133245489Y-91942028D01*
X133245489Y-91942028D02*
X133316917Y-91656314D01*
X133316917Y-91656314D02*
X133316917Y-91442028D01*
X133316917Y-91442028D02*
X133245489Y-91156314D01*
X133245489Y-91156314D02*
X133174060Y-91013457D01*
X133174060Y-91013457D02*
X133031203Y-90870600D01*
X133031203Y-90870600D02*
X132816917Y-90799171D01*
X132816917Y-90799171D02*
X132674060Y-90799171D01*
X132674060Y-90799171D02*
X132459774Y-90870600D01*
X132459774Y-90870600D02*
X132388346Y-90942028D01*
X132388346Y-90942028D02*
X132388346Y-91442028D01*
X132388346Y-91442028D02*
X132674060Y-91442028D01*
X131745489Y-90799171D02*
X131745489Y-92299171D01*
X131745489Y-92299171D02*
X130888346Y-90799171D01*
X130888346Y-90799171D02*
X130888346Y-92299171D01*
X130174060Y-90799171D02*
X130174060Y-92299171D01*
X130174060Y-92299171D02*
X129816917Y-92299171D01*
X129816917Y-92299171D02*
X129602631Y-92227742D01*
X129602631Y-92227742D02*
X129459774Y-92084885D01*
X129459774Y-92084885D02*
X129388345Y-91942028D01*
X129388345Y-91942028D02*
X129316917Y-91656314D01*
X129316917Y-91656314D02*
X129316917Y-91442028D01*
X129316917Y-91442028D02*
X129388345Y-91156314D01*
X129388345Y-91156314D02*
X129459774Y-91013457D01*
X129459774Y-91013457D02*
X129602631Y-90870600D01*
X129602631Y-90870600D02*
X129816917Y-90799171D01*
X129816917Y-90799171D02*
X130174060Y-90799171D01*
X170154510Y-90400828D02*
X170154510Y-88900828D01*
X170154510Y-88900828D02*
X170725939Y-88900828D01*
X170725939Y-88900828D02*
X170868796Y-88972257D01*
X170868796Y-88972257D02*
X170940225Y-89043685D01*
X170940225Y-89043685D02*
X171011653Y-89186542D01*
X171011653Y-89186542D02*
X171011653Y-89400828D01*
X171011653Y-89400828D02*
X170940225Y-89543685D01*
X170940225Y-89543685D02*
X170868796Y-89615114D01*
X170868796Y-89615114D02*
X170725939Y-89686542D01*
X170725939Y-89686542D02*
X170154510Y-89686542D01*
X171511653Y-88900828D02*
X171868796Y-90400828D01*
X171868796Y-90400828D02*
X172154510Y-89329400D01*
X172154510Y-89329400D02*
X172440225Y-90400828D01*
X172440225Y-90400828D02*
X172797368Y-88900828D01*
X174225939Y-90400828D02*
X173725939Y-89686542D01*
X173368796Y-90400828D02*
X173368796Y-88900828D01*
X173368796Y-88900828D02*
X173940225Y-88900828D01*
X173940225Y-88900828D02*
X174083082Y-88972257D01*
X174083082Y-88972257D02*
X174154511Y-89043685D01*
X174154511Y-89043685D02*
X174225939Y-89186542D01*
X174225939Y-89186542D02*
X174225939Y-89400828D01*
X174225939Y-89400828D02*
X174154511Y-89543685D01*
X174154511Y-89543685D02*
X174083082Y-89615114D01*
X174083082Y-89615114D02*
X173940225Y-89686542D01*
X173940225Y-89686542D02*
X173368796Y-89686542D01*
D11*
X159066860Y-120072419D02*
X159257336Y-120072419D01*
X159257336Y-120072419D02*
X159352574Y-120120038D01*
X159352574Y-120120038D02*
X159447812Y-120215276D01*
X159447812Y-120215276D02*
X159495431Y-120405752D01*
X159495431Y-120405752D02*
X159495431Y-120739085D01*
X159495431Y-120739085D02*
X159447812Y-120929561D01*
X159447812Y-120929561D02*
X159352574Y-121024800D01*
X159352574Y-121024800D02*
X159257336Y-121072419D01*
X159257336Y-121072419D02*
X159066860Y-121072419D01*
X159066860Y-121072419D02*
X158971622Y-121024800D01*
X158971622Y-121024800D02*
X158876384Y-120929561D01*
X158876384Y-120929561D02*
X158828765Y-120739085D01*
X158828765Y-120739085D02*
X158828765Y-120405752D01*
X158828765Y-120405752D02*
X158876384Y-120215276D01*
X158876384Y-120215276D02*
X158971622Y-120120038D01*
X158971622Y-120120038D02*
X159066860Y-120072419D01*
X160257336Y-120548609D02*
X159924003Y-120548609D01*
X159924003Y-121072419D02*
X159924003Y-120072419D01*
X159924003Y-120072419D02*
X160400193Y-120072419D01*
X161114479Y-120548609D02*
X160781146Y-120548609D01*
X160781146Y-121072419D02*
X160781146Y-120072419D01*
X160781146Y-120072419D02*
X161257336Y-120072419D01*
X155244360Y-120122419D02*
X155434836Y-120122419D01*
X155434836Y-120122419D02*
X155530074Y-120170038D01*
X155530074Y-120170038D02*
X155625312Y-120265276D01*
X155625312Y-120265276D02*
X155672931Y-120455752D01*
X155672931Y-120455752D02*
X155672931Y-120789085D01*
X155672931Y-120789085D02*
X155625312Y-120979561D01*
X155625312Y-120979561D02*
X155530074Y-121074800D01*
X155530074Y-121074800D02*
X155434836Y-121122419D01*
X155434836Y-121122419D02*
X155244360Y-121122419D01*
X155244360Y-121122419D02*
X155149122Y-121074800D01*
X155149122Y-121074800D02*
X155053884Y-120979561D01*
X155053884Y-120979561D02*
X155006265Y-120789085D01*
X155006265Y-120789085D02*
X155006265Y-120455752D01*
X155006265Y-120455752D02*
X155053884Y-120265276D01*
X155053884Y-120265276D02*
X155149122Y-120170038D01*
X155149122Y-120170038D02*
X155244360Y-120122419D01*
X156101503Y-121122419D02*
X156101503Y-120122419D01*
X156101503Y-120122419D02*
X156672931Y-121122419D01*
X156672931Y-121122419D02*
X156672931Y-120122419D01*
D10*
X183159774Y-105627742D02*
X183302632Y-105699171D01*
X183302632Y-105699171D02*
X183516917Y-105699171D01*
X183516917Y-105699171D02*
X183731203Y-105627742D01*
X183731203Y-105627742D02*
X183874060Y-105484885D01*
X183874060Y-105484885D02*
X183945489Y-105342028D01*
X183945489Y-105342028D02*
X184016917Y-105056314D01*
X184016917Y-105056314D02*
X184016917Y-104842028D01*
X184016917Y-104842028D02*
X183945489Y-104556314D01*
X183945489Y-104556314D02*
X183874060Y-104413457D01*
X183874060Y-104413457D02*
X183731203Y-104270600D01*
X183731203Y-104270600D02*
X183516917Y-104199171D01*
X183516917Y-104199171D02*
X183374060Y-104199171D01*
X183374060Y-104199171D02*
X183159774Y-104270600D01*
X183159774Y-104270600D02*
X183088346Y-104342028D01*
X183088346Y-104342028D02*
X183088346Y-104842028D01*
X183088346Y-104842028D02*
X183374060Y-104842028D01*
X182445489Y-104199171D02*
X182445489Y-105699171D01*
X182445489Y-105699171D02*
X181588346Y-104199171D01*
X181588346Y-104199171D02*
X181588346Y-105699171D01*
X180874060Y-104199171D02*
X180874060Y-105699171D01*
X180874060Y-105699171D02*
X180516917Y-105699171D01*
X180516917Y-105699171D02*
X180302631Y-105627742D01*
X180302631Y-105627742D02*
X180159774Y-105484885D01*
X180159774Y-105484885D02*
X180088345Y-105342028D01*
X180088345Y-105342028D02*
X180016917Y-105056314D01*
X180016917Y-105056314D02*
X180016917Y-104842028D01*
X180016917Y-104842028D02*
X180088345Y-104556314D01*
X180088345Y-104556314D02*
X180159774Y-104413457D01*
X180159774Y-104413457D02*
X180302631Y-104270600D01*
X180302631Y-104270600D02*
X180516917Y-104199171D01*
X180516917Y-104199171D02*
X180874060Y-104199171D01*
D12*
%TO.C,D5*%
X152810000Y-120860000D02*
X152810000Y-119640000D01*
X152810000Y-120860000D02*
X151500000Y-120860000D01*
X152810000Y-119640000D02*
X151500000Y-119640000D01*
%TO.C,R16*%
X160987258Y-117772500D02*
X160512742Y-117772500D01*
X160987258Y-116727500D02*
X160512742Y-116727500D01*
%TO.C,L1*%
X152100000Y-108800000D02*
X151700000Y-108800000D01*
X145900000Y-108800000D02*
X146300000Y-108800000D01*
X152100000Y-115000000D02*
X152100000Y-108800000D01*
X152100000Y-115000000D02*
X151700000Y-115000000D01*
X145900000Y-115000000D02*
X145900000Y-108800000D01*
X145900000Y-115000000D02*
X146300000Y-115000000D01*
%TO.C,TP4*%
X141300000Y-113300000D02*
X142700000Y-113300000D01*
X141300000Y-114700000D02*
X141300000Y-113300000D01*
X142700000Y-113300000D02*
X142700000Y-114700000D01*
X142700000Y-114700000D02*
X141300000Y-114700000D01*
%TO.C,TP3*%
X141300000Y-111050000D02*
X142700000Y-111050000D01*
X141300000Y-112450000D02*
X141300000Y-111050000D01*
X142700000Y-111050000D02*
X142700000Y-112450000D01*
X142700000Y-112450000D02*
X141300000Y-112450000D01*
%TO.C,U3*%
X163450000Y-103670000D02*
X162120000Y-103670000D01*
X163450000Y-102340000D02*
X163450000Y-103670000D01*
X163450000Y-101070000D02*
X163450000Y-93390000D01*
X163450000Y-101070000D02*
X160790000Y-101070000D01*
X163450000Y-93390000D02*
X160790000Y-93390000D01*
X160790000Y-101070000D02*
X160790000Y-93390000D01*
%TO.C,U2*%
X134150000Y-104000000D02*
X134150000Y-110000000D01*
X126650000Y-104000000D02*
X134150000Y-104000000D01*
X125850000Y-104800000D02*
X126650000Y-104000000D01*
X134150000Y-110000000D02*
X125850000Y-110000000D01*
X125850000Y-110000000D02*
X125850000Y-104800000D01*
%TO.C,U1*%
X155562500Y-115790000D02*
X155322500Y-115460000D01*
X155802500Y-115460000D01*
X155562500Y-115790000D01*
G36*
X155562500Y-115790000D02*
G01*
X155322500Y-115460000D01*
X155802500Y-115460000D01*
X155562500Y-115790000D01*
G37*
X156862500Y-118860000D02*
X157662500Y-118860000D01*
X156862500Y-118860000D02*
X156062500Y-118860000D01*
X156862500Y-115740000D02*
X157662500Y-115740000D01*
X156862500Y-115740000D02*
X156062500Y-115740000D01*
D13*
%TO.C,SW3*%
X153420000Y-121700000D02*
G75*
G02*
X153180000Y-121700000I-120000J0D01*
G01*
X153180000Y-121700000D02*
G75*
G02*
X153420000Y-121700000I120000J0D01*
G01*
D14*
X163000000Y-125250000D02*
X162200000Y-125250000D01*
X163000000Y-121750000D02*
X163000000Y-125250000D01*
X162200000Y-121750000D02*
X163000000Y-121750000D01*
X154850000Y-121750000D02*
X154000000Y-121750000D01*
X154000000Y-125250000D02*
X154800000Y-125250000D01*
X154000000Y-121750000D02*
X154000000Y-125250000D01*
D12*
%TO.C,R15*%
X163977500Y-122512742D02*
X163977500Y-122987258D01*
X165022500Y-122512742D02*
X165022500Y-122987258D01*
%TO.C,R14*%
X140032500Y-101337742D02*
X140032500Y-101812258D01*
X138987500Y-101337742D02*
X138987500Y-101812258D01*
%TO.C,R13*%
X138122500Y-101812258D02*
X138122500Y-101337742D01*
X137077500Y-101812258D02*
X137077500Y-101337742D01*
%TO.C,R12*%
X168962742Y-99722500D02*
X169437258Y-99722500D01*
X168962742Y-98677500D02*
X169437258Y-98677500D01*
%TO.C,R11*%
X166037258Y-99722500D02*
X165562742Y-99722500D01*
X166037258Y-98677500D02*
X165562742Y-98677500D01*
%TO.C,R10*%
X165552500Y-116737258D02*
X165552500Y-116262742D01*
X164507500Y-116737258D02*
X164507500Y-116262742D01*
%TO.C,R9*%
X125977500Y-119512742D02*
X125977500Y-119987258D01*
X127022500Y-119512742D02*
X127022500Y-119987258D01*
%TO.C,R8*%
X138262742Y-117272500D02*
X138737258Y-117272500D01*
X138262742Y-116227500D02*
X138737258Y-116227500D01*
%TO.C,R7*%
X137077500Y-113437258D02*
X137077500Y-112962742D01*
X138122500Y-113437258D02*
X138122500Y-112962742D01*
%TO.C,R6*%
X162727500Y-116262742D02*
X162727500Y-116737258D01*
X163772500Y-116262742D02*
X163772500Y-116737258D01*
%TO.C,R5*%
X127562742Y-110477500D02*
X128037258Y-110477500D01*
X127562742Y-111522500D02*
X128037258Y-111522500D01*
%TO.C,R3*%
X171722500Y-92612258D02*
X171722500Y-92137742D01*
X170677500Y-92612258D02*
X170677500Y-92137742D01*
%TO.C,R2*%
X149512742Y-125533250D02*
X149987258Y-125533250D01*
X149512742Y-124488250D02*
X149987258Y-124488250D01*
%TO.C,R1*%
X138737258Y-117727500D02*
X138262742Y-117727500D01*
X138737258Y-118772500D02*
X138262742Y-118772500D01*
%TO.C,Q1*%
X134662500Y-114710000D02*
X135462500Y-114710000D01*
X134662500Y-114710000D02*
X133862500Y-114710000D01*
X134662500Y-111590000D02*
X135462500Y-111590000D01*
X134662500Y-111590000D02*
X133862500Y-111590000D01*
X136202500Y-114990000D02*
X135722500Y-114990000D01*
X135962500Y-114660000D01*
X136202500Y-114990000D01*
G36*
X136202500Y-114990000D02*
G01*
X135722500Y-114990000D01*
X135962500Y-114660000D01*
X136202500Y-114990000D01*
G37*
%TO.C,M3*%
X121870000Y-114070000D02*
X123200000Y-114070000D01*
X121870000Y-115400000D02*
X121870000Y-114070000D01*
X121870000Y-116670000D02*
X121870000Y-119270000D01*
X121870000Y-116670000D02*
X124530000Y-116670000D01*
X121870000Y-119270000D02*
X124530000Y-119270000D01*
X124530000Y-116670000D02*
X124530000Y-119270000D01*
%TO.C,M2*%
X121870000Y-110270000D02*
X121870000Y-107670000D01*
X124530000Y-107670000D02*
X121870000Y-107670000D01*
X124530000Y-110270000D02*
X121870000Y-110270000D01*
X124530000Y-110270000D02*
X124530000Y-107670000D01*
X124530000Y-111540000D02*
X124530000Y-112870000D01*
X124530000Y-112870000D02*
X123200000Y-112870000D01*
%TO.C,M1*%
X121870000Y-101270000D02*
X123200000Y-101270000D01*
X121870000Y-102600000D02*
X121870000Y-101270000D01*
X121870000Y-103870000D02*
X121870000Y-106470000D01*
X121870000Y-103870000D02*
X124530000Y-103870000D01*
X121870000Y-106470000D02*
X124530000Y-106470000D01*
X124530000Y-103870000D02*
X124530000Y-106470000D01*
%TO.C,J7*%
X155770000Y-109670000D02*
X158370000Y-109670000D01*
X153170000Y-109670000D02*
X154500000Y-109670000D01*
X153170000Y-111000000D02*
X153170000Y-109670000D01*
X158370000Y-112330000D02*
X158370000Y-109670000D01*
X155770000Y-112330000D02*
X155770000Y-109670000D01*
X155770000Y-112330000D02*
X158370000Y-112330000D01*
%TO.C,J6*%
X130070000Y-87470000D02*
X127470000Y-87470000D01*
X130070000Y-87470000D02*
X130070000Y-90130000D01*
X127470000Y-87470000D02*
X127470000Y-90130000D01*
X132670000Y-88800000D02*
X132670000Y-90130000D01*
X132670000Y-90130000D02*
X131340000Y-90130000D01*
X130070000Y-90130000D02*
X127470000Y-90130000D01*
D13*
%TO.C,J4*%
X141625000Y-118750750D02*
G75*
G02*
X141425000Y-118750750I-100000J0D01*
G01*
X141425000Y-118750750D02*
G75*
G02*
X141625000Y-118750750I100000J0D01*
G01*
X145995000Y-122990750D02*
X146555000Y-122990750D01*
X145995000Y-119830750D02*
X146555000Y-119830750D01*
X141995000Y-122990750D02*
X142555000Y-122990750D01*
X141995000Y-119830750D02*
X142555000Y-119830750D01*
D12*
%TO.C,J2*%
X127270000Y-99950000D02*
X126000000Y-99950000D01*
X127270000Y-98680000D02*
X127270000Y-99950000D01*
X124957071Y-96520000D02*
X124560000Y-96520000D01*
X124957071Y-95760000D02*
X124560000Y-95760000D01*
X124957071Y-93980000D02*
X124560000Y-93980000D01*
X124957071Y-93220000D02*
X124560000Y-93220000D01*
X124890000Y-99060000D02*
X124560000Y-99060000D01*
X124890000Y-98300000D02*
X124560000Y-98300000D01*
X124560000Y-100010000D02*
X124560000Y-92270000D01*
X124560000Y-97410000D02*
X121900000Y-97410000D01*
X124560000Y-94870000D02*
X121900000Y-94870000D01*
X124560000Y-92270000D02*
X121900000Y-92270000D01*
X121900000Y-100010000D02*
X124560000Y-100010000D01*
X121900000Y-99060000D02*
X115900000Y-99060000D01*
X121900000Y-99000000D02*
X115900000Y-99000000D01*
X121900000Y-98880000D02*
X115900000Y-98880000D01*
X121900000Y-98760000D02*
X115900000Y-98760000D01*
X121900000Y-98640000D02*
X115900000Y-98640000D01*
X121900000Y-98520000D02*
X115900000Y-98520000D01*
X121900000Y-98400000D02*
X115900000Y-98400000D01*
X121900000Y-96520000D02*
X115900000Y-96520000D01*
X121900000Y-93980000D02*
X115900000Y-93980000D01*
X121900000Y-92270000D02*
X121900000Y-100010000D01*
X115900000Y-99060000D02*
X115900000Y-98300000D01*
X115900000Y-98300000D02*
X121900000Y-98300000D01*
X115900000Y-96520000D02*
X115900000Y-95760000D01*
X115900000Y-95760000D02*
X121900000Y-95760000D01*
X115900000Y-93980000D02*
X115900000Y-93220000D01*
X115900000Y-93220000D02*
X121900000Y-93220000D01*
D13*
%TO.C,J1*%
X129725000Y-118673250D02*
G75*
G02*
X129525000Y-118673250I-100000J0D01*
G01*
X129525000Y-118673250D02*
G75*
G02*
X129725000Y-118673250I100000J0D01*
G01*
X137345000Y-127273250D02*
X137345000Y-125993250D01*
X137345000Y-122023250D02*
X137345000Y-123273250D01*
X128405000Y-125993250D02*
X128405000Y-127273250D01*
X128405000Y-122023250D02*
X128405000Y-123273250D01*
D12*
%TO.C,D10*%
X125290000Y-112150000D02*
X125290000Y-115450000D01*
X125290000Y-112150000D02*
X130800000Y-112150000D01*
X125290000Y-115450000D02*
X130800000Y-115450000D01*
%TO.C,D9*%
X172465000Y-93897500D02*
X173935000Y-93897500D01*
X173935000Y-93897500D02*
X173935000Y-91612500D01*
X172465000Y-91612500D02*
X172465000Y-93897500D01*
%TO.C,D3*%
X136500000Y-100500000D02*
X136500000Y-95450000D01*
X136050000Y-100950000D02*
X136500000Y-100500000D01*
X135700000Y-99100000D02*
X135700000Y-97300000D01*
X130300000Y-99100000D02*
X130300000Y-97300000D01*
X129500000Y-100950000D02*
X136050000Y-100950000D01*
X129500000Y-95450000D02*
X136500000Y-95450000D01*
X129500000Y-95450000D02*
X129500000Y-100950000D01*
%TO.C,C15*%
X160436920Y-110241750D02*
X160718080Y-110241750D01*
X160436920Y-111261750D02*
X160718080Y-111261750D01*
%TO.C,C14*%
X160471920Y-113841750D02*
X160753080Y-113841750D01*
X160471920Y-114861750D02*
X160753080Y-114861750D01*
%TO.C,C13*%
X151590000Y-117390580D02*
X151590000Y-117109420D01*
X152610000Y-117390580D02*
X152610000Y-117109420D01*
%TO.C,C12*%
X170510000Y-96059420D02*
X170510000Y-96340580D01*
X169490000Y-96059420D02*
X169490000Y-96340580D01*
%TO.C,C11*%
X172510000Y-96059420D02*
X172510000Y-96340580D01*
X171490000Y-96059420D02*
X171490000Y-96340580D01*
%TO.C,C10*%
X149790000Y-117390580D02*
X149790000Y-117109420D01*
X150810000Y-117390580D02*
X150810000Y-117109420D01*
%TO.C,C9*%
X160436920Y-112061750D02*
X160718080Y-112061750D01*
X160436920Y-113081750D02*
X160718080Y-113081750D01*
%TO.C,C8*%
X147990000Y-117390580D02*
X147990000Y-117109420D01*
X149010000Y-117390580D02*
X149010000Y-117109420D01*
%TO.C,C7*%
X136591233Y-105890000D02*
X136883767Y-105890000D01*
X136591233Y-106910000D02*
X136883767Y-106910000D01*
%TO.C,C6*%
X136591233Y-107690000D02*
X136883767Y-107690000D01*
X136591233Y-108710000D02*
X136883767Y-108710000D01*
%TO.C,C5*%
X157115580Y-113990000D02*
X156834420Y-113990000D01*
X157115580Y-115010000D02*
X156834420Y-115010000D01*
%TO.C,C4*%
X131991233Y-102290000D02*
X132283767Y-102290000D01*
X131991233Y-103310000D02*
X132283767Y-103310000D01*
%TO.C,C3*%
X137740580Y-91490000D02*
X137459420Y-91490000D01*
X137740580Y-92510000D02*
X137459420Y-92510000D01*
D14*
%TO.C,Accelerometer1*%
X168700000Y-97150000D02*
X168700000Y-96590000D01*
X166100000Y-96590000D02*
X166100000Y-97150000D01*
X166100000Y-94610000D02*
X166100000Y-94050000D01*
X168700000Y-94610000D02*
X168700000Y-94050000D01*
D13*
X166505000Y-97690000D02*
G75*
G02*
X166305000Y-97690000I-100000J0D01*
G01*
X166305000Y-97690000D02*
G75*
G02*
X166505000Y-97690000I100000J0D01*
G01*
D12*
%TO.C,R4*%
X165562742Y-91277500D02*
X166037258Y-91277500D01*
X165562742Y-92322500D02*
X166037258Y-92322500D01*
D13*
%TO.C,SW1*%
X161700000Y-88600000D02*
X161700000Y-89400000D01*
X162700000Y-87300000D02*
X165200000Y-87300000D01*
X162700000Y-90700000D02*
X165100000Y-90700000D01*
X166100000Y-88600000D02*
X166100000Y-89400000D01*
X162900000Y-87800000D02*
G75*
G02*
X162700000Y-87800000I-100000J0D01*
G01*
X162700000Y-87800000D02*
G75*
G02*
X162900000Y-87800000I100000J0D01*
G01*
%TO.C,SW2*%
X138700000Y-88000000D02*
G75*
G02*
X138500000Y-88000000I-100000J0D01*
G01*
X138500000Y-88000000D02*
G75*
G02*
X138700000Y-88000000I100000J0D01*
G01*
X141900000Y-88800000D02*
X141900000Y-89600000D01*
X138500000Y-90900000D02*
X140900000Y-90900000D01*
X138500000Y-87500000D02*
X141000000Y-87500000D01*
X137500000Y-88800000D02*
X137500000Y-89600000D01*
%TO.C,MCU1*%
X143400000Y-93500000D02*
G75*
G02*
X143200000Y-93500000I-100000J0D01*
G01*
X143200000Y-93500000D02*
G75*
G02*
X143400000Y-93500000I100000J0D01*
G01*
D14*
X159450000Y-107175000D02*
X144050000Y-107175000D01*
X159450000Y-86675000D02*
X159450000Y-91725000D01*
X144050000Y-91725000D02*
X144050000Y-86675000D01*
X144050000Y-86675000D02*
X159450000Y-86675000D01*
D12*
%TO.C,C1*%
X161659420Y-92310000D02*
X161940580Y-92310000D01*
X161659420Y-91290000D02*
X161940580Y-91290000D01*
%TO.C,C2*%
X141459420Y-92510000D02*
X141740580Y-92510000D01*
X141459420Y-91490000D02*
X141740580Y-91490000D01*
%TO.C,J5*%
X184960000Y-106290000D02*
X184960000Y-111710000D01*
X176240000Y-111710000D02*
X184960000Y-111710000D01*
X176240000Y-106290000D02*
X184960000Y-106290000D01*
X174540000Y-110410000D02*
X176240000Y-111710000D01*
X174540000Y-107590000D02*
X176240000Y-106290000D01*
X174540000Y-107590000D02*
X174540000Y-110410000D01*
%TO.C,Q9*%
X174095000Y-111355000D02*
X173765000Y-111115000D01*
X174095000Y-110875000D01*
X174095000Y-111355000D01*
G36*
X174095000Y-111355000D02*
G01*
X173765000Y-111115000D01*
X174095000Y-110875000D01*
X174095000Y-111355000D01*
G37*
X173135000Y-106620000D02*
X167245000Y-106620000D01*
X173135000Y-111760000D02*
X167245000Y-111760000D01*
D14*
%TO.C,J3*%
X184150000Y-125750000D02*
X182450000Y-125750000D01*
X184150000Y-123250000D02*
X184150000Y-125750000D01*
X182450000Y-127450000D02*
X172550000Y-127450000D01*
X182450000Y-125750000D02*
X182450000Y-127450000D01*
X182450000Y-123250000D02*
X184150000Y-123250000D01*
X182450000Y-118450000D02*
X182450000Y-123250000D01*
X180500000Y-112250000D02*
X179500000Y-112250000D01*
X180000000Y-111750000D02*
X180000000Y-112750000D01*
X175500000Y-112250000D02*
X174500000Y-112250000D01*
X172550000Y-127450000D02*
X172550000Y-125750000D01*
X172550000Y-125750000D02*
X170850000Y-125750000D01*
X172550000Y-123250000D02*
X172550000Y-118450000D01*
X172550000Y-118450000D02*
X182450000Y-118450000D01*
X170850000Y-125750000D02*
X170850000Y-123250000D01*
X170850000Y-123250000D02*
X172550000Y-123250000D01*
D12*
%TO.C,D2*%
X167140000Y-118710000D02*
X169860000Y-118710000D01*
X167140000Y-118710000D02*
X167140000Y-113650000D01*
X169860000Y-118710000D02*
X169860000Y-113650000D01*
%TO.C,D1*%
X169860000Y-119140000D02*
X167140000Y-119140000D01*
X169860000Y-119140000D02*
X169860000Y-124200000D01*
X167140000Y-119140000D02*
X167140000Y-124200000D01*
%TO.C,LED1*%
X176990000Y-93330000D02*
X178260000Y-93330000D01*
X176990000Y-94600000D02*
X176990000Y-93330000D01*
X179302929Y-96760000D02*
X179757071Y-96760000D01*
X179302929Y-97520000D02*
X179757071Y-97520000D01*
X179302929Y-99300000D02*
X179757071Y-99300000D01*
X179302929Y-100060000D02*
X179757071Y-100060000D01*
X179370000Y-94220000D02*
X179757071Y-94220000D01*
X179370000Y-94980000D02*
X179757071Y-94980000D01*
X181842929Y-94220000D02*
X182240000Y-94220000D01*
X181842929Y-94980000D02*
X182240000Y-94980000D01*
X181842929Y-96760000D02*
X182240000Y-96760000D01*
X181842929Y-97520000D02*
X182240000Y-97520000D01*
X181842929Y-99300000D02*
X182240000Y-99300000D01*
X181842929Y-100060000D02*
X182240000Y-100060000D01*
X182240000Y-93270000D02*
X182240000Y-101010000D01*
X182240000Y-95870000D02*
X184900000Y-95870000D01*
X182240000Y-98410000D02*
X184900000Y-98410000D01*
X182240000Y-101010000D02*
X184900000Y-101010000D01*
X184900000Y-93270000D02*
X182240000Y-93270000D01*
X184900000Y-94220000D02*
X190900000Y-94220000D01*
X184900000Y-94280000D02*
X190900000Y-94280000D01*
X184900000Y-94400000D02*
X190900000Y-94400000D01*
X184900000Y-94520000D02*
X190900000Y-94520000D01*
X184900000Y-94640000D02*
X190900000Y-94640000D01*
X184900000Y-94760000D02*
X190900000Y-94760000D01*
X184900000Y-94880000D02*
X190900000Y-94880000D01*
X184900000Y-96760000D02*
X190900000Y-96760000D01*
X184900000Y-99300000D02*
X190900000Y-99300000D01*
X184900000Y-101010000D02*
X184900000Y-93270000D01*
X190900000Y-94220000D02*
X190900000Y-94980000D01*
X190900000Y-94980000D02*
X184900000Y-94980000D01*
X190900000Y-96760000D02*
X190900000Y-97520000D01*
X190900000Y-97520000D02*
X184900000Y-97520000D01*
X190900000Y-99300000D02*
X190900000Y-100060000D01*
X190900000Y-100060000D02*
X184900000Y-100060000D01*
%TD*%
M02*
