%TF.GenerationSoftware,KiCad,Pcbnew,8.0.6*%
%TF.CreationDate,2024-12-20T17:35:20-08:00*%
%TF.ProjectId,roomba,726f6f6d-6261-42e6-9b69-6361645f7063,rev?*%
%TF.SameCoordinates,Original*%
%TF.FileFunction,Soldermask,Top*%
%TF.FilePolarity,Negative*%
%FSLAX46Y46*%
G04 Gerber Fmt 4.6, Leading zero omitted, Abs format (unit mm)*
G04 Created by KiCad (PCBNEW 8.0.6) date 2024-12-20 17:35:20*
%MOMM*%
%LPD*%
G01*
G04 APERTURE LIST*
G04 Aperture macros list*
%AMRoundRect*
0 Rectangle with rounded corners*
0 $1 Rounding radius*
0 $2 $3 $4 $5 $6 $7 $8 $9 X,Y pos of 4 corners*
0 Add a 4 corners polygon primitive as box body*
4,1,4,$2,$3,$4,$5,$6,$7,$8,$9,$2,$3,0*
0 Add four circle primitives for the rounded corners*
1,1,$1+$1,$2,$3*
1,1,$1+$1,$4,$5*
1,1,$1+$1,$6,$7*
1,1,$1+$1,$8,$9*
0 Add four rect primitives between the rounded corners*
20,1,$1+$1,$2,$3,$4,$5,0*
20,1,$1+$1,$4,$5,$6,$7,0*
20,1,$1+$1,$6,$7,$8,$9,0*
20,1,$1+$1,$8,$9,$2,$3,0*%
G04 Aperture macros list end*
%ADD10C,0.010000*%
%ADD11RoundRect,0.050000X0.150000X0.300000X-0.150000X0.300000X-0.150000X-0.300000X0.150000X-0.300000X0*%
%ADD12RoundRect,0.200000X0.200000X0.275000X-0.200000X0.275000X-0.200000X-0.275000X0.200000X-0.275000X0*%
%ADD13RoundRect,0.475000X2.075000X-0.475000X2.075000X0.475000X-2.075000X0.475000X-2.075000X-0.475000X0*%
%ADD14R,1.000000X1.000000*%
%ADD15R,1.700000X1.700000*%
%ADD16O,1.700000X1.700000*%
%ADD17R,1.500000X0.450000*%
%ADD18C,0.450000*%
%ADD19RoundRect,0.750000X-0.750000X-0.750000X0.750000X-0.750000X0.750000X0.750000X-0.750000X0.750000X0*%
%ADD20RoundRect,0.150000X-0.512500X-0.150000X0.512500X-0.150000X0.512500X0.150000X-0.512500X0.150000X0*%
%ADD21RoundRect,0.102000X0.500000X0.800000X-0.500000X0.800000X-0.500000X-0.800000X0.500000X-0.800000X0*%
%ADD22RoundRect,0.102000X-0.500000X-0.800000X0.500000X-0.800000X0.500000X0.800000X-0.500000X0.800000X0*%
%ADD23C,0.900000*%
%ADD24RoundRect,0.200000X-0.275000X0.200000X-0.275000X-0.200000X0.275000X-0.200000X0.275000X0.200000X0*%
%ADD25RoundRect,0.200000X0.275000X-0.200000X0.275000X0.200000X-0.275000X0.200000X-0.275000X-0.200000X0*%
%ADD26RoundRect,0.200000X-0.200000X-0.275000X0.200000X-0.275000X0.200000X0.275000X-0.200000X0.275000X0*%
%ADD27RoundRect,0.150000X0.512500X0.150000X-0.512500X0.150000X-0.512500X-0.150000X0.512500X-0.150000X0*%
%ADD28O,1.804000X1.304000*%
%ADD29RoundRect,0.102000X-0.150000X-0.575000X0.150000X-0.575000X0.150000X0.575000X-0.150000X0.575000X0*%
%ADD30C,0.710000*%
%ADD31RoundRect,0.301000X-0.301000X-0.701000X0.301000X-0.701000X0.301000X0.701000X-0.301000X0.701000X0*%
%ADD32O,1.204000X2.304000*%
%ADD33RoundRect,0.102000X-0.300000X-0.575000X0.300000X-0.575000X0.300000X0.575000X-0.300000X0.575000X0*%
%ADD34C,0.650000*%
%ADD35C,2.200000*%
%ADD36RoundRect,0.250000X-1.000000X-0.650000X1.000000X-0.650000X1.000000X0.650000X-1.000000X0.650000X0*%
%ADD37RoundRect,0.218750X0.256250X-0.218750X0.256250X0.218750X-0.256250X0.218750X-0.256250X-0.218750X0*%
%ADD38RoundRect,0.090000X-0.660000X-0.360000X0.660000X-0.360000X0.660000X0.360000X-0.660000X0.360000X0*%
%ADD39RoundRect,0.225000X-0.225000X-0.250000X0.225000X-0.250000X0.225000X0.250000X-0.225000X0.250000X0*%
%ADD40RoundRect,0.225000X0.250000X-0.225000X0.250000X0.225000X-0.250000X0.225000X-0.250000X-0.225000X0*%
%ADD41RoundRect,0.225000X-0.250000X0.225000X-0.250000X-0.225000X0.250000X-0.225000X0.250000X0.225000X0*%
%ADD42RoundRect,0.237500X-0.300000X-0.237500X0.300000X-0.237500X0.300000X0.237500X-0.300000X0.237500X0*%
%ADD43RoundRect,0.225000X0.225000X0.250000X-0.225000X0.250000X-0.225000X-0.250000X0.225000X-0.250000X0*%
%ADD44RoundRect,0.102000X-0.525000X-0.325000X0.525000X-0.325000X0.525000X0.325000X-0.525000X0.325000X0*%
%ADD45RoundRect,0.102000X-0.400000X-0.400000X0.400000X-0.400000X0.400000X0.400000X-0.400000X0.400000X0*%
%ADD46RoundRect,0.102000X-0.600000X-0.600000X0.600000X-0.600000X0.600000X0.600000X-0.600000X0.600000X0*%
%ADD47RoundRect,0.102000X-0.200000X-0.400000X0.200000X-0.400000X0.200000X0.400000X-0.200000X0.400000X0*%
%ADD48RoundRect,0.102000X-0.400000X-0.200000X0.400000X-0.200000X0.400000X0.200000X-0.400000X0.200000X0*%
%ADD49C,4.000000*%
%ADD50RoundRect,0.760000X-1.140000X-1.140000X1.140000X-1.140000X1.140000X1.140000X-1.140000X1.140000X0*%
%ADD51R,1.020000X0.610000*%
%ADD52R,3.810000X3.910000*%
%ADD53R,1.270000X0.610000*%
%ADD54RoundRect,0.102000X1.275000X1.275000X-1.275000X1.275000X-1.275000X-1.275000X1.275000X-1.275000X0*%
%ADD55C,1.712000*%
%ADD56C,2.754000*%
%ADD57RoundRect,0.250000X0.800000X-0.450000X0.800000X0.450000X-0.800000X0.450000X-0.800000X-0.450000X0*%
%ADD58RoundRect,0.250000X-0.800000X0.450000X-0.800000X-0.450000X0.800000X-0.450000X0.800000X0.450000X0*%
G04 APERTURE END LIST*
D10*
%TO.C,Accelerometer1*%
X166875000Y-97115000D02*
X166425000Y-97115000D01*
X166425000Y-96405000D01*
X166875000Y-96405000D01*
X166875000Y-97115000D01*
G36*
X166875000Y-97115000D02*
G01*
X166425000Y-97115000D01*
X166425000Y-96405000D01*
X166875000Y-96405000D01*
X166875000Y-97115000D01*
G37*
X167375000Y-97115000D02*
X166925000Y-97115000D01*
X166925000Y-96405000D01*
X167375000Y-96405000D01*
X167375000Y-97115000D01*
G36*
X167375000Y-97115000D02*
G01*
X166925000Y-97115000D01*
X166925000Y-96405000D01*
X167375000Y-96405000D01*
X167375000Y-97115000D01*
G37*
X167875000Y-97115000D02*
X167425000Y-97115000D01*
X167425000Y-96405000D01*
X167875000Y-96405000D01*
X167875000Y-97115000D01*
G36*
X167875000Y-97115000D02*
G01*
X167425000Y-97115000D01*
X167425000Y-96405000D01*
X167875000Y-96405000D01*
X167875000Y-97115000D01*
G37*
X168375000Y-97115000D02*
X167925000Y-97115000D01*
X167925000Y-96405000D01*
X168375000Y-96405000D01*
X168375000Y-97115000D01*
G36*
X168375000Y-97115000D02*
G01*
X167925000Y-97115000D01*
X167925000Y-96405000D01*
X168375000Y-96405000D01*
X168375000Y-97115000D01*
G37*
X166710000Y-96455000D02*
X166260000Y-96455000D01*
X166260000Y-95745000D01*
X166710000Y-95745000D01*
X166710000Y-96455000D01*
G36*
X166710000Y-96455000D02*
G01*
X166260000Y-96455000D01*
X166260000Y-95745000D01*
X166710000Y-95745000D01*
X166710000Y-96455000D01*
G37*
X168540000Y-96455000D02*
X168090000Y-96455000D01*
X168090000Y-95745000D01*
X168540000Y-95745000D01*
X168540000Y-96455000D01*
G36*
X168540000Y-96455000D02*
G01*
X168090000Y-96455000D01*
X168090000Y-95745000D01*
X168540000Y-95745000D01*
X168540000Y-96455000D01*
G37*
X166710000Y-95955000D02*
X166260000Y-95955000D01*
X166260000Y-95245000D01*
X166710000Y-95245000D01*
X166710000Y-95955000D01*
G36*
X166710000Y-95955000D02*
G01*
X166260000Y-95955000D01*
X166260000Y-95245000D01*
X166710000Y-95245000D01*
X166710000Y-95955000D01*
G37*
X168540000Y-95955000D02*
X168090000Y-95955000D01*
X168090000Y-95245000D01*
X168540000Y-95245000D01*
X168540000Y-95955000D01*
G36*
X168540000Y-95955000D02*
G01*
X168090000Y-95955000D01*
X168090000Y-95245000D01*
X168540000Y-95245000D01*
X168540000Y-95955000D01*
G37*
X166710000Y-95455000D02*
X166260000Y-95455000D01*
X166260000Y-94745000D01*
X166710000Y-94745000D01*
X166710000Y-95455000D01*
G36*
X166710000Y-95455000D02*
G01*
X166260000Y-95455000D01*
X166260000Y-94745000D01*
X166710000Y-94745000D01*
X166710000Y-95455000D01*
G37*
X168540000Y-95455000D02*
X168090000Y-95455000D01*
X168090000Y-94745000D01*
X168540000Y-94745000D01*
X168540000Y-95455000D01*
G36*
X168540000Y-95455000D02*
G01*
X168090000Y-95455000D01*
X168090000Y-94745000D01*
X168540000Y-94745000D01*
X168540000Y-95455000D01*
G37*
X166875000Y-94795000D02*
X166425000Y-94795000D01*
X166425000Y-94085000D01*
X166875000Y-94085000D01*
X166875000Y-94795000D01*
G36*
X166875000Y-94795000D02*
G01*
X166425000Y-94795000D01*
X166425000Y-94085000D01*
X166875000Y-94085000D01*
X166875000Y-94795000D01*
G37*
X167375000Y-94795000D02*
X166925000Y-94795000D01*
X166925000Y-94085000D01*
X167375000Y-94085000D01*
X167375000Y-94795000D01*
G36*
X167375000Y-94795000D02*
G01*
X166925000Y-94795000D01*
X166925000Y-94085000D01*
X167375000Y-94085000D01*
X167375000Y-94795000D01*
G37*
X167875000Y-94795000D02*
X167425000Y-94795000D01*
X167425000Y-94085000D01*
X167875000Y-94085000D01*
X167875000Y-94795000D01*
G36*
X167875000Y-94795000D02*
G01*
X167425000Y-94795000D01*
X167425000Y-94085000D01*
X167875000Y-94085000D01*
X167875000Y-94795000D01*
G37*
X168375000Y-94795000D02*
X167925000Y-94795000D01*
X167925000Y-94085000D01*
X168375000Y-94085000D01*
X168375000Y-94795000D01*
G36*
X168375000Y-94795000D02*
G01*
X167925000Y-94795000D01*
X167925000Y-94085000D01*
X168375000Y-94085000D01*
X168375000Y-94795000D01*
G37*
%TO.C,MCU1*%
X150800000Y-98500000D02*
X149400000Y-98500000D01*
X149400000Y-97750000D01*
X150050000Y-97100000D01*
X150800000Y-97100000D01*
X150800000Y-98500000D01*
G36*
X150800000Y-98500000D02*
G01*
X149400000Y-98500000D01*
X149400000Y-97750000D01*
X150050000Y-97100000D01*
X150800000Y-97100000D01*
X150800000Y-98500000D01*
G37*
%TD*%
D11*
%TO.C,D5*%
X152350000Y-120250000D03*
X151650000Y-120250000D03*
%TD*%
D12*
%TO.C,R16*%
X161575000Y-117250000D03*
X159925000Y-117250000D03*
%TD*%
D13*
%TO.C,L1*%
X149000000Y-109800000D03*
X149000000Y-114000000D03*
%TD*%
D14*
%TO.C,TP4*%
X142000000Y-114000000D03*
%TD*%
%TO.C,TP3*%
X142000000Y-111750000D03*
%TD*%
D15*
%TO.C,U3*%
X162120000Y-102340000D03*
D16*
X162120000Y-99800000D03*
X162120000Y-97260000D03*
X162120000Y-94720000D03*
%TD*%
D17*
%TO.C,U2*%
X127100000Y-104725000D03*
X127100000Y-105375000D03*
X127100000Y-106025000D03*
X127100000Y-106675000D03*
X127100000Y-107325000D03*
X127100000Y-107975000D03*
X127100000Y-108625000D03*
X127100000Y-109275000D03*
X132900000Y-109275000D03*
X132900000Y-108625000D03*
X132900000Y-107975000D03*
X132900000Y-107325000D03*
X132900000Y-106675000D03*
X132900000Y-106025000D03*
X132900000Y-105375000D03*
X132900000Y-104725000D03*
D18*
X131000000Y-106000000D03*
X129000000Y-106000000D03*
X130000000Y-107000000D03*
D19*
X130000000Y-107000000D03*
D18*
X131000000Y-108000000D03*
X129000000Y-108000000D03*
%TD*%
D20*
%TO.C,U1*%
X158000000Y-116350000D03*
X158000000Y-117300000D03*
X158000000Y-118250000D03*
X155725000Y-118250000D03*
X155725000Y-117300000D03*
X155725000Y-116350000D03*
%TD*%
D21*
%TO.C,SW3*%
X161000000Y-124700000D03*
D22*
X161000000Y-122300000D03*
D21*
X158500000Y-124700000D03*
D22*
X158500000Y-122300000D03*
D21*
X156000000Y-124700000D03*
D22*
X156000000Y-122300000D03*
D23*
X161900000Y-123500000D03*
X155100000Y-123500000D03*
%TD*%
D24*
%TO.C,R15*%
X164500000Y-123575000D03*
X164500000Y-121925000D03*
%TD*%
%TO.C,R14*%
X139510000Y-100750000D03*
X139510000Y-102400000D03*
%TD*%
D25*
%TO.C,R13*%
X137600000Y-100750000D03*
X137600000Y-102400000D03*
%TD*%
D26*
%TO.C,R12*%
X170025000Y-99200000D03*
X168375000Y-99200000D03*
%TD*%
D12*
%TO.C,R11*%
X166625000Y-99200000D03*
X164975000Y-99200000D03*
%TD*%
D25*
%TO.C,R10*%
X165030000Y-115675000D03*
X165030000Y-117325000D03*
%TD*%
D24*
%TO.C,R9*%
X126500000Y-120575000D03*
X126500000Y-118925000D03*
%TD*%
D26*
%TO.C,R8*%
X139325000Y-116750000D03*
X137675000Y-116750000D03*
%TD*%
D25*
%TO.C,R7*%
X137600000Y-114025000D03*
X137600000Y-112375000D03*
%TD*%
D24*
%TO.C,R6*%
X163250000Y-117325000D03*
X163250000Y-115675000D03*
%TD*%
D26*
%TO.C,R5*%
X126975000Y-111000000D03*
X128625000Y-111000000D03*
%TD*%
D25*
%TO.C,R3*%
X171200000Y-91550000D03*
X171200000Y-93200000D03*
%TD*%
D26*
%TO.C,R2*%
X150575000Y-125010750D03*
X148925000Y-125010750D03*
%TD*%
D12*
%TO.C,R1*%
X137675000Y-118250000D03*
X139325000Y-118250000D03*
%TD*%
D27*
%TO.C,Q1*%
X135800000Y-114100000D03*
X135800000Y-112200000D03*
X133525000Y-113150000D03*
%TD*%
D15*
%TO.C,M3*%
X123200000Y-115400000D03*
D16*
X123200000Y-117940000D03*
%TD*%
%TO.C,M2*%
X123200000Y-109000000D03*
D15*
X123200000Y-111540000D03*
%TD*%
%TO.C,M1*%
X123200000Y-102600000D03*
D16*
X123200000Y-105140000D03*
%TD*%
%TO.C,J7*%
X157040000Y-111000000D03*
D15*
X154500000Y-111000000D03*
%TD*%
%TO.C,J6*%
X131340000Y-88800000D03*
D16*
X128800000Y-88800000D03*
%TD*%
D28*
%TO.C,J4*%
X148275000Y-122840750D03*
X140275000Y-122840750D03*
X148275000Y-119980750D03*
X140275000Y-119980750D03*
D29*
X141525000Y-122895750D03*
X143025000Y-122895750D03*
X143525000Y-122895750D03*
X144025000Y-122895750D03*
X144525000Y-122895750D03*
X145025000Y-122895750D03*
X145525000Y-122895750D03*
X147025000Y-122895750D03*
X147025000Y-119925750D03*
X145525000Y-119925750D03*
X145025000Y-119925750D03*
X144525000Y-119925750D03*
X144025000Y-119925750D03*
X143525000Y-119925750D03*
X143025000Y-119925750D03*
X141525000Y-119925750D03*
D30*
X148275000Y-121410750D03*
X140275000Y-121410750D03*
%TD*%
D15*
%TO.C,J2*%
X126000000Y-98680000D03*
D16*
X126000000Y-96140000D03*
X126000000Y-93600000D03*
%TD*%
D31*
%TO.C,J1*%
X137195000Y-124673250D03*
X128555000Y-124673250D03*
D32*
X137195000Y-120493250D03*
X128555000Y-120493250D03*
D29*
X131125000Y-119918250D03*
X132125000Y-119918250D03*
X133625000Y-119918250D03*
X134625000Y-119918250D03*
D33*
X135275000Y-119918250D03*
X136075000Y-119918250D03*
D29*
X134125000Y-119918250D03*
X133125000Y-119918250D03*
X132625000Y-119918250D03*
X131625000Y-119918250D03*
D33*
X130475000Y-119918250D03*
X129675000Y-119918250D03*
D34*
X135765000Y-120993250D03*
X129985000Y-120993250D03*
%TD*%
D35*
%TO.C,H5*%
X188750000Y-123000000D03*
%TD*%
D36*
%TO.C,D10*%
X126800000Y-113800000D03*
X130800000Y-113800000D03*
%TD*%
D37*
%TO.C,D9*%
X173200000Y-93200000D03*
X173200000Y-91625000D03*
%TD*%
D38*
%TO.C,D3*%
X135450000Y-96550000D03*
X135450000Y-99850000D03*
X130550000Y-99850000D03*
X130550000Y-96550000D03*
%TD*%
D39*
%TO.C,C15*%
X159802500Y-110751750D03*
X161352500Y-110751750D03*
%TD*%
%TO.C,C14*%
X159837500Y-114351750D03*
X161387500Y-114351750D03*
%TD*%
D40*
%TO.C,C13*%
X152100000Y-118025000D03*
X152100000Y-116475000D03*
%TD*%
D41*
%TO.C,C12*%
X170000000Y-95425000D03*
X170000000Y-96975000D03*
%TD*%
%TO.C,C11*%
X172000000Y-95425000D03*
X172000000Y-96975000D03*
%TD*%
D40*
%TO.C,C10*%
X150300000Y-118025000D03*
X150300000Y-116475000D03*
%TD*%
D39*
%TO.C,C9*%
X159802500Y-112571750D03*
X161352500Y-112571750D03*
%TD*%
D40*
%TO.C,C8*%
X148500000Y-118025000D03*
X148500000Y-116475000D03*
%TD*%
D42*
%TO.C,C7*%
X135875000Y-106400000D03*
X137600000Y-106400000D03*
%TD*%
%TO.C,C6*%
X135875000Y-108200000D03*
X137600000Y-108200000D03*
%TD*%
D43*
%TO.C,C5*%
X156200000Y-114500000D03*
X157750000Y-114500000D03*
%TD*%
D42*
%TO.C,C4*%
X131275000Y-102800000D03*
X133000000Y-102800000D03*
%TD*%
D43*
%TO.C,C3*%
X136825000Y-92000000D03*
X138375000Y-92000000D03*
%TD*%
D35*
%TO.C,H7*%
X123750000Y-89250000D03*
%TD*%
D26*
%TO.C,R4*%
X164975000Y-91800000D03*
X166625000Y-91800000D03*
%TD*%
D44*
%TO.C,SW1*%
X161725000Y-87925000D03*
X165875000Y-87925000D03*
X161725000Y-90075000D03*
X165875000Y-90075000D03*
%TD*%
%TO.C,SW2*%
X141675000Y-90275000D03*
X137525000Y-90275000D03*
X141675000Y-88125000D03*
X137525000Y-88125000D03*
%TD*%
D45*
%TO.C,MCU1*%
X158750000Y-92450000D03*
X158750000Y-106450000D03*
X144750000Y-106450000D03*
X144750000Y-92450000D03*
D46*
X150100000Y-99450000D03*
X150100000Y-101100000D03*
X151750000Y-101100000D03*
X153400000Y-101100000D03*
X153400000Y-99450000D03*
X153400000Y-97800000D03*
X151750000Y-97800000D03*
X151750000Y-99450000D03*
D47*
X145800000Y-92450000D03*
X146650000Y-92450000D03*
X147500000Y-92450000D03*
X148350000Y-92450000D03*
X149200000Y-92450000D03*
X150050000Y-92450000D03*
X150900000Y-92450000D03*
X151750000Y-92450000D03*
X152600000Y-92450000D03*
X153450000Y-92450000D03*
X154300000Y-92450000D03*
X155150000Y-92450000D03*
X156000000Y-92450000D03*
X156850000Y-92450000D03*
X157700000Y-92450000D03*
D48*
X158750000Y-93500000D03*
X158750000Y-94350000D03*
X158750000Y-95200000D03*
X158750000Y-96050000D03*
X158750000Y-96900000D03*
X158750000Y-97750000D03*
X158750000Y-98600000D03*
X158750000Y-99450000D03*
X158750000Y-100300000D03*
X158750000Y-101150000D03*
X158750000Y-102000000D03*
X158750000Y-102850000D03*
X158750000Y-103700000D03*
X158750000Y-104550000D03*
X158750000Y-105400000D03*
D47*
X157700000Y-106450000D03*
X156850000Y-106450000D03*
X156000000Y-106450000D03*
X155150000Y-106450000D03*
X154300000Y-106450000D03*
X153450000Y-106450000D03*
X152600000Y-106450000D03*
X151750000Y-106450000D03*
X150900000Y-106450000D03*
X150050000Y-106450000D03*
X149200000Y-106450000D03*
X148350000Y-106450000D03*
X147500000Y-106450000D03*
X146650000Y-106450000D03*
X145800000Y-106450000D03*
D48*
X144750000Y-105400000D03*
X144750000Y-104550000D03*
X144750000Y-103700000D03*
X144750000Y-102850000D03*
X144750000Y-102000000D03*
X144750000Y-101150000D03*
X144750000Y-100300000D03*
X144750000Y-99450000D03*
X144750000Y-98600000D03*
X144750000Y-97750000D03*
X144750000Y-96900000D03*
X144750000Y-96050000D03*
X144750000Y-95200000D03*
X144750000Y-94350000D03*
X144750000Y-93500000D03*
%TD*%
D39*
%TO.C,C1*%
X162575000Y-91800000D03*
X161025000Y-91800000D03*
%TD*%
D35*
%TO.C,H6*%
X182750000Y-89250000D03*
%TD*%
D39*
%TO.C,C2*%
X142375000Y-92000000D03*
X140825000Y-92000000D03*
%TD*%
D35*
%TO.C,H8*%
X123750000Y-123250000D03*
%TD*%
D49*
%TO.C,J5*%
X182250000Y-109000000D03*
D50*
X177250000Y-109000000D03*
%TD*%
D51*
%TO.C,Q9*%
X167395000Y-107285000D03*
X167395000Y-108555000D03*
X167395000Y-109825000D03*
X167395000Y-111095000D03*
D52*
X169500000Y-109190000D03*
D53*
X172860000Y-107285000D03*
X172860000Y-108555000D03*
X172860000Y-109825000D03*
X172860000Y-111095000D03*
%TD*%
D54*
%TO.C,J3*%
X180000000Y-114500000D03*
D55*
X183000000Y-124500000D03*
D56*
X175000000Y-114500000D03*
D55*
X172000000Y-124500000D03*
%TD*%
D57*
%TO.C,D2*%
X168500000Y-117750000D03*
X168500000Y-113350000D03*
%TD*%
D58*
%TO.C,D1*%
X168500000Y-120100000D03*
X168500000Y-124500000D03*
%TD*%
D15*
%TO.C,LED1*%
X178260000Y-94600000D03*
D16*
X180800000Y-94600000D03*
X178260000Y-97140000D03*
X180800000Y-97140000D03*
X178260000Y-99680000D03*
X180800000Y-99680000D03*
%TD*%
M02*
